Graphik-BlackItalic.ufo
<glyph name="exclam" format="2">
  <advance width="342"/>
  <unicode hex="0021"/>
  <outline>
    <contour>
      <point x="85" y="241" type="line"/>
      <point x="132" y="715" type="line"/>
      <point x="353" y="715" type="line"/>
      <point x="248" y="241" type="line"/>
    </contour>
    <contour>
      <point x="145" y="-12" type="curve" smooth="yes"/>
      <point x="82" y="-12"/>
      <point x="36" y="34"/>
      <point x="36" y="93" type="curve" smooth="yes"/>
      <point x="36" y="151"/>
      <point x="84" y="199"/>
      <point x="147" y="199" type="curve" smooth="yes"/>
      <point x="210" y="199"/>
      <point x="258" y="153"/>
      <point x="258" y="94" type="curve" smooth="yes"/>
      <point x="258" y="35"/>
      <point x="208" y="-12"/>
    </contour>
  </outline>
</glyph>
<glyph name="quotedbl" format="2">
  <advance width="478"/>
  <unicode hex="0022"/>
  <outline>
    <contour>
      <point x="87" y="434" type="line"/>
      <point x="108" y="715" type="line"/>
      <point x="290" y="715" type="line"/>
      <point x="226" y="434" type="line"/>
    </contour>
    <contour>
      <point x="309" y="434" type="line"/>
      <point x="329" y="715" type="line"/>
      <point x="512" y="715" type="line"/>
      <point x="447" y="434" type="line"/>
    </contour>
  </outline>
</glyph>
<glyph name="numbersign" format="2">
  <advance width="581"/>
  <unicode hex="0023"/>
  <outline>
    <contour>
      <point x="268" y="99" type="line"/>
      <point x="300" y="234" type="line"/>
      <point x="243" y="234" type="line"/>
      <point x="211" y="99" type="line"/>
      <point x="81" y="99" type="line"/>
      <point x="113" y="234" type="line"/>
      <point x="37" y="234" type="line"/>
      <point x="62" y="388" type="line"/>
      <point x="150" y="388" type="line"/>
      <point x="165" y="453" type="line"/>
      <point x="88" y="453" type="line"/>
      <point x="110" y="599" type="line"/>
      <point x="200" y="599" type="line"/>
      <point x="228" y="715" type="line"/>
      <point x="358" y="715" type="line"/>
      <point x="330" y="599" type="line"/>
      <point x="386" y="599" type="line"/>
      <point x="414" y="715" type="line"/>
      <point x="545" y="715" type="line"/>
      <point x="517" y="599" type="line"/>
      <point x="594" y="599" type="line"/>
      <point x="572" y="453" type="line"/>
      <point x="482" y="453" type="line"/>
      <point x="467" y="388" type="line"/>
      <point x="546" y="388" type="line"/>
      <point x="521" y="234" type="line"/>
      <point x="430" y="234" type="line"/>
      <point x="398" y="99" type="line"/>
    </contour>
    <contour>
      <point x="295" y="453" type="line"/>
      <point x="280" y="388" type="line"/>
      <point x="336" y="388" type="line"/>
      <point x="352" y="453" type="line"/>
    </contour>
  </outline>
</glyph>
<glyph name="dollar" format="2">
  <advance width="648"/>
  <unicode hex="0024"/>
  <outline>
    <contour>
      <point x="222" y="-135" type="line"/>
      <point x="242" y="-6" type="line"/>
      <point x="120" y="11"/>
      <point x="13" y="77"/>
      <point x="9" y="227" type="curve"/>
      <point x="209" y="227" type="line"/>
      <point x="210" y="184"/>
      <point x="230" y="157"/>
      <point x="266" y="145" type="curve"/>
      <point x="287" y="276" type="line"/>
      <point x="133" y="309"/>
      <point x="65" y="369"/>
      <point x="65" y="485" type="curve" smooth="yes"/>
      <point x="65" y="636"/>
      <point x="197" y="722"/>
      <point x="358" y="725" type="curve"/>
      <point x="372" y="813" type="line"/>
      <point x="454" y="813" type="line"/>
      <point x="439" y="720" type="line"/>
      <point x="558" y="705"/>
      <point x="652" y="646"/>
      <point x="658" y="503" type="curve"/>
      <point x="462" y="503" type="line"/>
      <point x="461" y="538"/>
      <point x="442" y="558"/>
      <point x="415" y="569" type="curve"/>
      <point x="395" y="442" type="line"/>
      <point x="534" y="412"/>
      <point x="623" y="358"/>
      <point x="623" y="235" type="curve" smooth="yes"/>
      <point x="623" y="72"/>
      <point x="495" y="-11"/>
      <point x="323" y="-12" type="curve"/>
      <point x="304" y="-135" type="line"/>
    </contour>
    <contour>
      <point x="423" y="203" type="curve" smooth="yes"/>
      <point x="423" y="228"/>
      <point x="408" y="244"/>
      <point x="366" y="258" type="curve"/>
      <point x="347" y="137" type="line"/>
      <point x="397" y="141"/>
      <point x="423" y="163"/>
    </contour>
    <contour>
      <point x="260" y="516" type="curve" smooth="yes"/>
      <point x="260" y="487"/>
      <point x="274" y="472"/>
      <point x="316" y="459" type="curve"/>
      <point x="335" y="577" type="line"/>
      <point x="296" y="572"/>
      <point x="260" y="555"/>
    </contour>
  </outline>
</glyph>
<glyph name="percent" format="2">
  <advance width="835"/>
  <unicode hex="0025"/>
  <outline>
    <contour>
      <point x="198" y="526" type="curve" smooth="yes"/>
      <point x="198" y="498"/>
      <point x="210" y="471"/>
      <point x="246" y="472" type="curve" smooth="yes"/>
      <point x="286" y="473"/>
      <point x="304" y="519"/>
      <point x="304" y="561" type="curve" smooth="yes"/>
      <point x="304" y="590"/>
      <point x="290" y="615"/>
      <point x="257" y="615" type="curve" smooth="yes"/>
      <point x="217" y="615"/>
      <point x="198" y="573"/>
    </contour>
    <contour>
      <point x="241" y="360" type="curve" smooth="yes"/>
      <point x="141" y="360"/>
      <point x="56" y="416"/>
      <point x="56" y="521" type="curve" smooth="yes"/>
      <point x="56" y="634"/>
      <point x="139" y="723"/>
      <point x="262" y="723" type="curve" smooth="yes"/>
      <point x="359" y="723"/>
      <point x="445" y="666"/>
      <point x="445" y="562" type="curve" smooth="yes"/>
      <point x="445" y="453"/>
      <point x="362" y="360"/>
    </contour>
    <contour>
      <point x="95" y="0" type="line"/>
      <point x="677" y="715" type="line"/>
      <point x="780" y="715" type="line"/>
      <point x="198" y="0" type="line"/>
    </contour>
    <contour>
      <point x="569" y="153" type="curve" smooth="yes"/>
      <point x="569" y="125"/>
      <point x="580" y="98"/>
      <point x="617" y="99" type="curve" smooth="yes"/>
      <point x="657" y="100"/>
      <point x="674" y="146"/>
      <point x="674" y="188" type="curve" smooth="yes"/>
      <point x="674" y="216"/>
      <point x="661" y="242"/>
      <point x="628" y="242" type="curve" smooth="yes"/>
      <point x="587" y="242"/>
      <point x="569" y="200"/>
    </contour>
    <contour>
      <point x="612" y="-13" type="curve" smooth="yes"/>
      <point x="512" y="-13"/>
      <point x="426" y="43"/>
      <point x="426" y="148" type="curve" smooth="yes"/>
      <point x="426" y="258"/>
      <point x="510" y="350"/>
      <point x="633" y="350" type="curve" smooth="yes"/>
      <point x="730" y="350"/>
      <point x="816" y="293"/>
      <point x="816" y="189" type="curve" smooth="yes"/>
      <point x="816" y="80"/>
      <point x="733" y="-13"/>
    </contour>
  </outline>
</glyph>
<glyph name="ampersand" format="2">
  <advance width="777"/>
  <unicode hex="0026"/>
  <outline>
    <contour>
      <point x="709" y="0" type="line"/>
      <point x="469" y="0" type="line"/>
      <point x="437" y="48" type="line"/>
      <point x="394" y="17"/>
      <point x="333" y="-12"/>
      <point x="244" y="-12" type="curve" smooth="yes"/>
      <point x="125" y="-12"/>
      <point x="13" y="42"/>
      <point x="13" y="186" type="curve" smooth="yes"/>
      <point x="13" y="306"/>
      <point x="105" y="373"/>
      <point x="204" y="411" type="curve"/>
      <point x="184" y="443"/>
      <point x="171" y="486"/>
      <point x="171" y="521" type="curve" smooth="yes"/>
      <point x="171" y="654"/>
      <point x="287" y="725"/>
      <point x="422" y="725" type="curve" smooth="yes"/>
      <point x="526" y="725"/>
      <point x="639" y="679"/>
      <point x="639" y="555" type="curve" smooth="yes"/>
      <point x="639" y="455"/>
      <point x="562" y="406"/>
      <point x="474" y="370" type="curve"/>
      <point x="538" y="272" type="line"/>
      <point x="603" y="373" type="line"/>
      <point x="778" y="373" type="line"/>
      <point x="624" y="134" type="line"/>
    </contour>
    <contour>
      <point x="225" y="214" type="curve" smooth="yes"/>
      <point x="225" y="172"/>
      <point x="250" y="143"/>
      <point x="298" y="143" type="curve" smooth="yes"/>
      <point x="323" y="143"/>
      <point x="346" y="153"/>
      <point x="360" y="165" type="curve"/>
      <point x="275" y="294" type="line"/>
      <point x="250" y="279"/>
      <point x="225" y="256"/>
    </contour>
    <contour>
      <point x="418" y="587" type="curve" smooth="yes"/>
      <point x="387" y="587"/>
      <point x="363" y="565"/>
      <point x="363" y="528" type="curve" smooth="yes"/>
      <point x="363" y="505"/>
      <point x="376" y="481"/>
      <point x="394" y="458" type="curve"/>
      <point x="430" y="476"/>
      <point x="467" y="496"/>
      <point x="467" y="539" type="curve" smooth="yes"/>
      <point x="467" y="566"/>
      <point x="449" y="587"/>
    </contour>
  </outline>
</glyph>
<glyph name="quotesingle" format="2">
  <advance width="264"/>
  <unicode hex="0027"/>
  <outline>
    <contour>
      <point x="87" y="434" type="line"/>
      <point x="108" y="715" type="line"/>
      <point x="298" y="715" type="line"/>
      <point x="234" y="434" type="line"/>
    </contour>
  </outline>
</glyph>
<glyph name="parenleft" format="2">
  <advance width="362"/>
  <unicode hex="0028"/>
  <outline>
    <contour>
      <point x="138" y="-148" type="line"/>
      <point x="85" y="-67"/>
      <point x="32" y="46"/>
      <point x="32" y="211" type="curve" smooth="yes"/>
      <point x="32" y="438"/>
      <point x="130" y="632"/>
      <point x="284" y="775" type="curve"/>
      <point x="441" y="775" type="line"/>
      <point x="303" y="598"/>
      <point x="217" y="427"/>
      <point x="217" y="196" type="curve" smooth="yes"/>
      <point x="217" y="53"/>
      <point x="248" y="-64"/>
      <point x="287" y="-148" type="curve"/>
    </contour>
  </outline>
</glyph>
<glyph name="parenright" format="2">
  <advance width="362"/>
  <unicode hex="0029"/>
  <outline>
    <contour>
      <point x="237" y="776" type="line"/>
      <point x="290" y="695"/>
      <point x="343" y="582"/>
      <point x="343" y="417" type="curve" smooth="yes"/>
      <point x="343" y="190"/>
      <point x="246" y="-4"/>
      <point x="91" y="-147" type="curve"/>
      <point x="-66" y="-147" type="line"/>
      <point x="72" y="30"/>
      <point x="158" y="201"/>
      <point x="158" y="432" type="curve" smooth="yes"/>
      <point x="158" y="575"/>
      <point x="127" y="692"/>
      <point x="88" y="776" type="curve"/>
    </contour>
  </outline>
</glyph>
<glyph name="asterisk" format="2">
  <advance width="444"/>
  <unicode hex="002A"/>
  <outline>
    <contour>
      <point x="185" y="367" type="line"/>
      <point x="81" y="457" type="line"/>
      <point x="184" y="536" type="line"/>
      <point x="70" y="554" type="line"/>
      <point x="128" y="684" type="line"/>
      <point x="227" y="624" type="line"/>
      <point x="220" y="743" type="line"/>
      <point x="374" y="743" type="line"/>
      <point x="329" y="618" type="line"/>
      <point x="445" y="663" type="line"/>
      <point x="461" y="529" type="line"/>
      <point x="343" y="526" type="line"/>
      <point x="420" y="435" type="line"/>
      <point x="290" y="360" type="line"/>
      <point x="255" y="476" type="line"/>
    </contour>
  </outline>
</glyph>
<glyph name="plus" format="2">
  <advance width="579"/>
  <unicode hex="002B"/>
  <outline>
    <contour>
      <point x="181" y="79" type="line"/>
      <point x="211" y="269" type="line"/>
      <point x="37" y="269" type="line"/>
      <point x="60" y="411" type="line"/>
      <point x="234" y="411" type="line"/>
      <point x="263" y="600" type="line"/>
      <point x="420" y="600" type="line"/>
      <point x="390" y="411" type="line"/>
      <point x="564" y="411" type="line"/>
      <point x="541" y="269" type="line"/>
      <point x="368" y="269" type="line"/>
      <point x="338" y="79" type="line"/>
    </contour>
  </outline>
</glyph>
<glyph name="comma" format="2">
  <advance width="311"/>
  <unicode hex="002C"/>
  <outline>
    <contour>
      <point x="83" y="-124" type="line"/>
      <point x="-25" y="-77" type="line"/>
      <point x="80" y="193" type="line"/>
      <point x="253" y="130" type="line"/>
    </contour>
  </outline>
</glyph>
<glyph name="hyphen" format="2">
  <advance width="390"/>
  <unicode hex="002D"/>
  <outline>
    <contour>
      <point x="40" y="214" type="line"/>
      <point x="64" y="360" type="line"/>
      <point x="356" y="360" type="line"/>
      <point x="332" y="214" type="line"/>
    </contour>
  </outline>
</glyph>
<glyph name="period" format="2">
  <advance width="302"/>
  <unicode hex="002E"/>
  <outline>
    <contour>
      <point x="122" y="-12" type="curve" smooth="yes"/>
      <point x="59" y="-12"/>
      <point x="13" y="35"/>
      <point x="13" y="96" type="curve" smooth="yes"/>
      <point x="13" y="155"/>
      <point x="58" y="203"/>
      <point x="121" y="203" type="curve" smooth="yes"/>
      <point x="186" y="203"/>
      <point x="234" y="155"/>
      <point x="234" y="96" type="curve" smooth="yes"/>
      <point x="234" y="35"/>
      <point x="187" y="-12"/>
    </contour>
  </outline>
</glyph>
<glyph name="zero" format="2">
  <advance width="741"/>
  <unicode hex="0030"/>
  <outline>
    <contour>
      <point x="354" y="-13" type="curve" smooth="yes"/>
      <point x="161" y="-13"/>
      <point x="40" y="94"/>
      <point x="40" y="280" type="curve" smooth="yes"/>
      <point x="40" y="306"/>
      <point x="42" y="334"/>
      <point x="47" y="362" type="curve" smooth="yes"/>
      <point x="51" y="390" type="line" smooth="yes"/>
      <point x="86" y="613"/>
      <point x="226" y="726"/>
      <point x="416" y="726" type="curve" smooth="yes"/>
      <point x="600" y="726"/>
      <point x="729" y="621"/>
      <point x="729" y="429" type="curve" smooth="yes"/>
      <point x="729" y="405"/>
      <point x="727" y="378"/>
      <point x="723" y="352" type="curve" smooth="yes"/>
      <point x="719" y="323" type="line"/>
      <point x="684" y="100"/>
      <point x="552" y="-13"/>
    </contour>
    <contour>
      <point x="363" y="162" type="curve" smooth="yes"/>
      <point x="441" y="162"/>
      <point x="476" y="219"/>
      <point x="495" y="336" type="curve" smooth="yes"/>
      <point x="499" y="363" type="line" smooth="yes"/>
      <point x="503" y="390"/>
      <point x="506" y="416"/>
      <point x="506" y="439" type="curve" smooth="yes"/>
      <point x="506" y="504"/>
      <point x="484" y="554"/>
      <point x="410" y="554" type="curve" smooth="yes"/>
      <point x="334" y="554"/>
      <point x="294" y="498"/>
      <point x="275" y="379" type="curve" smooth="yes"/>
      <point x="271" y="351" type="line" smooth="yes"/>
      <point x="267" y="324"/>
      <point x="263" y="297"/>
      <point x="263" y="274" type="curve" smooth="yes"/>
      <point x="263" y="213"/>
      <point x="286" y="162"/>
    </contour>
  </outline>
</glyph>
<glyph name="one" format="2">
  <advance width="459"/>
  <unicode hex="0031"/>
  <outline>
    <contour>
      <point x="121" y="0" type="line"/>
      <point x="199" y="493" type="line"/>
      <point x="54" y="411" type="line"/>
      <point x="84" y="604" type="line"/>
      <point x="266" y="715" type="line"/>
      <point x="461" y="715" type="line"/>
      <point x="348" y="0" type="line"/>
    </contour>
  </outline>
</glyph>
<glyph name="three" format="2">
  <advance width="661"/>
  <unicode hex="0033"/>
  <outline>
    <contour>
      <point x="321" y="-13" type="curve" smooth="yes"/>
      <point x="138" y="-13"/>
      <point x="19" y="64"/>
      <point x="18" y="240" type="curve"/>
      <point x="223" y="240" type="line"/>
      <point x="222" y="187"/>
      <point x="247" y="149"/>
      <point x="310" y="149" type="curve" smooth="yes"/>
      <point x="361" y="149"/>
      <point x="396" y="178"/>
      <point x="396" y="229" type="curve" smooth="yes"/>
      <point x="396" y="271"/>
      <point x="371" y="294"/>
      <point x="316" y="294" type="curve" smooth="yes"/>
      <point x="266" y="294" type="line"/>
      <point x="288" y="431" type="line"/>
      <point x="352" y="431" type="line" smooth="yes"/>
      <point x="401" y="431"/>
      <point x="433" y="453"/>
      <point x="433" y="504" type="curve" smooth="yes"/>
      <point x="434" y="545"/>
      <point x="406" y="565"/>
      <point x="367" y="565" type="curve" smooth="yes"/>
      <point x="317" y="565"/>
      <point x="283" y="538"/>
      <point x="272" y="481" type="curve"/>
      <point x="71" y="481" type="line"/>
      <point x="91" y="629"/>
      <point x="205" y="726"/>
      <point x="382" y="726" type="curve" smooth="yes"/>
      <point x="518" y="726"/>
      <point x="648" y="674"/>
      <point x="648" y="534" type="curve" smooth="yes"/>
      <point x="648" y="453"/>
      <point x="598" y="389"/>
      <point x="509" y="367" type="curve"/>
      <point x="580" y="348"/>
      <point x="623" y="293"/>
      <point x="623" y="222" type="curve" smooth="yes"/>
      <point x="623" y="61"/>
      <point x="472" y="-13"/>
    </contour>
  </outline>
</glyph>
<glyph name="four" format="2">
  <advance width="689"/>
  <unicode hex="0034"/>
  <outline>
    <contour>
      <point x="318" y="0" type="line"/>
      <point x="339" y="134" type="line"/>
      <point x="-7" y="134" type="line"/>
      <point x="7" y="220" type="line"/>
      <point x="379" y="715" type="line"/>
      <point x="649" y="715" type="line"/>
      <point x="581" y="289" type="line"/>
      <point x="672" y="289" type="line"/>
      <point x="647" y="134" type="line"/>
      <point x="557" y="134" type="line"/>
      <point x="536" y="0" type="line"/>
    </contour>
    <contour>
      <point x="229" y="289" type="line"/>
      <point x="369" y="289" type="line"/>
      <point x="408" y="538" type="line"/>
    </contour>
  </outline>
</glyph>
<glyph name="five" format="2">
  <advance width="639"/>
  <unicode hex="0035"/>
  <outline>
    <contour>
      <point x="297" y="-13" type="curve" smooth="yes"/>
      <point x="146" y="-13"/>
      <point x="12" y="53"/>
      <point x="13" y="230" type="curve"/>
      <point x="224" y="230" type="line"/>
      <point x="225" y="186"/>
      <point x="246" y="157"/>
      <point x="297" y="157" type="curve" smooth="yes"/>
      <point x="352" y="157"/>
      <point x="380" y="196"/>
      <point x="381" y="254" type="curve" smooth="yes"/>
      <point x="381" y="307"/>
      <point x="350" y="335"/>
      <point x="296" y="335" type="curve" smooth="yes"/>
      <point x="246" y="335"/>
      <point x="209" y="315"/>
      <point x="186" y="287" type="curve"/>
      <point x="51" y="287" type="line"/>
      <point x="132" y="715" type="line"/>
      <point x="628" y="715" type="line"/>
      <point x="602" y="551" type="line"/>
      <point x="269" y="551" type="line"/>
      <point x="243" y="409" type="line"/>
      <point x="274" y="449"/>
      <point x="330" y="485"/>
      <point x="413" y="485" type="curve" smooth="yes"/>
      <point x="530" y="485"/>
      <point x="609" y="414"/>
      <point x="608" y="275" type="curve" smooth="yes"/>
      <point x="607" y="98"/>
      <point x="488" y="-13"/>
    </contour>
  </outline>
</glyph>
<glyph name="six" format="2">
  <advance width="685"/>
  <unicode hex="0036"/>
  <outline>
    <contour>
      <point x="342" y="-13" type="curve" smooth="yes"/>
      <point x="157" y="-13"/>
      <point x="40" y="81"/>
      <point x="42" y="270" type="curve" smooth="yes"/>
      <point x="42" y="299"/>
      <point x="45" y="331"/>
      <point x="50" y="363" type="curve" smooth="yes"/>
      <point x="53" y="386" type="line"/>
      <point x="84" y="584"/>
      <point x="216" y="726"/>
      <point x="413" y="726" type="curve" smooth="yes"/>
      <point x="552" y="726"/>
      <point x="672" y="666"/>
      <point x="678" y="507" type="curve"/>
      <point x="469" y="507" type="line"/>
      <point x="467" y="539"/>
      <point x="449" y="559"/>
      <point x="408" y="559" type="curve" smooth="yes"/>
      <point x="325" y="559"/>
      <point x="291" y="478"/>
      <point x="275" y="388" type="curve"/>
      <point x="307" y="430"/>
      <point x="357" y="469"/>
      <point x="440" y="469" type="curve" smooth="yes"/>
      <point x="550" y="469"/>
      <point x="655" y="401"/>
      <point x="655" y="265" type="curve" smooth="yes"/>
      <point x="655" y="88"/>
      <point x="513" y="-13"/>
    </contour>
    <contour>
      <point x="265" y="227" type="curve" smooth="yes"/>
      <point x="265" y="183"/>
      <point x="290" y="146"/>
      <point x="343" y="146" type="curve" smooth="yes"/>
      <point x="397" y="146"/>
      <point x="434" y="193"/>
      <point x="434" y="251" type="curve" smooth="yes"/>
      <point x="434" y="294"/>
      <point x="410" y="330"/>
      <point x="358" y="330" type="curve" smooth="yes"/>
      <point x="305" y="330"/>
      <point x="265" y="286"/>
    </contour>
  </outline>
</glyph>
<glyph name="eight" format="2">
  <advance width="666"/>
  <unicode hex="0038"/>
  <outline>
    <contour>
      <point x="314" y="-13" type="curve" smooth="yes"/>
      <point x="160" y="-13"/>
      <point x="14" y="49"/>
      <point x="14" y="188" type="curve" smooth="yes"/>
      <point x="14" y="293"/>
      <point x="80" y="355"/>
      <point x="173" y="383" type="curve"/>
      <point x="123" y="409"/>
      <point x="92" y="454"/>
      <point x="92" y="511" type="curve" smooth="yes"/>
      <point x="92" y="655"/>
      <point x="229" y="726"/>
      <point x="380" y="726" type="curve" smooth="yes"/>
      <point x="504" y="726"/>
      <point x="652" y="675"/>
      <point x="652" y="533" type="curve" smooth="yes"/>
      <point x="652" y="454"/>
      <point x="603" y="396"/>
      <point x="528" y="368" type="curve"/>
      <point x="598" y="340"/>
      <point x="633" y="284"/>
      <point x="633" y="220" type="curve" smooth="yes"/>
      <point x="633" y="63"/>
      <point x="497" y="-13"/>
    </contour>
    <contour>
      <point x="241" y="220" type="curve" smooth="yes"/>
      <point x="241" y="173"/>
      <point x="274" y="145"/>
      <point x="323" y="145" type="curve" smooth="yes"/>
      <point x="373" y="145"/>
      <point x="414" y="177"/>
      <point x="414" y="235" type="curve" smooth="yes"/>
      <point x="414" y="281"/>
      <point x="381" y="308"/>
      <point x="334" y="308" type="curve" smooth="yes"/>
      <point x="284" y="308"/>
      <point x="241" y="278"/>
    </contour>
    <contour>
      <point x="294" y="498" type="curve" smooth="yes"/>
      <point x="294" y="460"/>
      <point x="321" y="431"/>
      <point x="364" y="431" type="curve" smooth="yes"/>
      <point x="405" y="431"/>
      <point x="446" y="457"/>
      <point x="446" y="508" type="curve" smooth="yes"/>
      <point x="446" y="548"/>
      <point x="418" y="575"/>
      <point x="375" y="575" type="curve" smooth="yes"/>
      <point x="334" y="575"/>
      <point x="294" y="548"/>
    </contour>
  </outline>
</glyph>
<glyph name="nine" format="2">
  <advance width="685"/>
  <unicode hex="0039"/>
  <outline>
    <contour>
      <point x="299" y="-12" type="curve" smooth="yes"/>
      <point x="157" y="-12"/>
      <point x="31" y="48"/>
      <point x="24" y="207" type="curve"/>
      <point x="233" y="207" type="line"/>
      <point x="237" y="170"/>
      <point x="266" y="155"/>
      <point x="307" y="155" type="curve" smooth="yes"/>
      <point x="380" y="155"/>
      <point x="417" y="217"/>
      <point x="437" y="322" type="curve"/>
      <point x="404" y="276"/>
      <point x="358" y="242"/>
      <point x="275" y="242" type="curve" smooth="yes"/>
      <point x="165" y="242"/>
      <point x="57" y="300"/>
      <point x="57" y="443" type="curve" smooth="yes"/>
      <point x="57" y="620"/>
      <point x="193" y="727"/>
      <point x="371" y="727" type="curve" smooth="yes"/>
      <point x="556" y="727"/>
      <point x="672" y="629"/>
      <point x="672" y="436" type="curve" smooth="yes"/>
      <point x="672" y="408"/>
      <point x="670" y="379"/>
      <point x="665" y="348" type="curve" smooth="yes"/>
      <point x="662" y="329" type="line" smooth="yes"/>
      <point x="624" y="100"/>
      <point x="505" y="-12"/>
    </contour>
    <contour>
      <point x="274" y="464" type="curve" smooth="yes"/>
      <point x="274" y="417"/>
      <point x="299" y="385"/>
      <point x="347" y="385" type="curve" smooth="yes"/>
      <point x="401" y="385"/>
      <point x="444" y="424"/>
      <point x="444" y="488" type="curve" smooth="yes"/>
      <point x="444" y="531"/>
      <point x="420" y="568"/>
      <point x="367" y="568" type="curve" smooth="yes"/>
      <point x="314" y="568"/>
      <point x="274" y="526"/>
    </contour>
  </outline>
</glyph>
<glyph name="colon" format="2">
  <advance width="308"/>
  <unicode hex="003A"/>
  <outline>
    <contour>
      <point x="124" y="-12" type="curve" smooth="yes"/>
      <point x="61" y="-12"/>
      <point x="15" y="35"/>
      <point x="15" y="96" type="curve" smooth="yes"/>
      <point x="15" y="155"/>
      <point x="60" y="203"/>
      <point x="123" y="203" type="curve" smooth="yes"/>
      <point x="188" y="203"/>
      <point x="237" y="155"/>
      <point x="237" y="96" type="curve" smooth="yes"/>
      <point x="237" y="35"/>
      <point x="189" y="-12"/>
    </contour>
    <contour>
      <point x="170" y="272" type="curve" smooth="yes"/>
      <point x="107" y="272"/>
      <point x="61" y="319"/>
      <point x="61" y="379" type="curve" smooth="yes"/>
      <point x="61" y="439"/>
      <point x="106" y="487"/>
      <point x="169" y="487" type="curve" smooth="yes"/>
      <point x="234" y="487"/>
      <point x="283" y="439"/>
      <point x="283" y="379" type="curve" smooth="yes"/>
      <point x="283" y="319"/>
      <point x="235" y="272"/>
    </contour>
  </outline>
</glyph>
<glyph name="semicolon" format="2">
  <advance width="326"/>
  <unicode hex="003B"/>
  <outline>
    <contour>
      <point x="80" y="-124" type="line"/>
      <point x="-28" y="-77" type="line"/>
      <point x="77" y="193" type="line"/>
      <point x="249" y="130" type="line"/>
    </contour>
    <contour>
      <point x="195" y="272" type="curve" smooth="yes"/>
      <point x="132" y="272"/>
      <point x="86" y="319"/>
      <point x="86" y="379" type="curve" smooth="yes"/>
      <point x="86" y="439"/>
      <point x="131" y="487"/>
      <point x="194" y="487" type="curve" smooth="yes"/>
      <point x="259" y="487"/>
      <point x="308" y="439"/>
      <point x="308" y="379" type="curve" smooth="yes"/>
      <point x="308" y="319"/>
      <point x="260" y="272"/>
    </contour>
  </outline>
</glyph>
<glyph name="less" format="2">
  <advance width="514"/>
  <unicode hex="003C"/>
  <outline>
    <contour>
      <point x="434" y="53" type="line"/>
      <point x="46" y="309" type="line"/>
      <point x="52" y="347" type="line"/>
      <point x="519" y="592" type="line"/>
      <point x="491" y="411" type="line"/>
      <point x="300" y="321" type="line"/>
      <point x="461" y="221" type="line"/>
    </contour>
  </outline>
</glyph>
<glyph name="equal" format="2">
  <advance width="570"/>
  <unicode hex="003D"/>
  <outline>
    <contour>
      <point x="22" y="162" type="line"/>
      <point x="42" y="293" type="line"/>
      <point x="535" y="293" type="line"/>
      <point x="515" y="162" type="line"/>
    </contour>
    <contour>
      <point x="53" y="361" type="line"/>
      <point x="73" y="492" type="line"/>
      <point x="566" y="492" type="line"/>
      <point x="546" y="361" type="line"/>
    </contour>
  </outline>
</glyph>
<glyph name="greater" format="2">
  <advance width="514"/>
  <unicode hex="003E"/>
  <outline>
    <contour>
      <point x="97" y="593" type="line"/>
      <point x="485" y="337" type="line"/>
      <point x="479" y="299" type="line"/>
      <point x="12" y="54" type="line"/>
      <point x="40" y="235" type="line"/>
      <point x="232" y="325" type="line"/>
      <point x="70" y="425" type="line"/>
    </contour>
  </outline>
</glyph>
<glyph name="question" format="2">
  <advance width="568"/>
  <unicode hex="003F"/>
  <outline>
    <contour>
      <point x="162" y="241" type="line"/>
      <point x="165" y="260" type="line" smooth="yes"/>
      <point x="178" y="341"/>
      <point x="234" y="382"/>
      <point x="283" y="419" type="curve" smooth="yes"/>
      <point x="329" y="454"/>
      <point x="369" y="478"/>
      <point x="369" y="522" type="curve" smooth="yes"/>
      <point x="368" y="550"/>
      <point x="351" y="566"/>
      <point x="320" y="566" type="curve" smooth="yes"/>
      <point x="283" y="566"/>
      <point x="257" y="541"/>
      <point x="246" y="486" type="curve"/>
      <point x="54" y="486" type="line"/>
      <point x="74" y="648"/>
      <point x="192" y="726"/>
      <point x="342" y="725" type="curve" smooth="yes"/>
      <point x="500" y="725"/>
      <point x="582" y="652"/>
      <point x="582" y="542" type="curve" smooth="yes"/>
      <point x="582" y="451"/>
      <point x="534" y="404"/>
      <point x="480" y="363" type="curve" smooth="yes"/>
      <point x="429" y="325"/>
      <point x="366" y="294"/>
      <point x="348" y="241" type="curve"/>
    </contour>
    <contour>
      <point x="232" y="-12" type="curve" smooth="yes"/>
      <point x="168" y="-12"/>
      <point x="123" y="34"/>
      <point x="123" y="92" type="curve" smooth="yes"/>
      <point x="123" y="151"/>
      <point x="171" y="200"/>
      <point x="234" y="200" type="curve" smooth="yes"/>
      <point x="297" y="200"/>
      <point x="345" y="153"/>
      <point x="345" y="94" type="curve" smooth="yes"/>
      <point x="345" y="36"/>
      <point x="295" y="-12"/>
    </contour>
  </outline>
</glyph>
<glyph name="at" format="2">
  <advance width="918"/>
  <unicode hex="0040"/>
  <outline>
    <contour>
      <point x="706" y="463" type="line"/>
      <point x="662" y="187" type="line" smooth="yes"/>
      <point x="655" y="147"/>
      <point x="665" y="123"/>
      <point x="701" y="123" type="curve" smooth="yes"/>
      <point x="756" y="123"/>
      <point x="815" y="182"/>
      <point x="815" y="330" type="curve" smooth="yes"/>
      <point x="815" y="504"/>
      <point x="685" y="621"/>
      <point x="483" y="621" type="curve" smooth="yes"/>
      <point x="277" y="621"/>
      <point x="113" y="477"/>
      <point x="113" y="248" type="curve" smooth="yes"/>
      <point x="113" y="56"/>
      <point x="232" y="-90"/>
      <point x="466" y="-90" type="curve" smooth="yes"/>
      <point x="583" y="-90"/>
      <point x="678" y="-48"/>
      <point x="727" y="0" type="curve"/>
      <point x="820" y="0" type="line"/>
      <point x="752" y="-97"/>
      <point x="617" y="-160"/>
      <point x="462" y="-160" type="curve" smooth="yes"/>
      <point x="191" y="-160"/>
      <point x="27" y="20"/>
      <point x="27" y="250" type="curve" smooth="yes"/>
      <point x="27" y="517"/>
      <point x="244" y="691"/>
      <point x="484" y="691" type="curve" smooth="yes"/>
      <point x="718" y="691"/>
      <point x="897" y="549"/>
      <point x="897" y="327" type="curve" smooth="yes"/>
      <point x="897" y="127"/>
      <point x="784" y="50"/>
      <point x="668" y="50" type="curve" smooth="yes"/>
      <point x="585" y="50"/>
      <point x="536" y="77"/>
      <point x="521" y="130" type="curve"/>
      <point x="495" y="80"/>
      <point x="449" y="48"/>
      <point x="381" y="48" type="curve" smooth="yes"/>
      <point x="289" y="48"/>
      <point x="228" y="115"/>
      <point x="227" y="224" type="curve" smooth="yes"/>
      <point x="227" y="372"/>
      <point x="317" y="471"/>
      <point x="433" y="471" type="curve" smooth="yes"/>
      <point x="494" y="471"/>
      <point x="525" y="446"/>
      <point x="538" y="414" type="curve"/>
      <point x="547" y="463" type="line"/>
    </contour>
    <contour>
      <point x="442" y="175" type="curve" smooth="yes"/>
      <point x="484" y="175"/>
      <point x="517" y="225"/>
      <point x="517" y="288" type="curve" smooth="yes"/>
      <point x="517" y="324"/>
      <point x="498" y="347"/>
      <point x="463" y="347" type="curve" smooth="yes"/>
      <point x="422" y="347"/>
      <point x="389" y="303"/>
      <point x="390" y="235" type="curve" smooth="yes"/>
      <point x="390" y="198"/>
      <point x="408" y="175"/>
    </contour>
  </outline>
</glyph>
<glyph name="B" format="2">
  <advance width="690"/>
  <unicode hex="0042"/>
  <outline>
    <contour>
      <point x="23" y="0" type="line"/>
      <point x="136" y="715" type="line"/>
      <point x="441" y="715" type="line" smooth="yes"/>
      <point x="610" y="715"/>
      <point x="673" y="638"/>
      <point x="673" y="539" type="curve" smooth="yes"/>
      <point x="673" y="445"/>
      <point x="613" y="387"/>
      <point x="533" y="369" type="curve"/>
      <point x="604" y="354"/>
      <point x="657" y="306"/>
      <point x="657" y="220" type="curve" smooth="yes"/>
      <point x="657" y="88"/>
      <point x="548" y="0"/>
      <point x="378" y="0" type="curve" smooth="yes"/>
    </contour>
    <contour>
      <point x="267" y="149" type="line"/>
      <point x="343" y="149" type="line" smooth="yes"/>
      <point x="403" y="149"/>
      <point x="438" y="184"/>
      <point x="438" y="234" type="curve" smooth="yes"/>
      <point x="438" y="278"/>
      <point x="412" y="301"/>
      <point x="353" y="301" type="curve" smooth="yes"/>
      <point x="291" y="301" type="line"/>
    </contour>
    <contour>
      <point x="312" y="436" type="line"/>
      <point x="383" y="436" type="line" smooth="yes"/>
      <point x="440" y="436"/>
      <point x="467" y="462"/>
      <point x="467" y="509" type="curve" smooth="yes"/>
      <point x="467" y="550"/>
      <point x="443" y="567"/>
      <point x="396" y="567" type="curve" smooth="yes"/>
      <point x="333" y="567" type="line"/>
    </contour>
  </outline>
</glyph>
<glyph name="C" format="2">
  <advance width="768"/>
  <unicode hex="0043"/>
  <outline>
    <contour>
      <point x="394" y="-13" type="curve" smooth="yes"/>
      <point x="180" y="-13"/>
      <point x="40" y="93"/>
      <point x="40" y="302" type="curve" smooth="yes"/>
      <point x="40" y="549"/>
      <point x="190" y="726"/>
      <point x="443" y="726" type="curve" smooth="yes"/>
      <point x="637" y="726"/>
      <point x="759" y="633"/>
      <point x="766" y="444" type="curve"/>
      <point x="538" y="444" type="line"/>
      <point x="532" y="511"/>
      <point x="503" y="549"/>
      <point x="437" y="549" type="curve" smooth="yes"/>
      <point x="330" y="549"/>
      <point x="278" y="439"/>
      <point x="277" y="312" type="curve" smooth="yes"/>
      <point x="276" y="231"/>
      <point x="308" y="166"/>
      <point x="396" y="166" type="curve" smooth="yes"/>
      <point x="459" y="166"/>
      <point x="505" y="201"/>
      <point x="524" y="274" type="curve"/>
      <point x="749" y="274" type="line"/>
      <point x="721" y="82"/>
      <point x="572" y="-13"/>
    </contour>
  </outline>
</glyph>
<glyph name="D" format="2">
  <advance width="757"/>
  <unicode hex="0044"/>
  <outline>
    <contour>
      <point x="23" y="0" type="line"/>
      <point x="136" y="715" type="line"/>
      <point x="378" y="715" type="line" smooth="yes"/>
      <point x="622" y="715"/>
      <point x="747" y="602"/>
      <point x="747" y="411" type="curve" smooth="yes"/>
      <point x="747" y="143"/>
      <point x="576" y="0"/>
      <point x="329" y="0" type="curve" smooth="yes"/>
    </contour>
    <contour>
      <point x="277" y="172" type="line"/>
      <point x="330" y="172" type="line" smooth="yes"/>
      <point x="448" y="172"/>
      <point x="512" y="254"/>
      <point x="512" y="401" type="curve" smooth="yes"/>
      <point x="512" y="494"/>
      <point x="467" y="543"/>
      <point x="373" y="543" type="curve" smooth="yes"/>
      <point x="336" y="543" type="line"/>
    </contour>
  </outline>
</glyph>
<glyph name="F" format="2">
  <advance width="587"/>
  <unicode hex="0046"/>
  <outline>
    <contour>
      <point x="23" y="0" type="line"/>
      <point x="136" y="715" type="line"/>
      <point x="631" y="715" type="line"/>
      <point x="603" y="540" type="line"/>
      <point x="335" y="540" type="line"/>
      <point x="315" y="407" type="line"/>
      <point x="530" y="407" type="line"/>
      <point x="503" y="240" type="line"/>
      <point x="288" y="240" type="line"/>
      <point x="250" y="0" type="line"/>
    </contour>
  </outline>
</glyph>
<glyph name="H" format="2">
  <advance width="794"/>
  <unicode hex="0048"/>
  <outline>
    <contour>
      <point x="23" y="0" type="line"/>
      <point x="136" y="715" type="line"/>
      <point x="363" y="715" type="line"/>
      <point x="322" y="451" type="line"/>
      <point x="531" y="451" type="line"/>
      <point x="573" y="715" type="line"/>
      <point x="800" y="715" type="line"/>
      <point x="687" y="0" type="line"/>
      <point x="460" y="0" type="line"/>
      <point x="503" y="275" type="line"/>
      <point x="293" y="275" type="line"/>
      <point x="250" y="0" type="line"/>
    </contour>
  </outline>
</glyph>
<glyph name="J" format="2">
  <advance width="489"/>
  <unicode hex="004A"/>
  <outline>
    <contour>
      <point x="151" y="-9" type="curve" smooth="yes"/>
      <point x="67" y="-9"/>
      <point x="21" y="8"/>
      <point x="-7" y="22" type="curve"/>
      <point x="19" y="188" type="line"/>
      <point x="43" y="180"/>
      <point x="71" y="170"/>
      <point x="110" y="170" type="curve" smooth="yes"/>
      <point x="158" y="170"/>
      <point x="195" y="191"/>
      <point x="204" y="252" type="curve" smooth="yes"/>
      <point x="278" y="715" type="line"/>
      <point x="505" y="715" type="line"/>
      <point x="430" y="243" type="line" smooth="yes"/>
      <point x="403" y="70"/>
      <point x="306" y="-9"/>
    </contour>
  </outline>
</glyph>
<glyph name="M" format="2">
  <advance width="957"/>
  <unicode hex="004D"/>
  <outline>
    <contour>
      <point x="23" y="0" type="line"/>
      <point x="136" y="715" type="line"/>
      <point x="421" y="715" type="line"/>
      <point x="488" y="369" type="line"/>
      <point x="666" y="715" type="line"/>
      <point x="962" y="715" type="line"/>
      <point x="849" y="0" type="line"/>
      <point x="624" y="0" type="line"/>
      <point x="691" y="424" type="line"/>
      <point x="461" y="0" type="line"/>
      <point x="385" y="0" type="line"/>
      <point x="292" y="424" type="line"/>
      <point x="225" y="0" type="line"/>
    </contour>
  </outline>
</glyph>
<glyph name="P" format="2">
  <advance width="664"/>
  <unicode hex="0050"/>
  <outline>
    <contour>
      <point x="23" y="0" type="line"/>
      <point x="136" y="715" type="line"/>
      <point x="404" y="715" type="line" smooth="yes"/>
      <point x="582" y="715"/>
      <point x="676" y="634"/>
      <point x="677" y="507" type="curve" smooth="yes"/>
      <point x="677" y="329"/>
      <point x="559" y="233"/>
      <point x="372" y="233" type="curve" smooth="yes"/>
      <point x="287" y="233" type="line"/>
      <point x="250" y="0" type="line"/>
    </contour>
    <contour>
      <point x="310" y="385" type="line"/>
      <point x="362" y="385" type="line" smooth="yes"/>
      <point x="426" y="385"/>
      <point x="462" y="418"/>
      <point x="462" y="481" type="curve" smooth="yes"/>
      <point x="462" y="524"/>
      <point x="435" y="548"/>
      <point x="379" y="548" type="curve" smooth="yes"/>
      <point x="335" y="548" type="line"/>
    </contour>
  </outline>
</glyph>
<glyph name="Q" format="2">
  <advance width="820"/>
  <unicode hex="0051"/>
  <outline>
    <contour>
      <point x="389" y="-13" type="curve" smooth="yes"/>
      <point x="200" y="-13"/>
      <point x="40" y="96"/>
      <point x="40" y="299" type="curve" smooth="yes"/>
      <point x="40" y="551"/>
      <point x="209" y="725"/>
      <point x="453" y="725" type="curve" smooth="yes"/>
      <point x="650" y="725"/>
      <point x="810" y="619"/>
      <point x="810" y="410" type="curve" smooth="yes"/>
      <point x="810" y="259"/>
      <point x="749" y="137"/>
      <point x="646" y="63" type="curve"/>
      <point x="708" y="0" type="line"/>
      <point x="573" y="-126" type="line"/>
      <point x="464" y="-7" type="line"/>
      <point x="440" y="-11"/>
      <point x="415" y="-13"/>
    </contour>
    <contour>
      <point x="339" y="175" type="curve"/>
      <point x="451" y="265" type="line"/>
      <point x="510" y="203" type="line"/>
      <point x="553" y="248"/>
      <point x="574" y="323"/>
      <point x="574" y="402" type="curve" smooth="yes"/>
      <point x="574" y="480"/>
      <point x="537" y="547"/>
      <point x="446" y="549" type="curve" smooth="yes"/>
      <point x="332" y="550"/>
      <point x="275" y="432"/>
      <point x="275" y="308" type="curve" smooth="yes"/>
      <point x="275" y="250"/>
      <point x="295" y="200"/>
    </contour>
  </outline>
</glyph>
<glyph name="S" format="2">
  <advance width="651"/>
  <unicode hex="0053"/>
  <outline>
    <contour>
      <point x="315" y="-13" type="curve" smooth="yes"/>
      <point x="119" y="-13"/>
      <point x="6" y="74"/>
      <point x="8" y="229" type="curve"/>
      <point x="220" y="229" type="line"/>
      <point x="222" y="185"/>
      <point x="247" y="147"/>
      <point x="320" y="147" type="curve" smooth="yes"/>
      <point x="374" y="146"/>
      <point x="401" y="168"/>
      <point x="401" y="208" type="curve" smooth="yes"/>
      <point x="401" y="237"/>
      <point x="377" y="253"/>
      <point x="309" y="266" type="curve" smooth="yes"/>
      <point x="131" y="302"/>
      <point x="67" y="361"/>
      <point x="67" y="481" type="curve" smooth="yes"/>
      <point x="67" y="620"/>
      <point x="174" y="725"/>
      <point x="363" y="725" type="curve" smooth="yes"/>
      <point x="537" y="725"/>
      <point x="643" y="655"/>
      <point x="641" y="497" type="curve"/>
      <point x="434" y="497" type="line"/>
      <point x="431" y="544"/>
      <point x="404" y="566"/>
      <point x="357" y="566" type="curve" smooth="yes"/>
      <point x="310" y="566"/>
      <point x="286" y="545"/>
      <point x="286" y="512" type="curve" smooth="yes"/>
      <point x="286" y="482"/>
      <point x="307" y="469"/>
      <point x="377" y="455" type="curve" smooth="yes"/>
      <point x="539" y="423"/>
      <point x="623" y="368"/>
      <point x="623" y="242" type="curve" smooth="yes"/>
      <point x="623" y="92"/>
      <point x="516" y="-11"/>
    </contour>
  </outline>
</glyph>
<glyph name="T" format="2">
  <advance width="629"/>
  <unicode hex="0054"/>
  <outline>
    <contour>
      <point x="158" y="0" type="line"/>
      <point x="243" y="541" type="line"/>
      <point x="62" y="541" type="line"/>
      <point x="91" y="715" type="line"/>
      <point x="680" y="715" type="line"/>
      <point x="652" y="541" type="line"/>
      <point x="471" y="541" type="line"/>
      <point x="386" y="0" type="line"/>
    </contour>
  </outline>
</glyph>
<glyph name="U" format="2">
  <advance width="776"/>
  <unicode hex="0055"/>
  <outline>
    <contour>
      <point x="376" y="-13" type="curve" smooth="yes"/>
      <point x="154" y="-13"/>
      <point x="32" y="96"/>
      <point x="67" y="313" type="curve" smooth="yes"/>
      <point x="132" y="715" type="line"/>
      <point x="358" y="715" type="line"/>
      <point x="293" y="306" type="line" smooth="yes"/>
      <point x="278" y="212"/>
      <point x="302" y="165"/>
      <point x="380" y="165" type="curve" smooth="yes"/>
      <point x="456" y="165"/>
      <point x="478" y="209"/>
      <point x="492" y="294" type="curve" smooth="yes"/>
      <point x="559" y="715" type="line"/>
      <point x="787" y="715" type="line"/>
      <point x="717" y="276" type="line" smooth="yes"/>
      <point x="686" y="76"/>
      <point x="578" y="-13"/>
    </contour>
  </outline>
</glyph>
<glyph name="V" format="2">
  <advance width="734"/>
  <unicode hex="0056"/>
  <outline>
    <contour>
      <point x="199" y="0" type="line"/>
      <point x="76" y="715" type="line"/>
      <point x="313" y="715" type="line"/>
      <point x="370" y="236" type="line"/>
      <point x="579" y="715" type="line"/>
      <point x="800" y="715" type="line"/>
      <point x="455" y="0" type="line"/>
    </contour>
  </outline>
</glyph>
<glyph name="W" format="2">
  <advance width="1000"/>
  <unicode hex="0057"/>
  <outline>
    <contour>
      <point x="134" y="0" type="line"/>
      <point x="77" y="715" type="line"/>
      <point x="306" y="715" type="line"/>
      <point x="320" y="283" type="line"/>
      <point x="478" y="715" type="line"/>
      <point x="669" y="715" type="line"/>
      <point x="702" y="278" type="line"/>
      <point x="858" y="715" type="line"/>
      <point x="1066" y="715" type="line"/>
      <point x="783" y="0" type="line"/>
      <point x="562" y="0" type="line"/>
      <point x="527" y="416" type="line"/>
      <point x="363" y="0" type="line"/>
    </contour>
  </outline>
</glyph>
<glyph name="X" format="2">
  <advance width="744"/>
  <unicode hex="0058"/>
  <outline>
    <contour>
      <point x="-29" y="0" type="line"/>
      <point x="246" y="376" type="line"/>
      <point x="101" y="715" type="line"/>
      <point x="344" y="715" type="line"/>
      <point x="415" y="513" type="line"/>
      <point x="544" y="715" type="line"/>
      <point x="778" y="715" type="line"/>
      <point x="538" y="368" type="line"/>
      <point x="697" y="0" type="line"/>
      <point x="453" y="0" type="line"/>
      <point x="366" y="237" type="line"/>
      <point x="208" y="0" type="line"/>
    </contour>
  </outline>
</glyph>
<glyph name="Y" format="2">
  <advance width="693"/>
  <unicode hex="0059"/>
  <outline>
    <contour>
      <point x="194" y="0" type="line"/>
      <point x="241" y="306" type="line"/>
      <point x="75" y="715" type="line"/>
      <point x="310" y="715" type="line"/>
      <point x="387" y="494" type="line"/>
      <point x="530" y="715" type="line"/>
      <point x="756" y="715" type="line"/>
      <point x="468" y="294" type="line"/>
      <point x="422" y="0" type="line"/>
    </contour>
  </outline>
</glyph>
<glyph name="Z" format="2">
  <advance width="626"/>
  <unicode hex="005A"/>
  <outline>
    <contour>
      <point x="-32" y="0" type="line"/>
      <point x="-28" y="24" type="line"/>
      <point x="339" y="545" type="line"/>
      <point x="91" y="545" type="line"/>
      <point x="119" y="715" type="line"/>
      <point x="687" y="715" type="line"/>
      <point x="683" y="691" type="line"/>
      <point x="317" y="171" type="line"/>
      <point x="579" y="171" type="line"/>
      <point x="552" y="0" type="line"/>
    </contour>
  </outline>
</glyph>
<glyph name="bracketleft" format="2">
  <advance width="419"/>
  <unicode hex="005B"/>
  <outline>
    <contour>
      <point x="-5" y="-148" type="line"/>
      <point x="141" y="776" type="line"/>
      <point x="462" y="776" type="line"/>
      <point x="440" y="634" type="line"/>
      <point x="317" y="634" type="line"/>
      <point x="217" y="-6" type="line"/>
      <point x="339" y="-6" type="line"/>
      <point x="316" y="-148" type="line"/>
    </contour>
  </outline>
</glyph>
<glyph name="backslash" format="2">
  <advance width="440"/>
  <unicode hex="005C"/>
  <outline>
    <contour>
      <point x="262" y="-148" type="line"/>
      <point x="65" y="776" type="line"/>
      <point x="214" y="776" type="line"/>
      <point x="411" y="-148" type="line"/>
    </contour>
  </outline>
</glyph>
<glyph name="bracketright" format="2">
  <advance width="546"/>
  <unicode hex="005D"/>
  <outline>
    <contour>
      <point x="-28" y="-148" type="line"/>
      <point x="-6" y="-6" type="line"/>
      <point x="115" y="-6" type="line"/>
      <point x="216" y="634" type="line"/>
      <point x="95" y="634" type="line"/>
      <point x="118" y="776" type="line"/>
      <point x="437" y="776" type="line"/>
      <point x="291" y="-148" type="line"/>
    </contour>
  </outline>
</glyph>
<glyph name="asciicircum" format="2">
  <advance width="535"/>
  <unicode hex="005E"/>
  <outline>
    <contour>
      <point x="39" y="391" type="line"/>
      <point x="251" y="715" type="line"/>
      <point x="420" y="715" type="line"/>
      <point x="536" y="391" type="line"/>
      <point x="374" y="391" type="line"/>
      <point x="315" y="556" type="line"/>
      <point x="206" y="391" type="line"/>
    </contour>
  </outline>
</glyph>
<glyph name="grave" format="2">
  <advance width="400"/>
  <unicode hex="0060"/>
  <outline>
    <contour>
      <point x="189" y="578" type="line"/>
      <point x="96" y="747" type="line"/>
      <point x="288" y="747" type="line"/>
      <point x="326" y="578" type="line"/>
    </contour>
  </outline>
</glyph>
<glyph name="b" format="2">
  <advance width="646"/>
  <unicode hex="0062"/>
  <outline>
    <contour>
      <point x="374" y="-13" type="curve" smooth="yes"/>
      <point x="295" y="-13"/>
      <point x="236" y="26"/>
      <point x="215" y="83" type="curve"/>
      <point x="202" y="0" type="line"/>
      <point x="4" y="0" type="line"/>
      <point x="124" y="749" type="line"/>
      <point x="320" y="749" type="line"/>
      <point x="273" y="449" type="line"/>
      <point x="308" y="504"/>
      <point x="363" y="538"/>
      <point x="445" y="538" type="curve" smooth="yes"/>
      <point x="547" y="538"/>
      <point x="626" y="462"/>
      <point x="626" y="312" type="curve" smooth="yes"/>
      <point x="626" y="106"/>
      <point x="518" y="-13"/>
    </contour>
    <contour>
      <point x="316" y="135" type="curve" smooth="yes"/>
      <point x="380" y="135"/>
      <point x="424" y="200"/>
      <point x="424" y="298" type="curve" smooth="yes"/>
      <point x="424" y="359"/>
      <point x="398" y="393"/>
      <point x="347" y="393" type="curve" smooth="yes"/>
      <point x="282" y="393"/>
      <point x="236" y="324"/>
      <point x="236" y="230" type="curve" smooth="yes"/>
      <point x="236" y="168"/>
      <point x="264" y="135"/>
    </contour>
  </outline>
</glyph>
<glyph name="f" format="2">
  <advance width="391"/>
  <unicode hex="0066"/>
  <outline>
    <contour>
      <point x="30" y="391" type="line"/>
      <point x="50" y="523" type="line"/>
      <point x="114" y="523" type="line"/>
      <point x="124" y="583" type="line" smooth="yes"/>
      <point x="146" y="711"/>
      <point x="239" y="762"/>
      <point x="353" y="762" type="curve" smooth="yes"/>
      <point x="402" y="762"/>
      <point x="426" y="756"/>
      <point x="450" y="747" type="curve"/>
      <point x="427" y="605" type="line"/>
      <point x="414" y="609"/>
      <point x="402" y="613"/>
      <point x="381" y="613" type="curve" smooth="yes"/>
      <point x="342" y="613"/>
      <point x="323" y="593"/>
      <point x="317" y="562" type="curve" smooth="yes"/>
      <point x="311" y="523" type="line"/>
      <point x="413" y="523" type="line"/>
      <point x="392" y="391" type="line"/>
      <point x="290" y="391" type="line"/>
      <point x="228" y="0" type="line"/>
      <point x="32" y="0" type="line"/>
      <point x="93" y="391" type="line"/>
    </contour>
  </outline>
</glyph>
<glyph name="h" format="2">
  <advance width="627"/>
  <unicode hex="0068"/>
  <outline>
    <contour>
      <point x="5" y="0" type="line"/>
      <point x="124" y="749" type="line"/>
      <point x="320" y="749" type="line"/>
      <point x="271" y="436" type="line"/>
      <point x="307" y="494"/>
      <point x="361" y="538"/>
      <point x="446" y="538" type="curve" smooth="yes"/>
      <point x="543" y="538"/>
      <point x="617" y="473"/>
      <point x="592" y="315" type="curve" smooth="yes"/>
      <point x="542" y="0" type="line"/>
      <point x="345" y="0" type="line"/>
      <point x="392" y="297" type="line" smooth="yes"/>
      <point x="401" y="353"/>
      <point x="383" y="380"/>
      <point x="338" y="380" type="curve" smooth="yes"/>
      <point x="288" y="380"/>
      <point x="257" y="349"/>
      <point x="247" y="286" type="curve" smooth="yes"/>
      <point x="202" y="0" type="line"/>
    </contour>
  </outline>
</glyph>
<glyph name="j" format="2">
  <advance width="303"/>
  <unicode hex="006A"/>
  <outline>
    <contour>
      <point x="-79" y="-181" type="curve"/>
      <point x="-57" y="-42" type="line"/>
      <point x="-16" y="-40"/>
      <point x="7" y="-25"/>
      <point x="12" y="13" type="curve" smooth="yes"/>
      <point x="93" y="523" type="line"/>
      <point x="289" y="523" type="line"/>
      <point x="205" y="-6" type="line" smooth="yes"/>
      <point x="189" y="-108"/>
      <point x="127" y="-192"/>
    </contour>
    <contour>
      <point x="210" y="563" type="curve" smooth="yes"/>
      <point x="150" y="563"/>
      <point x="107" y="605"/>
      <point x="107" y="661" type="curve" smooth="yes"/>
      <point x="107" y="718"/>
      <point x="151" y="759"/>
      <point x="211" y="759" type="curve" smooth="yes"/>
      <point x="271" y="759"/>
      <point x="315" y="718"/>
      <point x="315" y="661" type="curve" smooth="yes"/>
      <point x="315" y="605"/>
      <point x="270" y="563"/>
    </contour>
  </outline>
</glyph>
<glyph name="k" format="2">
  <advance width="587"/>
  <unicode hex="006B"/>
  <outline>
    <contour>
      <point x="5" y="0" type="line"/>
      <point x="123" y="750" type="line"/>
      <point x="320" y="750" type="line"/>
      <point x="252" y="319" type="line"/>
      <point x="413" y="523" type="line"/>
      <point x="624" y="523" type="line"/>
      <point x="417" y="281" type="line"/>
      <point x="546" y="0" type="line"/>
      <point x="336" y="0" type="line"/>
      <point x="238" y="231" type="line"/>
      <point x="202" y="0" type="line"/>
    </contour>
  </outline>
</glyph>
<glyph name="m" format="2">
  <advance width="931"/>
  <unicode hex="006D"/>
  <outline>
    <contour>
      <point x="5" y="0" type="line"/>
      <point x="60" y="349" type="line" smooth="yes"/>
      <point x="72" y="425"/>
      <point x="78" y="475"/>
      <point x="80" y="523" type="curve"/>
      <point x="272" y="523" type="line"/>
      <point x="272" y="497"/>
      <point x="271" y="465"/>
      <point x="267" y="434" type="curve"/>
      <point x="302" y="489"/>
      <point x="364" y="538"/>
      <point x="444" y="538" type="curve" smooth="yes"/>
      <point x="512" y="538"/>
      <point x="558" y="505"/>
      <point x="576" y="440" type="curve"/>
      <point x="625" y="507"/>
      <point x="685" y="538"/>
      <point x="754" y="538" type="curve" smooth="yes"/>
      <point x="854" y="538"/>
      <point x="921" y="472"/>
      <point x="898" y="331" type="curve" smooth="yes"/>
      <point x="847" y="0" type="line"/>
      <point x="650" y="0" type="line"/>
      <point x="698" y="301" type="line" smooth="yes"/>
      <point x="706" y="354"/>
      <point x="688" y="379"/>
      <point x="650" y="379" type="curve" smooth="yes"/>
      <point x="607" y="379"/>
      <point x="579" y="350"/>
      <point x="570" y="297" type="curve" smooth="yes"/>
      <point x="523" y="0" type="line"/>
      <point x="329" y="0" type="line"/>
      <point x="376" y="302" type="line" smooth="yes"/>
      <point x="385" y="354"/>
      <point x="366" y="379"/>
      <point x="328" y="379" type="curve" smooth="yes"/>
      <point x="284" y="379"/>
      <point x="257" y="349"/>
      <point x="249" y="297" type="curve" smooth="yes"/>
      <point x="202" y="0" type="line"/>
    </contour>
  </outline>
</glyph>
<glyph name="p" format="2">
  <advance width="646"/>
  <unicode hex="0070"/>
  <outline>
    <contour>
      <point x="444" y="538" type="curve" smooth="yes"/>
      <point x="548" y="538"/>
      <point x="626" y="462"/>
      <point x="626" y="312" type="curve" smooth="yes"/>
      <point x="626" y="106"/>
      <point x="519" y="-13"/>
      <point x="375" y="-13" type="curve" smooth="yes"/>
      <point x="295" y="-13"/>
      <point x="236" y="26"/>
      <point x="215" y="83" type="curve"/>
      <point x="174" y="-174" type="line"/>
      <point x="-23" y="-174" type="line"/>
      <point x="60" y="349" type="line" smooth="yes"/>
      <point x="72" y="425"/>
      <point x="78" y="475"/>
      <point x="80" y="523" type="curve"/>
      <point x="272" y="523" type="line"/>
      <point x="272" y="500"/>
      <point x="271" y="470"/>
      <point x="268" y="440" type="curve"/>
      <point x="306" y="503"/>
      <point x="362" y="538"/>
    </contour>
    <contour>
      <point x="316" y="135" type="curve" smooth="yes"/>
      <point x="380" y="135"/>
      <point x="424" y="200"/>
      <point x="424" y="298" type="curve" smooth="yes"/>
      <point x="424" y="359"/>
      <point x="398" y="393"/>
      <point x="347" y="393" type="curve" smooth="yes"/>
      <point x="282" y="393"/>
      <point x="236" y="324"/>
      <point x="236" y="230" type="curve" smooth="yes"/>
      <point x="236" y="168"/>
      <point x="264" y="135"/>
    </contour>
  </outline>
</glyph>
<glyph name="q" format="2">
  <advance width="646"/>
  <unicode hex="0071"/>
  <outline>
    <contour>
      <point x="331" y="-174" type="line"/>
      <point x="372" y="76" type="line"/>
      <point x="336" y="21"/>
      <point x="284" y="-13"/>
      <point x="206" y="-13" type="curve" smooth="yes"/>
      <point x="97" y="-13"/>
      <point x="18" y="63"/>
      <point x="18" y="214" type="curve" smooth="yes"/>
      <point x="18" y="420"/>
      <point x="130" y="538"/>
      <point x="278" y="538" type="curve" smooth="yes"/>
      <point x="354" y="538"/>
      <point x="407" y="505"/>
      <point x="430" y="450" type="curve"/>
      <point x="442" y="523" type="line"/>
      <point x="638" y="523" type="line"/>
      <point x="528" y="-174" type="line"/>
    </contour>
    <contour>
      <point x="297" y="133" type="curve" smooth="yes"/>
      <point x="362" y="133"/>
      <point x="408" y="202"/>
      <point x="408" y="298" type="curve" smooth="yes"/>
      <point x="408" y="359"/>
      <point x="379" y="393"/>
      <point x="329" y="393" type="curve" smooth="yes"/>
      <point x="265" y="393"/>
      <point x="220" y="328"/>
      <point x="220" y="230" type="curve" smooth="yes"/>
      <point x="220" y="169"/>
      <point x="246" y="133"/>
    </contour>
  </outline>
</glyph>
<glyph name="r" format="2">
  <advance width="439"/>
  <unicode hex="0072"/>
  <outline>
    <contour>
      <point x="5" y="0" type="line"/>
      <point x="60" y="349" type="line" smooth="yes"/>
      <point x="72" y="425"/>
      <point x="77" y="475"/>
      <point x="79" y="523" type="curve"/>
      <point x="271" y="523" type="line"/>
      <point x="271" y="497"/>
      <point x="269" y="450"/>
      <point x="264" y="408" type="curve"/>
      <point x="305" y="493"/>
      <point x="365" y="531"/>
      <point x="453" y="530" type="curve"/>
      <point x="425" y="346" type="line"/>
      <point x="314" y="352"/>
      <point x="253" y="321"/>
      <point x="238" y="224" type="curve" smooth="yes"/>
      <point x="202" y="0" type="line"/>
    </contour>
  </outline>
</glyph>
<glyph name="v" format="2">
  <advance width="592"/>
  <unicode hex="0076"/>
  <outline>
    <contour>
      <point x="145" y="0" type="line"/>
      <point x="44" y="523" type="line"/>
      <point x="246" y="523" type="line"/>
      <point x="288" y="202" type="line"/>
      <point x="435" y="523" type="line"/>
      <point x="629" y="523" type="line"/>
      <point x="355" y="0" type="line"/>
    </contour>
  </outline>
</glyph>
<glyph name="x" format="2">
  <advance width="602"/>
  <unicode hex="0078"/>
  <outline>
    <contour>
      <point x="-38" y="0" type="line"/>
      <point x="175" y="269" type="line"/>
      <point x="56" y="523" type="line"/>
      <point x="272" y="523" type="line"/>
      <point x="324" y="395" type="line"/>
      <point x="414" y="523" type="line"/>
      <point x="621" y="523" type="line"/>
      <point x="420" y="276" type="line"/>
      <point x="555" y="0" type="line"/>
      <point x="338" y="0" type="line"/>
      <point x="277" y="146" type="line"/>
      <point x="169" y="0" type="line"/>
    </contour>
  </outline>
</glyph>
<glyph name="z" format="2">
  <advance width="511"/>
  <unicode hex="007A"/>
  <outline>
    <contour>
      <point x="-34" y="0" type="line"/>
      <point x="-32" y="19" type="line"/>
      <point x="236" y="378" type="line"/>
      <point x="47" y="378" type="line"/>
      <point x="69" y="523" type="line"/>
      <point x="540" y="523" type="line"/>
      <point x="537" y="503" type="line"/>
      <point x="261" y="144" type="line"/>
      <point x="467" y="144" type="line"/>
      <point x="444" y="0" type="line"/>
    </contour>
  </outline>
</glyph>
<glyph name="braceleft" format="2">
  <advance width="425"/>
  <unicode hex="007B"/>
  <outline>
    <contour>
      <point x="322" y="-148" type="line"/>
      <point x="119" y="-146"/>
      <point x="29" y="-61"/>
      <point x="82" y="96" type="curve" smooth="yes"/>
      <point x="107" y="174" type="line" smooth="yes"/>
      <point x="124" y="223"/>
      <point x="101" y="251"/>
      <point x="28" y="255" type="curve"/>
      <point x="49" y="391" type="line"/>
      <point x="125" y="390"/>
      <point x="154" y="414"/>
      <point x="152" y="463" type="curve" smooth="yes"/>
      <point x="152" y="544" type="line" smooth="yes"/>
      <point x="151" y="722"/>
      <point x="249" y="777"/>
      <point x="468" y="777" type="curve"/>
      <point x="445" y="634" type="line"/>
      <point x="369" y="630"/>
      <point x="348" y="607"/>
      <point x="346" y="541" type="curve" smooth="yes"/>
      <point x="342" y="445" type="line" smooth="yes"/>
      <point x="340" y="373"/>
      <point x="295" y="330"/>
      <point x="219" y="315" type="curve"/>
      <point x="294" y="296"/>
      <point x="320" y="245"/>
      <point x="299" y="174" type="curve" smooth="yes"/>
      <point x="274" y="84" type="line" smooth="yes"/>
      <point x="255" y="21"/>
      <point x="271" y="0"/>
      <point x="344" y="-5" type="curve"/>
    </contour>
  </outline>
</glyph>
<glyph name="braceright" format="2">
  <advance width="425"/>
  <unicode hex="007D"/>
  <outline>
    <contour>
      <point x="117" y="777" type="line"/>
      <point x="320" y="775"/>
      <point x="407" y="690"/>
      <point x="357" y="533" type="curve" smooth="yes"/>
      <point x="332" y="456" type="line" smooth="yes"/>
      <point x="317" y="407"/>
      <point x="339" y="379"/>
      <point x="412" y="374" type="curve"/>
      <point x="391" y="238" type="line"/>
      <point x="314" y="240"/>
      <point x="288" y="217"/>
      <point x="287" y="167" type="curve" smooth="yes"/>
      <point x="287" y="85" type="line" smooth="yes"/>
      <point x="287" y="-93"/>
      <point x="190" y="-148"/>
      <point x="-29" y="-148" type="curve"/>
      <point x="-7" y="-5" type="line"/>
      <point x="70" y="-1"/>
      <point x="91" y="22"/>
      <point x="93" y="88" type="curve" smooth="yes"/>
      <point x="97" y="187" type="line" smooth="yes"/>
      <point x="100" y="259"/>
      <point x="145" y="301"/>
      <point x="221" y="315" type="curve"/>
      <point x="146" y="334"/>
      <point x="120" y="386"/>
      <point x="140" y="455" type="curve" smooth="yes"/>
      <point x="165" y="545" type="line" smooth="yes"/>
      <point x="184" y="608"/>
      <point x="168" y="629"/>
      <point x="95" y="634" type="curve"/>
    </contour>
  </outline>
</glyph>
<glyph name="asciitilde" format="2">
  <advance width="532"/>
  <unicode hex="007E"/>
  <outline>
    <contour>
      <point x="20" y="213" type="line"/>
      <point x="40" y="368"/>
      <point x="114" y="424"/>
      <point x="191" y="424" type="curve" smooth="yes"/>
      <point x="264" y="424"/>
      <point x="317" y="380"/>
      <point x="352" y="380" type="curve" smooth="yes"/>
      <point x="379" y="380"/>
      <point x="395" y="397"/>
      <point x="402" y="425" type="curve"/>
      <point x="527" y="425" type="line"/>
      <point x="510" y="281"/>
      <point x="433" y="214"/>
      <point x="356" y="214" type="curve" smooth="yes"/>
      <point x="281" y="214"/>
      <point x="230" y="257"/>
      <point x="194" y="257" type="curve" smooth="yes"/>
      <point x="166" y="257"/>
      <point x="151" y="239"/>
      <point x="145" y="213" type="curve"/>
    </contour>
  </outline>
</glyph>
<glyph name="exclamdown" format="2">
  <advance width="343"/>
  <unicode hex="00A1"/>
  <outline>
    <contour>
      <point x="266" y="357" type="line"/>
      <point x="219" y="-117" type="line"/>
      <point x="-3" y="-117" type="line"/>
      <point x="102" y="357" type="line"/>
    </contour>
    <contour>
      <point x="205" y="610" type="curve" smooth="yes"/>
      <point x="268" y="610"/>
      <point x="315" y="564"/>
      <point x="315" y="505" type="curve" smooth="yes"/>
      <point x="315" y="447"/>
      <point x="266" y="399"/>
      <point x="203" y="399" type="curve" smooth="yes"/>
      <point x="140" y="399"/>
      <point x="92" y="445"/>
      <point x="92" y="504" type="curve" smooth="yes"/>
      <point x="92" y="563"/>
      <point x="142" y="610"/>
    </contour>
  </outline>
</glyph>
<glyph name="cent" format="2">
  <advance width="600"/>
  <unicode hex="00A2"/>
  <outline>
    <contour>
      <point x="214" y="-135" type="line"/>
      <point x="234" y="-8" type="line"/>
      <point x="112" y="11"/>
      <point x="19" y="89"/>
      <point x="18" y="221" type="curve" smooth="yes"/>
      <point x="17" y="401"/>
      <point x="140" y="530"/>
      <point x="320" y="537" type="curve"/>
      <point x="335" y="629" type="line"/>
      <point x="409" y="629" type="line"/>
      <point x="394" y="533" type="line"/>
      <point x="510" y="516"/>
      <point x="584" y="448"/>
      <point x="589" y="316" type="curve"/>
      <point x="412" y="316" type="line"/>
      <point x="411" y="354"/>
      <point x="397" y="378"/>
      <point x="371" y="389" type="curve"/>
      <point x="329" y="122" type="line"/>
      <point x="372" y="129"/>
      <point x="398" y="156"/>
      <point x="409" y="209" type="curve"/>
      <point x="579" y="209" type="line"/>
      <point x="564" y="76"/>
      <point x="461" y="-9"/>
      <point x="307" y="-13" type="curve"/>
      <point x="288" y="-135" type="line"/>
    </contour>
    <contour>
      <point x="208" y="223" type="curve" smooth="yes"/>
      <point x="208" y="174"/>
      <point x="224" y="142"/>
      <point x="255" y="128" type="curve"/>
      <point x="297" y="392" type="line"/>
      <point x="242" y="377"/>
      <point x="208" y="321"/>
    </contour>
  </outline>
</glyph>
<glyph name="sterling" format="2">
  <advance width="668"/>
  <unicode hex="00A3"/>
  <outline>
    <contour>
      <point x="35" y="285" type="line"/>
      <point x="55" y="409" type="line"/>
      <point x="100" y="409" type="line"/>
      <point x="98" y="428"/>
      <point x="96" y="449"/>
      <point x="96" y="470" type="curve" smooth="yes"/>
      <point x="96" y="629"/>
      <point x="220" y="725"/>
      <point x="391" y="725" type="curve" smooth="yes"/>
      <point x="550" y="725"/>
      <point x="668" y="663"/>
      <point x="667" y="475" type="curve"/>
      <point x="457" y="475" type="line"/>
      <point x="457" y="529"/>
      <point x="440" y="556"/>
      <point x="393" y="556" type="curve" smooth="yes"/>
      <point x="329" y="556"/>
      <point x="312" y="501"/>
      <point x="312" y="439" type="curve" smooth="yes"/>
      <point x="312" y="409" type="line"/>
      <point x="491" y="409" type="line"/>
      <point x="471" y="285" type="line"/>
      <point x="315" y="285" type="line"/>
      <point x="315" y="253"/>
      <point x="308" y="218"/>
      <point x="291" y="183" type="curve"/>
      <point x="325" y="174"/>
      <point x="354" y="166"/>
      <point x="378" y="166" type="curve" smooth="yes"/>
      <point x="412" y="166"/>
      <point x="435" y="183"/>
      <point x="441" y="220" type="curve"/>
      <point x="644" y="220" type="line"/>
      <point x="626" y="88"/>
      <point x="550" y="-9"/>
      <point x="405" y="-9" type="curve" smooth="yes"/>
      <point x="304" y="-9"/>
      <point x="236" y="41"/>
      <point x="188" y="41" type="curve" smooth="yes"/>
      <point x="161" y="41"/>
      <point x="144" y="24"/>
      <point x="140" y="0" type="curve"/>
      <point x="-25" y="0" type="line"/>
      <point x="-12" y="84"/>
      <point x="28" y="157"/>
      <point x="98" y="187" type="curve"/>
      <point x="111" y="215"/>
      <point x="118" y="244"/>
      <point x="118" y="278" type="curve" smooth="yes"/>
      <point x="118" y="285" type="line"/>
    </contour>
  </outline>
</glyph>
<glyph name="yen" format="2">
  <advance width="659"/>
  <unicode hex="00A5"/>
  <outline>
    <contour>
      <point x="66" y="297" type="line"/>
      <point x="77" y="370" type="line"/>
      <point x="210" y="370" type="line"/>
      <point x="79" y="715" type="line"/>
      <point x="319" y="715" type="line"/>
      <point x="375" y="499" type="line"/>
      <point x="501" y="715" type="line"/>
      <point x="722" y="715" type="line"/>
      <point x="489" y="370" type="line"/>
      <point x="625" y="370" type="line"/>
      <point x="614" y="297" type="line"/>
      <point x="453" y="297" type="line"/>
      <point x="445" y="250" type="line"/>
      <point x="605" y="250" type="line"/>
      <point x="594" y="176" type="line"/>
      <point x="434" y="176" type="line"/>
      <point x="406" y="0" type="line"/>
      <point x="179" y="0" type="line"/>
      <point x="206" y="176" type="line"/>
      <point x="46" y="176" type="line"/>
      <point x="57" y="250" type="line"/>
      <point x="218" y="250" type="line"/>
      <point x="225" y="297" type="line"/>
    </contour>
  </outline>
</glyph>
<glyph name="brokenbar" format="2">
  <advance width="270"/>
  <unicode hex="00A6"/>
  <outline>
    <contour>
      <point x="81" y="-148" type="line"/>
      <point x="81" y="302" type="line"/>
      <point x="216" y="302" type="line"/>
      <point x="216" y="-148" type="line"/>
    </contour>
    <contour>
      <point x="81" y="373" type="line"/>
      <point x="81" y="776" type="line"/>
      <point x="216" y="776" type="line"/>
      <point x="216" y="373" type="line"/>
    </contour>
  </outline>
</glyph>
<glyph name="section" format="2">
  <advance width="618"/>
  <unicode hex="00A7"/>
  <outline>
    <contour>
      <point x="266" y="-137" type="curve" smooth="yes"/>
      <point x="143" y="-137"/>
      <point x="36" y="-85"/>
      <point x="36" y="50" type="curve"/>
      <point x="215" y="50" type="line"/>
      <point x="217" y="14"/>
      <point x="233" y="-7"/>
      <point x="273" y="-7" type="curve" smooth="yes"/>
      <point x="301" y="-7"/>
      <point x="323" y="5"/>
      <point x="323" y="30" type="curve" smooth="yes"/>
      <point x="323" y="54"/>
      <point x="296" y="68"/>
      <point x="223" y="91" type="curve" smooth="yes"/>
      <point x="100" y="129"/>
      <point x="19" y="177"/>
      <point x="19" y="278" type="curve" smooth="yes"/>
      <point x="19" y="366"/>
      <point x="74" y="411"/>
      <point x="150" y="434" type="curve"/>
      <point x="130" y="459"/>
      <point x="120" y="487"/>
      <point x="120" y="519" type="curve" smooth="yes"/>
      <point x="120" y="660"/>
      <point x="231" y="725"/>
      <point x="366" y="725" type="curve" smooth="yes"/>
      <point x="489" y="725"/>
      <point x="587" y="677"/>
      <point x="591" y="537" type="curve"/>
      <point x="409" y="537" type="line"/>
      <point x="408" y="572"/>
      <point x="397" y="591"/>
      <point x="357" y="592" type="curve" smooth="yes"/>
      <point x="327" y="592"/>
      <point x="307" y="580"/>
      <point x="307" y="554" type="curve" smooth="yes"/>
      <point x="307" y="529"/>
      <point x="332" y="517"/>
      <point x="402" y="494" type="curve" smooth="yes"/>
      <point x="525" y="456"/>
      <point x="606" y="408"/>
      <point x="606" y="305" type="curve" smooth="yes"/>
      <point x="606" y="219"/>
      <point x="555" y="177"/>
      <point x="477" y="151" type="curve"/>
      <point x="498" y="127"/>
      <point x="510" y="98"/>
      <point x="510" y="66" type="curve" smooth="yes"/>
      <point x="510" y="-76"/>
      <point x="394" y="-137"/>
    </contour>
    <contour>
      <point x="373" y="227" type="line"/>
      <point x="393" y="231"/>
      <point x="412" y="240"/>
      <point x="412" y="264" type="curve" smooth="yes"/>
      <point x="412" y="288"/>
      <point x="391" y="299"/>
      <point x="331" y="324" type="curve" smooth="yes"/>
      <point x="256" y="356" type="line"/>
      <point x="236" y="354"/>
      <point x="215" y="345"/>
      <point x="215" y="320" type="curve" smooth="yes"/>
      <point x="215" y="297"/>
      <point x="236" y="285"/>
      <point x="296" y="260" type="curve" smooth="yes"/>
    </contour>
  </outline>
</glyph>
<glyph name="dieresis" format="2">
  <advance width="400"/>
  <unicode hex="00A8"/>
  <outline>
    <contour>
      <point x="153" y="570" type="curve" smooth="yes"/>
      <point x="102" y="570"/>
      <point x="62" y="609"/>
      <point x="62" y="659" type="curve" smooth="yes"/>
      <point x="62" y="708"/>
      <point x="103" y="748"/>
      <point x="154" y="748" type="curve" smooth="yes"/>
      <point x="204" y="748"/>
      <point x="245" y="708"/>
      <point x="245" y="659" type="curve" smooth="yes"/>
      <point x="245" y="610"/>
      <point x="204" y="570"/>
    </contour>
    <contour>
      <point x="370" y="570" type="curve" smooth="yes"/>
      <point x="319" y="570"/>
      <point x="280" y="609"/>
      <point x="280" y="659" type="curve" smooth="yes"/>
      <point x="280" y="708"/>
      <point x="320" y="748"/>
      <point x="370" y="748" type="curve" smooth="yes"/>
      <point x="422" y="748"/>
      <point x="462" y="708"/>
      <point x="462" y="659" type="curve" smooth="yes"/>
      <point x="462" y="610"/>
      <point x="422" y="570"/>
    </contour>
  </outline>
</glyph>
<glyph name="copyright" format="2">
  <advance width="842"/>
  <unicode hex="00A9"/>
  <outline>
    <contour>
      <point x="442" y="150" type="curve" smooth="yes"/>
      <point x="295" y="150"/>
      <point x="226" y="231"/>
      <point x="226" y="354" type="curve" smooth="yes"/>
      <point x="226" y="362" type="line" smooth="yes"/>
      <point x="226" y="486"/>
      <point x="317" y="565"/>
      <point x="436" y="565" type="curve" smooth="yes"/>
      <point x="546" y="565"/>
      <point x="620" y="516"/>
      <point x="629" y="405" type="curve"/>
      <point x="491" y="405" type="line"/>
      <point x="488" y="439"/>
      <point x="470" y="459"/>
      <point x="436" y="459" type="curve" smooth="yes"/>
      <point x="393" y="459"/>
      <point x="367" y="427"/>
      <point x="367" y="362" type="curve" smooth="yes"/>
      <point x="367" y="355" type="line" smooth="yes"/>
      <point x="367" y="291"/>
      <point x="392" y="257"/>
      <point x="439" y="257" type="curve" smooth="yes"/>
      <point x="472" y="257"/>
      <point x="497" y="274"/>
      <point x="501" y="313" type="curve"/>
      <point x="634" y="313" type="line"/>
      <point x="628" y="207"/>
      <point x="550" y="150"/>
    </contour>
    <contour>
      <point x="433" y="31" type="curve" smooth="yes"/>
      <point x="611" y="31"/>
      <point x="756" y="163"/>
      <point x="756" y="359" type="curve" smooth="yes"/>
      <point x="756" y="552"/>
      <point x="615" y="684"/>
      <point x="435" y="684" type="curve" smooth="yes"/>
      <point x="253" y="684"/>
      <point x="112" y="551"/>
      <point x="112" y="357" type="curve" smooth="yes"/>
      <point x="112" y="161"/>
      <point x="257" y="31"/>
    </contour>
    <contour>
      <point x="433" y="-21" type="curve" smooth="yes"/>
      <point x="219" y="-21"/>
      <point x="47" y="142"/>
      <point x="47" y="357" type="curve" smooth="yes"/>
      <point x="47" y="569"/>
      <point x="218" y="736"/>
      <point x="435" y="736" type="curve" smooth="yes"/>
      <point x="654" y="736"/>
      <point x="821" y="570"/>
      <point x="821" y="359" type="curve" smooth="yes"/>
      <point x="821" y="143"/>
      <point x="650" y="-21"/>
    </contour>
  </outline>
</glyph>
<glyph name="ordfeminine" format="2">
  <advance width="495"/>
  <unicode hex="00AA"/>
  <outline>
    <contour>
      <point x="182" y="287" type="curve" smooth="yes"/>
      <point x="112" y="287"/>
      <point x="52" y="327"/>
      <point x="52" y="400" type="curve" smooth="yes"/>
      <point x="52" y="510"/>
      <point x="140" y="545"/>
      <point x="286" y="545" type="curve" smooth="yes"/>
      <point x="328" y="545" type="line"/>
      <point x="330" y="557" type="line" smooth="yes"/>
      <point x="333" y="585"/>
      <point x="331" y="606"/>
      <point x="295" y="606" type="curve" smooth="yes"/>
      <point x="265" y="606"/>
      <point x="253" y="587"/>
      <point x="248" y="566" type="curve"/>
      <point x="87" y="566" type="line"/>
      <point x="106" y="670"/>
      <point x="188" y="723"/>
      <point x="308" y="723" type="curve" smooth="yes"/>
      <point x="459" y="723"/>
      <point x="516" y="666"/>
      <point x="493" y="522" type="curve" smooth="yes"/>
      <point x="478" y="427" type="line" smooth="yes"/>
      <point x="469" y="375"/>
      <point x="468" y="333"/>
      <point x="472" y="298" type="curve"/>
      <point x="309" y="298" type="line"/>
      <point x="306" y="314"/>
      <point x="305" y="334"/>
      <point x="305" y="350" type="curve"/>
      <point x="284" y="319"/>
      <point x="247" y="287"/>
    </contour>
    <contour>
      <point x="256" y="400" type="curve" smooth="yes"/>
      <point x="286" y="400"/>
      <point x="307" y="414"/>
      <point x="312" y="442" type="curve" smooth="yes"/>
      <point x="315" y="461" type="line"/>
      <point x="280" y="461" type="line" smooth="yes"/>
      <point x="237" y="461"/>
      <point x="221" y="450"/>
      <point x="221" y="427" type="curve" smooth="yes"/>
      <point x="221" y="410"/>
      <point x="234" y="400"/>
    </contour>
  </outline>
</glyph>
<glyph name="guillemotleft" format="2">
  <advance width="477"/>
  <unicode hex="00AB"/>
  <outline>
    <contour>
      <point x="122" y="67" type="line"/>
      <point x="24" y="266" type="line"/>
      <point x="167" y="455" type="line"/>
      <point x="292" y="455" type="line"/>
      <point x="150" y="264" type="line"/>
      <point x="240" y="67" type="line"/>
    </contour>
    <contour>
      <point x="300" y="67" type="line"/>
      <point x="206" y="264" type="line"/>
      <point x="349" y="455" type="line"/>
      <point x="474" y="455" type="line"/>
      <point x="332" y="260" type="line"/>
      <point x="418" y="67" type="line"/>
    </contour>
  </outline>
</glyph>
<glyph name="registered" format="2">
  <advance width="517"/>
  <unicode hex="00AE"/>
  <outline>
    <contour>
      <point x="208" y="396" type="line"/>
      <point x="208" y="615" type="line"/>
      <point x="300" y="615" type="line" smooth="yes"/>
      <point x="362" y="615"/>
      <point x="392" y="590"/>
      <point x="392" y="543" type="curve" smooth="yes"/>
      <point x="392" y="542" type="line" smooth="yes"/>
      <point x="392" y="512"/>
      <point x="378" y="495"/>
      <point x="358" y="484" type="curve"/>
      <point x="405" y="396" type="line"/>
      <point x="330" y="396" type="line"/>
      <point x="291" y="469" type="line"/>
      <point x="282" y="469" type="line"/>
      <point x="282" y="396" type="line"/>
    </contour>
    <contour>
      <point x="282" y="516" type="line"/>
      <point x="295" y="516" type="line" smooth="yes"/>
      <point x="313" y="516"/>
      <point x="321" y="523"/>
      <point x="321" y="538" type="curve" smooth="yes"/>
      <point x="321" y="539" type="line" smooth="yes"/>
      <point x="321" y="554"/>
      <point x="313" y="559"/>
      <point x="295" y="559" type="curve" smooth="yes"/>
      <point x="282" y="559" type="line"/>
    </contour>
    <contour>
      <point x="295" y="320" type="curve" smooth="yes"/>
      <point x="400" y="320"/>
      <point x="481" y="395"/>
      <point x="481" y="503" type="curve" smooth="yes"/>
      <point x="481" y="611"/>
      <point x="403" y="686"/>
      <point x="295" y="686" type="curve" smooth="yes"/>
      <point x="187" y="686"/>
      <point x="109" y="610"/>
      <point x="109" y="502" type="curve" smooth="yes"/>
      <point x="109" y="393"/>
      <point x="191" y="320"/>
    </contour>
    <contour>
      <point x="295" y="280" type="curve" smooth="yes"/>
      <point x="167" y="280"/>
      <point x="64" y="376"/>
      <point x="64" y="502" type="curve" smooth="yes"/>
      <point x="64" y="626"/>
      <point x="166" y="726"/>
      <point x="295" y="726" type="curve" smooth="yes"/>
      <point x="426" y="726"/>
      <point x="525" y="627"/>
      <point x="525" y="503" type="curve" smooth="yes"/>
      <point x="525" y="377"/>
      <point x="424" y="280"/>
    </contour>
  </outline>
</glyph>
<glyph name="macron" format="2">
  <advance width="400"/>
  <unicode hex="00AF"/>
  <outline>
    <contour>
      <point x="95" y="605" type="line"/>
      <point x="112" y="712" type="line"/>
      <point x="428" y="712" type="line"/>
      <point x="411" y="605" type="line"/>
    </contour>
  </outline>
</glyph>
<glyph name="degree" format="2">
  <advance width="457"/>
  <unicode hex="00B0"/>
  <outline>
    <contour>
      <point x="273" y="448" type="curve" smooth="yes"/>
      <point x="326" y="448"/>
      <point x="364" y="492"/>
      <point x="364" y="550" type="curve" smooth="yes"/>
      <point x="364" y="608"/>
      <point x="326" y="652"/>
      <point x="273" y="652" type="curve" smooth="yes"/>
      <point x="219" y="652"/>
      <point x="180" y="608"/>
      <point x="180" y="549" type="curve" smooth="yes"/>
      <point x="180" y="492"/>
      <point x="218" y="448"/>
    </contour>
    <contour>
      <point x="272" y="376" type="curve" smooth="yes"/>
      <point x="173" y="376"/>
      <point x="93" y="455"/>
      <point x="93" y="548" type="curve" smooth="yes"/>
      <point x="93" y="645"/>
      <point x="173" y="724"/>
      <point x="274" y="724" type="curve" smooth="yes"/>
      <point x="372" y="724"/>
      <point x="451" y="646"/>
      <point x="451" y="550" type="curve" smooth="yes"/>
      <point x="451" y="456"/>
      <point x="371" y="376"/>
    </contour>
  </outline>
</glyph>
<glyph name="plusminus" format="2">
  <advance width="579"/>
  <unicode hex="00B1"/>
  <outline>
    <contour>
      <point x="198" y="182" type="line"/>
      <point x="223" y="343" type="line"/>
      <point x="50" y="343" type="line"/>
      <point x="72" y="485" type="line"/>
      <point x="245" y="485" type="line"/>
      <point x="271" y="647" type="line"/>
      <point x="428" y="647" type="line"/>
      <point x="402" y="485" type="line"/>
      <point x="576" y="485" type="line"/>
      <point x="554" y="343" type="line"/>
      <point x="380" y="343" type="line"/>
      <point x="354" y="182" type="line"/>
    </contour>
    <contour>
      <point x="-4" y="0" type="line"/>
      <point x="15" y="126" type="line"/>
      <point x="522" y="126" type="line"/>
      <point x="503" y="0" type="line"/>
    </contour>
  </outline>
</glyph>
<glyph name="threesuperior" format="2">
  <advance width="385"/>
  <unicode hex="00B3"/>
  <outline>
    <contour>
      <point x="220" y="326" type="curve" smooth="yes"/>
      <point x="119" y="326"/>
      <point x="49" y="366"/>
      <point x="48" y="463" type="curve"/>
      <point x="176" y="463" type="line"/>
      <point x="176" y="439"/>
      <point x="188" y="425"/>
      <point x="214" y="425" type="curve" smooth="yes"/>
      <point x="231" y="425"/>
      <point x="250" y="434"/>
      <point x="250" y="458" type="curve" smooth="yes"/>
      <point x="250" y="476"/>
      <point x="237" y="485"/>
      <point x="209" y="485" type="curve" smooth="yes"/>
      <point x="180" y="485" type="line"/>
      <point x="192" y="564" type="line"/>
      <point x="227" y="564" type="line" smooth="yes"/>
      <point x="254" y="564"/>
      <point x="268" y="575"/>
      <point x="268" y="596" type="curve" smooth="yes"/>
      <point x="268" y="611"/>
      <point x="260" y="622"/>
      <point x="238" y="622" type="curve" smooth="yes"/>
      <point x="219" y="622"/>
      <point x="202" y="611"/>
      <point x="197" y="587" type="curve"/>
      <point x="71" y="587" type="line"/>
      <point x="83" y="671"/>
      <point x="148" y="721"/>
      <point x="251" y="721" type="curve" smooth="yes"/>
      <point x="323" y="721"/>
      <point x="404" y="698"/>
      <point x="404" y="617" type="curve" smooth="yes"/>
      <point x="404" y="569"/>
      <point x="373" y="539"/>
      <point x="327" y="526" type="curve"/>
      <point x="365" y="517"/>
      <point x="392" y="494"/>
      <point x="392" y="448" type="curve" smooth="yes"/>
      <point x="392" y="363"/>
      <point x="312" y="326"/>
    </contour>
  </outline>
</glyph>
<glyph name="paragraph" format="2">
  <advance width="544"/>
  <unicode hex="00B6"/>
  <outline>
    <contour>
      <point x="195" y="-100" type="line"/>
      <point x="261" y="326" type="line"/>
      <point x="259" y="326" type="line" smooth="yes"/>
      <point x="148" y="326"/>
      <point x="62" y="383"/>
      <point x="62" y="497" type="curve" smooth="yes"/>
      <point x="62" y="643"/>
      <point x="168" y="715"/>
      <point x="308" y="715" type="curve" smooth="yes"/>
      <point x="549" y="715" type="line"/>
      <point x="420" y="-100" type="line"/>
      <point x="344" y="-100" type="line"/>
      <point x="462" y="650" type="line"/>
      <point x="389" y="650" type="line"/>
      <point x="270" y="-100" type="line"/>
    </contour>
  </outline>
</glyph>
<glyph name="periodcentered" format="2">
  <advance width="302"/>
  <unicode hex="00B7"/>
  <outline>
    <contour>
      <point x="159" y="219" type="curve" smooth="yes"/>
      <point x="96" y="219"/>
      <point x="49" y="266"/>
      <point x="49" y="326" type="curve" smooth="yes"/>
      <point x="49" y="386"/>
      <point x="95" y="434"/>
      <point x="158" y="434" type="curve" smooth="yes"/>
      <point x="222" y="434"/>
      <point x="271" y="386"/>
      <point x="271" y="326" type="curve" smooth="yes"/>
      <point x="271" y="266"/>
      <point x="223" y="219"/>
    </contour>
  </outline>
</glyph>
<glyph name="cedilla" format="2">
  <advance width="400"/>
  <unicode hex="00B8"/>
  <outline>
    <contour>
      <point x="138" y="-228" type="curve" smooth="yes"/>
      <point x="72" y="-228"/>
      <point x="12" y="-200"/>
      <point x="7" y="-134" type="curve"/>
      <point x="98" y="-134" type="line"/>
      <point x="100" y="-147"/>
      <point x="108" y="-160"/>
      <point x="131" y="-160" type="curve" smooth="yes"/>
      <point x="146" y="-160"/>
      <point x="163" y="-151"/>
      <point x="163" y="-128" type="curve" smooth="yes"/>
      <point x="163" y="-110"/>
      <point x="151" y="-101"/>
      <point x="132" y="-101" type="curve" smooth="yes"/>
      <point x="117" y="-101"/>
      <point x="109" y="-105"/>
      <point x="102" y="-111" type="curve"/>
      <point x="67" y="-72" type="line"/>
      <point x="124" y="0" type="line"/>
      <point x="200" y="0" type="line"/>
      <point x="164" y="-44" type="line"/>
      <point x="220" y="-40"/>
      <point x="265" y="-69"/>
      <point x="265" y="-124" type="curve" smooth="yes"/>
      <point x="265" y="-195"/>
      <point x="207" y="-228"/>
    </contour>
  </outline>
</glyph>
<glyph name="onesuperior" format="2">
  <advance width="297"/>
  <unicode hex="00B9"/>
  <outline>
    <contour>
      <point x="112" y="333" type="line"/>
      <point x="150" y="574" type="line"/>
      <point x="61" y="529" type="line"/>
      <point x="80" y="647" type="line"/>
      <point x="194" y="715" type="line"/>
      <point x="318" y="715" type="line"/>
      <point x="257" y="333" type="line"/>
    </contour>
  </outline>
</glyph>
<glyph name="ordmasculine" format="2">
  <advance width="527"/>
  <unicode hex="00BA"/>
  <outline>
    <contour>
      <point x="276" y="287" type="curve" smooth="yes"/>
      <point x="146" y="287"/>
      <point x="64" y="357"/>
      <point x="64" y="474" type="curve" smooth="yes"/>
      <point x="64" y="624"/>
      <point x="182" y="723"/>
      <point x="321" y="723" type="curve" smooth="yes"/>
      <point x="460" y="723"/>
      <point x="532" y="646"/>
      <point x="532" y="532" type="curve" smooth="yes"/>
      <point x="532" y="381"/>
      <point x="411" y="287"/>
    </contour>
    <contour>
      <point x="288" y="411" type="curve" smooth="yes"/>
      <point x="338" y="411"/>
      <point x="362" y="470"/>
      <point x="362" y="535" type="curve" smooth="yes"/>
      <point x="362" y="575"/>
      <point x="347" y="598"/>
      <point x="309" y="598" type="curve" smooth="yes"/>
      <point x="263" y="598"/>
      <point x="235" y="544"/>
      <point x="235" y="474" type="curve" smooth="yes"/>
      <point x="235" y="434"/>
      <point x="252" y="411"/>
    </contour>
  </outline>
</glyph>
<glyph name="guillemotright" format="2">
  <advance width="477"/>
  <unicode hex="00BB"/>
  <outline>
    <contour>
      <point x="354" y="455" type="line"/>
      <point x="451" y="256" type="line"/>
      <point x="309" y="67" type="line"/>
      <point x="184" y="67" type="line"/>
      <point x="325" y="258" type="line"/>
      <point x="235" y="455" type="line"/>
    </contour>
    <contour>
      <point x="176" y="455" type="line"/>
      <point x="269" y="258" type="line"/>
      <point x="127" y="67" type="line"/>
      <point x="2" y="67" type="line"/>
      <point x="143" y="262" type="line"/>
      <point x="57" y="455" type="line"/>
    </contour>
  </outline>
</glyph>
<glyph name="onequarter" format="2">
  <advance width="823"/>
  <unicode hex="00BC"/>
  <outline>
    <contour>
      <point x="115" y="333" type="line"/>
      <point x="153" y="574" type="line"/>
      <point x="64" y="529" type="line"/>
      <point x="83" y="647" type="line"/>
      <point x="197" y="715" type="line"/>
      <point x="321" y="715" type="line"/>
      <point x="260" y="333" type="line"/>
    </contour>
    <contour>
      <point x="59" y="0" type="line"/>
      <point x="672" y="715" type="line"/>
      <point x="773" y="715" type="line"/>
      <point x="159" y="0" type="line"/>
    </contour>
    <contour>
      <point x="569" y="0" type="line"/>
      <point x="580" y="70" type="line"/>
      <point x="391" y="70" type="line"/>
      <point x="400" y="123" type="line"/>
      <point x="597" y="382" type="line"/>
      <point x="770" y="382" type="line"/>
      <point x="736" y="164" type="line"/>
      <point x="784" y="164" type="line"/>
      <point x="769" y="70" type="line"/>
      <point x="721" y="70" type="line"/>
      <point x="710" y="0" type="line"/>
    </contour>
    <contour>
      <point x="531" y="164" type="line"/>
      <point x="600" y="164" type="line"/>
      <point x="619" y="284" type="line"/>
    </contour>
  </outline>
</glyph>
<glyph name="onehalf" format="2">
  <advance width="835"/>
  <unicode hex="00BD"/>
  <outline>
    <contour>
      <point x="46" y="0" type="line"/>
      <point x="659" y="715" type="line"/>
      <point x="760" y="715" type="line"/>
      <point x="146" y="0" type="line"/>
    </contour>
    <contour>
      <point x="115" y="333" type="line"/>
      <point x="153" y="574" type="line"/>
      <point x="64" y="529" type="line"/>
      <point x="83" y="647" type="line"/>
      <point x="197" y="715" type="line"/>
      <point x="321" y="715" type="line"/>
      <point x="260" y="333" type="line"/>
    </contour>
    <contour>
      <point x="429" y="0" type="line"/>
      <point x="432" y="18" type="line"/>
      <point x="581" y="151" type="line" smooth="yes"/>
      <point x="618" y="183"/>
      <point x="668" y="226"/>
      <point x="668" y="255" type="curve" smooth="yes"/>
      <point x="668" y="274"/>
      <point x="659" y="282"/>
      <point x="643" y="282" type="curve" smooth="yes"/>
      <point x="623" y="282"/>
      <point x="608" y="268"/>
      <point x="600" y="232" type="curve"/>
      <point x="468" y="232" type="line"/>
      <point x="483" y="337"/>
      <point x="555" y="387"/>
      <point x="654" y="387" type="curve" smooth="yes"/>
      <point x="739" y="387"/>
      <point x="811" y="358"/>
      <point x="811" y="271" type="curve" smooth="yes"/>
      <point x="811" y="216"/>
      <point x="770" y="175"/>
      <point x="707" y="123" type="curve" smooth="yes"/>
      <point x="683" y="102" type="line"/>
      <point x="786" y="102" type="line"/>
      <point x="770" y="0" type="line"/>
    </contour>
  </outline>
</glyph>
<glyph name="threequarters" format="2">
  <advance width="866"/>
  <unicode hex="00BE"/>
  <outline>
    <contour>
      <point x="223" y="326" type="curve" smooth="yes"/>
      <point x="122" y="326"/>
      <point x="52" y="366"/>
      <point x="51" y="463" type="curve"/>
      <point x="179" y="463" type="line"/>
      <point x="179" y="439"/>
      <point x="191" y="425"/>
      <point x="217" y="425" type="curve" smooth="yes"/>
      <point x="234" y="425"/>
      <point x="253" y="434"/>
      <point x="253" y="458" type="curve" smooth="yes"/>
      <point x="253" y="476"/>
      <point x="240" y="485"/>
      <point x="212" y="485" type="curve" smooth="yes"/>
      <point x="183" y="485" type="line"/>
      <point x="195" y="564" type="line"/>
      <point x="230" y="564" type="line" smooth="yes"/>
      <point x="257" y="564"/>
      <point x="271" y="575"/>
      <point x="271" y="596" type="curve" smooth="yes"/>
      <point x="271" y="611"/>
      <point x="263" y="622"/>
      <point x="241" y="622" type="curve" smooth="yes"/>
      <point x="222" y="622"/>
      <point x="205" y="611"/>
      <point x="200" y="587" type="curve"/>
      <point x="74" y="587" type="line"/>
      <point x="86" y="671"/>
      <point x="151" y="721"/>
      <point x="254" y="721" type="curve" smooth="yes"/>
      <point x="326" y="721"/>
      <point x="407" y="698"/>
      <point x="407" y="617" type="curve" smooth="yes"/>
      <point x="407" y="569"/>
      <point x="376" y="539"/>
      <point x="330" y="526" type="curve"/>
      <point x="368" y="517"/>
      <point x="395" y="494"/>
      <point x="395" y="448" type="curve" smooth="yes"/>
      <point x="395" y="363"/>
      <point x="315" y="326"/>
    </contour>
    <contour>
      <point x="116" y="0" type="line"/>
      <point x="729" y="715" type="line"/>
      <point x="830" y="715" type="line"/>
      <point x="216" y="0" type="line"/>
    </contour>
    <contour>
      <point x="612" y="0" type="line"/>
      <point x="623" y="70" type="line"/>
      <point x="434" y="70" type="line"/>
      <point x="443" y="123" type="line"/>
      <point x="640" y="382" type="line"/>
      <point x="813" y="382" type="line"/>
      <point x="779" y="164" type="line"/>
      <point x="827" y="164" type="line"/>
      <point x="812" y="70" type="line"/>
      <point x="764" y="70" type="line"/>
      <point x="753" y="0" type="line"/>
    </contour>
    <contour>
      <point x="574" y="164" type="line"/>
      <point x="643" y="164" type="line"/>
      <point x="662" y="284" type="line"/>
    </contour>
  </outline>
</glyph>
<glyph name="questiondown" format="2">
  <advance width="568"/>
  <unicode hex="00BF"/>
  <outline>
    <contour>
      <point x="416" y="358" type="line"/>
      <point x="413" y="339" type="line" smooth="yes"/>
      <point x="400" y="258"/>
      <point x="344" y="217"/>
      <point x="295" y="180" type="curve" smooth="yes"/>
      <point x="249" y="145"/>
      <point x="209" y="121"/>
      <point x="209" y="77" type="curve" smooth="yes"/>
      <point x="210" y="49"/>
      <point x="227" y="33"/>
      <point x="258" y="33" type="curve" smooth="yes"/>
      <point x="295" y="33"/>
      <point x="321" y="58"/>
      <point x="332" y="113" type="curve"/>
      <point x="524" y="113" type="line"/>
      <point x="504" y="-49"/>
      <point x="386" y="-127"/>
      <point x="236" y="-126" type="curve" smooth="yes"/>
      <point x="78" y="-126"/>
      <point x="-4" y="-53"/>
      <point x="-4" y="57" type="curve" smooth="yes"/>
      <point x="-4" y="148"/>
      <point x="44" y="195"/>
      <point x="98" y="236" type="curve" smooth="yes"/>
      <point x="149" y="274"/>
      <point x="212" y="305"/>
      <point x="230" y="358" type="curve"/>
    </contour>
    <contour>
      <point x="346" y="611" type="curve" smooth="yes"/>
      <point x="410" y="611"/>
      <point x="455" y="565"/>
      <point x="455" y="507" type="curve" smooth="yes"/>
      <point x="455" y="448"/>
      <point x="407" y="399"/>
      <point x="344" y="399" type="curve" smooth="yes"/>
      <point x="281" y="399"/>
      <point x="233" y="446"/>
      <point x="233" y="505" type="curve" smooth="yes"/>
      <point x="233" y="563"/>
      <point x="283" y="611"/>
    </contour>
  </outline>
</glyph>
<glyph name="Aacute" format="2">
  <advance width="755"/>
  <unicode hex="00C1"/>
  <outline>
    <contour>
      <point x="471" y="0" type="line"/>
      <point x="457" y="119" type="line"/>
      <point x="232" y="119" type="line"/>
      <point x="181" y="0" type="line"/>
      <point x="-36" y="0" type="line"/>
      <point x="303" y="715" type="line"/>
      <point x="595" y="715" type="line"/>
      <point x="706" y="0" type="line"/>
    </contour>
    <contour>
      <point x="369" y="757" type="line"/>
      <point x="433" y="906" type="line"/>
      <point x="634" y="906" type="line"/>
      <point x="519" y="757" type="line"/>
    </contour>
    <contour>
      <point x="411" y="532" type="line"/>
      <point x="299" y="273" type="line"/>
      <point x="440" y="273" type="line"/>
    </contour>
  </outline>
</glyph>
<glyph name="Atilde" format="2">
  <advance width="755"/>
  <unicode hex="00C3"/>
  <outline>
    <contour>
      <point x="471" y="0" type="line"/>
      <point x="457" y="119" type="line"/>
      <point x="232" y="119" type="line"/>
      <point x="181" y="0" type="line"/>
      <point x="-36" y="0" type="line"/>
      <point x="303" y="715" type="line"/>
      <point x="595" y="715" type="line"/>
      <point x="706" y="0" type="line"/>
    </contour>
    <contour>
      <point x="518" y="755" type="curve" smooth="yes"/>
      <point x="459" y="755"/>
      <point x="429" y="787"/>
      <point x="398" y="787" type="curve" smooth="yes"/>
      <point x="382" y="787"/>
      <point x="368" y="775"/>
      <point x="365" y="757" type="curve"/>
      <point x="255" y="757" type="line"/>
      <point x="273" y="868"/>
      <point x="331" y="917"/>
      <point x="395" y="917" type="curve" smooth="yes"/>
      <point x="451" y="917"/>
      <point x="484" y="885"/>
      <point x="518" y="885" type="curve" smooth="yes"/>
      <point x="535" y="885"/>
      <point x="546" y="896"/>
      <point x="552" y="915" type="curve"/>
      <point x="661" y="915" type="line"/>
      <point x="641" y="804"/>
      <point x="580" y="755"/>
    </contour>
    <contour>
      <point x="411" y="532" type="line"/>
      <point x="299" y="273" type="line"/>
      <point x="440" y="273" type="line"/>
    </contour>
  </outline>
</glyph>
<glyph name="Adieresis" format="2">
  <advance width="755"/>
  <unicode hex="00C4"/>
  <outline>
    <contour>
      <point x="471" y="0" type="line"/>
      <point x="457" y="119" type="line"/>
      <point x="232" y="119" type="line"/>
      <point x="181" y="0" type="line"/>
      <point x="-36" y="0" type="line"/>
      <point x="303" y="715" type="line"/>
      <point x="595" y="715" type="line"/>
      <point x="706" y="0" type="line"/>
    </contour>
    <contour>
      <point x="569" y="752" type="curve" smooth="yes"/>
      <point x="518" y="752"/>
      <point x="478" y="792"/>
      <point x="478" y="841" type="curve" smooth="yes"/>
      <point x="478" y="890"/>
      <point x="518" y="930"/>
      <point x="569" y="930" type="curve" smooth="yes"/>
      <point x="621" y="930"/>
      <point x="661" y="891"/>
      <point x="661" y="841" type="curve" smooth="yes"/>
      <point x="661" y="792"/>
      <point x="620" y="752"/>
    </contour>
    <contour>
      <point x="342" y="752" type="curve" smooth="yes"/>
      <point x="291" y="752"/>
      <point x="251" y="792"/>
      <point x="251" y="841" type="curve" smooth="yes"/>
      <point x="251" y="890"/>
      <point x="292" y="930"/>
      <point x="343" y="930" type="curve" smooth="yes"/>
      <point x="393" y="930"/>
      <point x="434" y="891"/>
      <point x="434" y="841" type="curve" smooth="yes"/>
      <point x="434" y="792"/>
      <point x="393" y="752"/>
    </contour>
    <contour>
      <point x="411" y="532" type="line"/>
      <point x="299" y="273" type="line"/>
      <point x="440" y="273" type="line"/>
    </contour>
  </outline>
</glyph>
<glyph name="Aring" format="2">
  <advance width="755"/>
  <unicode hex="00C5"/>
  <outline>
    <contour>
      <point x="471" y="0" type="line"/>
      <point x="457" y="119" type="line"/>
      <point x="232" y="119" type="line"/>
      <point x="181" y="0" type="line"/>
      <point x="-36" y="0" type="line"/>
      <point x="303" y="715" type="line"/>
      <point x="595" y="715" type="line"/>
      <point x="706" y="0" type="line"/>
    </contour>
    <contour>
      <point x="454" y="742" type="curve" smooth="yes"/>
      <point x="387" y="742"/>
      <point x="332" y="795"/>
      <point x="332" y="859" type="curve" smooth="yes"/>
      <point x="332" y="925"/>
      <point x="388" y="978"/>
      <point x="454" y="978" type="curve" smooth="yes"/>
      <point x="521" y="978"/>
      <point x="576" y="925"/>
      <point x="576" y="860" type="curve" smooth="yes"/>
      <point x="576" y="795"/>
      <point x="520" y="742"/>
    </contour>
    <contour>
      <point x="411" y="532" type="line"/>
      <point x="299" y="273" type="line"/>
      <point x="440" y="273" type="line"/>
    </contour>
    <contour>
      <point x="454" y="810" type="curve" smooth="yes"/>
      <point x="480" y="810"/>
      <point x="499" y="831"/>
      <point x="499" y="860" type="curve" smooth="yes"/>
      <point x="499" y="889"/>
      <point x="481" y="909"/>
      <point x="454" y="909" type="curve" smooth="yes"/>
      <point x="427" y="909"/>
      <point x="409" y="889"/>
      <point x="409" y="859" type="curve" smooth="yes"/>
      <point x="409" y="830"/>
      <point x="426" y="810"/>
    </contour>
  </outline>
</glyph>
<glyph name="Ccedilla" format="2">
  <advance width="768"/>
  <unicode hex="00C7"/>
  <outline>
    <contour>
      <point x="317" y="-228" type="curve" smooth="yes"/>
      <point x="251" y="-228"/>
      <point x="191" y="-200"/>
      <point x="186" y="-134" type="curve"/>
      <point x="277" y="-134" type="line"/>
      <point x="279" y="-147"/>
      <point x="287" y="-160"/>
      <point x="310" y="-160" type="curve" smooth="yes"/>
      <point x="325" y="-160"/>
      <point x="342" y="-151"/>
      <point x="342" y="-128" type="curve" smooth="yes"/>
      <point x="342" y="-110"/>
      <point x="330" y="-101"/>
      <point x="311" y="-101" type="curve" smooth="yes"/>
      <point x="296" y="-101"/>
      <point x="288" y="-105"/>
      <point x="281" y="-111" type="curve"/>
      <point x="246" y="-72" type="line"/>
      <point x="299" y="-5" type="line"/>
      <point x="139" y="22"/>
      <point x="40" y="126"/>
      <point x="40" y="302" type="curve" smooth="yes"/>
      <point x="40" y="549"/>
      <point x="190" y="726"/>
      <point x="443" y="726" type="curve" smooth="yes"/>
      <point x="637" y="726"/>
      <point x="759" y="633"/>
      <point x="766" y="444" type="curve"/>
      <point x="538" y="444" type="line"/>
      <point x="532" y="511"/>
      <point x="503" y="549"/>
      <point x="437" y="549" type="curve" smooth="yes"/>
      <point x="330" y="549"/>
      <point x="278" y="439"/>
      <point x="277" y="312" type="curve" smooth="yes"/>
      <point x="276" y="231"/>
      <point x="308" y="166"/>
      <point x="396" y="166" type="curve" smooth="yes"/>
      <point x="459" y="166"/>
      <point x="505" y="201"/>
      <point x="524" y="274" type="curve"/>
      <point x="749" y="274" type="line"/>
      <point x="721" y="82"/>
      <point x="572" y="-13"/>
      <point x="394" y="-13" type="curve" smooth="yes"/>
      <point x="368" y="-13" type="line"/>
      <point x="343" y="-44" type="line"/>
      <point x="399" y="-40"/>
      <point x="444" y="-69"/>
      <point x="444" y="-124" type="curve" smooth="yes"/>
      <point x="444" y="-195"/>
      <point x="386" y="-228"/>
    </contour>
  </outline>
</glyph>
<glyph name="Egrave" format="2">
  <advance width="621"/>
  <unicode hex="00C8"/>
  <outline>
    <contour>
      <point x="329" y="757" type="line"/>
      <point x="242" y="906" type="line"/>
      <point x="441" y="906" type="line"/>
      <point x="473" y="757" type="line"/>
    </contour>
    <contour>
      <point x="23" y="0" type="line"/>
      <point x="136" y="715" type="line"/>
      <point x="643" y="715" type="line"/>
      <point x="616" y="541" type="line"/>
      <point x="334" y="541" type="line"/>
      <point x="318" y="440" type="line"/>
      <point x="542" y="440" type="line"/>
      <point x="518" y="282" type="line"/>
      <point x="294" y="282" type="line"/>
      <point x="276" y="174" type="line"/>
      <point x="574" y="174" type="line"/>
      <point x="547" y="0" type="line"/>
    </contour>
  </outline>
</glyph>
<glyph name="Edieresis" format="2">
  <advance width="621"/>
  <unicode hex="00CB"/>
  <outline>
    <contour>
      <point x="23" y="0" type="line"/>
      <point x="136" y="715" type="line"/>
      <point x="643" y="715" type="line"/>
      <point x="616" y="541" type="line"/>
      <point x="334" y="541" type="line"/>
      <point x="318" y="440" type="line"/>
      <point x="542" y="440" type="line"/>
      <point x="518" y="282" type="line"/>
      <point x="294" y="282" type="line"/>
      <point x="276" y="174" type="line"/>
      <point x="574" y="174" type="line"/>
      <point x="547" y="0" type="line"/>
    </contour>
    <contour>
      <point x="289" y="752" type="curve" smooth="yes"/>
      <point x="238" y="752"/>
      <point x="198" y="792"/>
      <point x="198" y="841" type="curve" smooth="yes"/>
      <point x="198" y="890"/>
      <point x="239" y="930"/>
      <point x="290" y="930" type="curve" smooth="yes"/>
      <point x="340" y="930"/>
      <point x="381" y="891"/>
      <point x="381" y="841" type="curve" smooth="yes"/>
      <point x="381" y="792"/>
      <point x="340" y="752"/>
    </contour>
    <contour>
      <point x="516" y="752" type="curve" smooth="yes"/>
      <point x="465" y="752"/>
      <point x="425" y="792"/>
      <point x="425" y="841" type="curve" smooth="yes"/>
      <point x="425" y="890"/>
      <point x="465" y="930"/>
      <point x="516" y="930" type="curve" smooth="yes"/>
      <point x="568" y="930"/>
      <point x="608" y="891"/>
      <point x="608" y="841" type="curve" smooth="yes"/>
      <point x="608" y="792"/>
      <point x="567" y="752"/>
    </contour>
  </outline>
</glyph>
<glyph name="Igrave" format="2">
  <advance width="366"/>
  <unicode hex="00CC"/>
  <outline>
    <contour>
      <point x="26" y="0" type="line"/>
      <point x="139" y="715" type="line"/>
      <point x="368" y="715" type="line"/>
      <point x="255" y="0" type="line"/>
    </contour>
    <contour>
      <point x="194" y="757" type="line"/>
      <point x="107" y="906" type="line"/>
      <point x="306" y="906" type="line"/>
      <point x="338" y="757" type="line"/>
    </contour>
  </outline>
</glyph>
<glyph name="Iacute" format="2">
  <advance width="366"/>
  <unicode hex="00CD"/>
  <outline>
    <contour>
      <point x="26" y="0" type="line"/>
      <point x="139" y="715" type="line"/>
      <point x="368" y="715" type="line"/>
      <point x="255" y="0" type="line"/>
    </contour>
    <contour>
      <point x="171" y="757" type="line"/>
      <point x="235" y="906" type="line"/>
      <point x="436" y="906" type="line"/>
      <point x="321" y="757" type="line"/>
    </contour>
  </outline>
</glyph>
<glyph name="Icircumflex" format="2">
  <advance width="366"/>
  <unicode hex="00CE"/>
  <outline>
    <contour>
      <point x="26" y="0" type="line"/>
      <point x="139" y="715" type="line"/>
      <point x="368" y="715" type="line"/>
      <point x="255" y="0" type="line"/>
    </contour>
    <contour>
      <point x="63" y="757" type="line"/>
      <point x="195" y="906" type="line"/>
      <point x="359" y="906" type="line"/>
      <point x="452" y="757" type="line"/>
      <point x="315" y="757" type="line"/>
      <point x="267" y="804" type="line"/>
      <point x="207" y="757" type="line"/>
    </contour>
  </outline>
</glyph>
<glyph name="Idieresis" format="2">
  <advance width="366"/>
  <unicode hex="00CF"/>
  <outline>
    <contour>
      <point x="26" y="0" type="line"/>
      <point x="139" y="715" type="line"/>
      <point x="368" y="715" type="line"/>
      <point x="255" y="0" type="line"/>
    </contour>
    <contour>
      <point x="158" y="752" type="curve" smooth="yes"/>
      <point x="107" y="752"/>
      <point x="67" y="792"/>
      <point x="67" y="841" type="curve" smooth="yes"/>
      <point x="67" y="890"/>
      <point x="108" y="930"/>
      <point x="159" y="930" type="curve" smooth="yes"/>
      <point x="209" y="930"/>
      <point x="250" y="891"/>
      <point x="250" y="841" type="curve" smooth="yes"/>
      <point x="250" y="792"/>
      <point x="209" y="752"/>
    </contour>
    <contour>
      <point x="385" y="752" type="curve" smooth="yes"/>
      <point x="334" y="752"/>
      <point x="294" y="792"/>
      <point x="294" y="841" type="curve" smooth="yes"/>
      <point x="294" y="890"/>
      <point x="334" y="930"/>
      <point x="385" y="930" type="curve" smooth="yes"/>
      <point x="437" y="930"/>
      <point x="477" y="891"/>
      <point x="477" y="841" type="curve" smooth="yes"/>
      <point x="477" y="792"/>
      <point x="436" y="752"/>
    </contour>
  </outline>
</glyph>
<glyph name="Eth" format="2">
  <advance width="775"/>
  <unicode hex="00D0"/>
  <outline>
    <contour>
      <point x="31" y="284" type="line"/>
      <point x="55" y="435" type="line"/>
      <point x="110" y="435" type="line"/>
      <point x="154" y="715" type="line"/>
      <point x="396" y="715" type="line" smooth="yes"/>
      <point x="640" y="715"/>
      <point x="765" y="602"/>
      <point x="765" y="411" type="curve" smooth="yes"/>
      <point x="765" y="143"/>
      <point x="595" y="0"/>
      <point x="347" y="0" type="curve" smooth="yes"/>
      <point x="41" y="0" type="line"/>
      <point x="86" y="284" type="line"/>
    </contour>
    <contour>
      <point x="291" y="172" type="line"/>
      <point x="349" y="172" type="line" smooth="yes"/>
      <point x="466" y="172"/>
      <point x="531" y="254"/>
      <point x="531" y="401" type="curve" smooth="yes"/>
      <point x="531" y="494"/>
      <point x="486" y="543"/>
      <point x="392" y="543" type="curve" smooth="yes"/>
      <point x="350" y="543" type="line"/>
      <point x="333" y="435" type="line"/>
      <point x="436" y="435" type="line"/>
      <point x="413" y="284" type="line"/>
      <point x="309" y="284" type="line"/>
    </contour>
  </outline>
</glyph>
<glyph name="Ntilde" format="2">
  <advance width="787"/>
  <unicode hex="00D1"/>
  <outline>
    <contour>
      <point x="551" y="755" type="curve" smooth="yes"/>
      <point x="492" y="755"/>
      <point x="462" y="787"/>
      <point x="431" y="787" type="curve" smooth="yes"/>
      <point x="415" y="787"/>
      <point x="401" y="775"/>
      <point x="398" y="757" type="curve"/>
      <point x="288" y="757" type="line"/>
      <point x="306" y="868"/>
      <point x="364" y="917"/>
      <point x="428" y="917" type="curve" smooth="yes"/>
      <point x="484" y="917"/>
      <point x="517" y="885"/>
      <point x="551" y="885" type="curve" smooth="yes"/>
      <point x="568" y="885"/>
      <point x="579" y="896"/>
      <point x="585" y="915" type="curve"/>
      <point x="694" y="915" type="line"/>
      <point x="674" y="804"/>
      <point x="613" y="755"/>
    </contour>
    <contour>
      <point x="23" y="0" type="line"/>
      <point x="136" y="715" type="line"/>
      <point x="391" y="715" type="line"/>
      <point x="532" y="343" type="line"/>
      <point x="591" y="715" type="line"/>
      <point x="792" y="715" type="line"/>
      <point x="679" y="0" type="line"/>
      <point x="462" y="0" type="line"/>
      <point x="291" y="423" type="line"/>
      <point x="225" y="0" type="line"/>
    </contour>
  </outline>
</glyph>
<glyph name="Ocircumflex" format="2">
  <advance width="820"/>
  <unicode hex="00D4"/>
  <outline>
    <contour>
      <point x="267" y="757" type="line"/>
      <point x="399" y="906" type="line"/>
      <point x="563" y="906" type="line"/>
      <point x="656" y="757" type="line"/>
      <point x="519" y="757" type="line"/>
      <point x="471" y="804" type="line"/>
      <point x="411" y="757" type="line"/>
    </contour>
    <contour>
      <point x="810" y="410" type="curve" smooth="yes"/>
      <point x="810" y="159"/>
      <point x="642" y="-13"/>
      <point x="389" y="-13" type="curve" smooth="yes"/>
      <point x="200" y="-13"/>
      <point x="40" y="96"/>
      <point x="40" y="300" type="curve" smooth="yes"/>
      <point x="40" y="551"/>
      <point x="209" y="726"/>
      <point x="453" y="726" type="curve" smooth="yes"/>
      <point x="649" y="726"/>
      <point x="810" y="619"/>
    </contour>
    <contour>
      <point x="574" y="402" type="curve" smooth="yes"/>
      <point x="574" y="483"/>
      <point x="537" y="547"/>
      <point x="446" y="549" type="curve" smooth="yes"/>
      <point x="332" y="550"/>
      <point x="275" y="431"/>
      <point x="275" y="308" type="curve" smooth="yes"/>
      <point x="275" y="225"/>
      <point x="316" y="165"/>
      <point x="405" y="165" type="curve" smooth="yes"/>
      <point x="521" y="165"/>
      <point x="574" y="283"/>
    </contour>
  </outline>
</glyph>
<glyph name="Otilde" format="2">
  <advance width="820"/>
  <unicode hex="00D5"/>
  <outline>
    <contour>
      <point x="530" y="755" type="curve" smooth="yes"/>
      <point x="471" y="755"/>
      <point x="441" y="787"/>
      <point x="410" y="787" type="curve" smooth="yes"/>
      <point x="394" y="787"/>
      <point x="380" y="775"/>
      <point x="377" y="757" type="curve"/>
      <point x="267" y="757" type="line"/>
      <point x="285" y="868"/>
      <point x="343" y="917"/>
      <point x="407" y="917" type="curve" smooth="yes"/>
      <point x="463" y="917"/>
      <point x="496" y="885"/>
      <point x="530" y="885" type="curve" smooth="yes"/>
      <point x="547" y="885"/>
      <point x="558" y="896"/>
      <point x="564" y="915" type="curve"/>
      <point x="673" y="915" type="line"/>
      <point x="653" y="804"/>
      <point x="592" y="755"/>
    </contour>
    <contour>
      <point x="810" y="410" type="curve" smooth="yes"/>
      <point x="810" y="159"/>
      <point x="642" y="-13"/>
      <point x="389" y="-13" type="curve" smooth="yes"/>
      <point x="200" y="-13"/>
      <point x="40" y="96"/>
      <point x="40" y="300" type="curve" smooth="yes"/>
      <point x="40" y="551"/>
      <point x="209" y="726"/>
      <point x="453" y="726" type="curve" smooth="yes"/>
      <point x="649" y="726"/>
      <point x="810" y="619"/>
    </contour>
    <contour>
      <point x="574" y="402" type="curve" smooth="yes"/>
      <point x="574" y="483"/>
      <point x="537" y="547"/>
      <point x="446" y="549" type="curve" smooth="yes"/>
      <point x="332" y="550"/>
      <point x="275" y="431"/>
      <point x="275" y="308" type="curve" smooth="yes"/>
      <point x="275" y="225"/>
      <point x="316" y="165"/>
      <point x="405" y="165" type="curve" smooth="yes"/>
      <point x="521" y="165"/>
      <point x="574" y="283"/>
    </contour>
  </outline>
</glyph>
<glyph name="Odieresis" format="2">
  <advance width="820"/>
  <unicode hex="00D6"/>
  <outline>
    <contour>
      <point x="363" y="752" type="curve" smooth="yes"/>
      <point x="312" y="752"/>
      <point x="272" y="792"/>
      <point x="272" y="841" type="curve" smooth="yes"/>
      <point x="272" y="890"/>
      <point x="313" y="930"/>
      <point x="364" y="930" type="curve" smooth="yes"/>
      <point x="414" y="930"/>
      <point x="455" y="891"/>
      <point x="455" y="841" type="curve" smooth="yes"/>
      <point x="455" y="792"/>
      <point x="414" y="752"/>
    </contour>
    <contour>
      <point x="590" y="752" type="curve" smooth="yes"/>
      <point x="539" y="752"/>
      <point x="499" y="792"/>
      <point x="499" y="841" type="curve" smooth="yes"/>
      <point x="499" y="890"/>
      <point x="539" y="930"/>
      <point x="590" y="930" type="curve" smooth="yes"/>
      <point x="642" y="930"/>
      <point x="682" y="891"/>
      <point x="682" y="841" type="curve" smooth="yes"/>
      <point x="682" y="792"/>
      <point x="641" y="752"/>
    </contour>
    <contour>
      <point x="810" y="410" type="curve" smooth="yes"/>
      <point x="810" y="159"/>
      <point x="642" y="-13"/>
      <point x="389" y="-13" type="curve" smooth="yes"/>
      <point x="200" y="-13"/>
      <point x="40" y="96"/>
      <point x="40" y="300" type="curve" smooth="yes"/>
      <point x="40" y="551"/>
      <point x="209" y="726"/>
      <point x="453" y="726" type="curve" smooth="yes"/>
      <point x="649" y="726"/>
      <point x="810" y="619"/>
    </contour>
    <contour>
      <point x="574" y="402" type="curve" smooth="yes"/>
      <point x="574" y="483"/>
      <point x="537" y="547"/>
      <point x="446" y="549" type="curve" smooth="yes"/>
      <point x="332" y="550"/>
      <point x="275" y="431"/>
      <point x="275" y="308" type="curve" smooth="yes"/>
      <point x="275" y="225"/>
      <point x="316" y="165"/>
      <point x="405" y="165" type="curve" smooth="yes"/>
      <point x="521" y="165"/>
      <point x="574" y="283"/>
    </contour>
  </outline>
</glyph>
<glyph name="multiply" format="2">
  <advance width="589"/>
  <unicode hex="00D7"/>
  <outline>
    <contour>
      <point x="118" y="83" type="line"/>
      <point x="28" y="186" type="line"/>
      <point x="202" y="338" type="line"/>
      <point x="71" y="492" type="line"/>
      <point x="187" y="595" type="line"/>
      <point x="319" y="440" type="line"/>
      <point x="493" y="591" type="line"/>
      <point x="583" y="487" type="line"/>
      <point x="408" y="335" type="line"/>
      <point x="540" y="182" type="line"/>
      <point x="423" y="79" type="line"/>
      <point x="291" y="233" type="line"/>
    </contour>
  </outline>
</glyph>
<glyph name="Udieresis" format="2">
  <advance width="776"/>
  <unicode hex="00DC"/>
  <outline>
    <contour>
      <point x="376" y="-13" type="curve" smooth="yes"/>
      <point x="154" y="-13"/>
      <point x="32" y="96"/>
      <point x="67" y="313" type="curve" smooth="yes"/>
      <point x="132" y="715" type="line"/>
      <point x="358" y="715" type="line"/>
      <point x="293" y="306" type="line" smooth="yes"/>
      <point x="278" y="212"/>
      <point x="302" y="165"/>
      <point x="380" y="165" type="curve" smooth="yes"/>
      <point x="456" y="165"/>
      <point x="478" y="209"/>
      <point x="492" y="294" type="curve" smooth="yes"/>
      <point x="559" y="715" type="line"/>
      <point x="787" y="715" type="line"/>
      <point x="717" y="276" type="line" smooth="yes"/>
      <point x="686" y="76"/>
      <point x="578" y="-13"/>
    </contour>
    <contour>
      <point x="352" y="752" type="curve" smooth="yes"/>
      <point x="301" y="752"/>
      <point x="261" y="792"/>
      <point x="261" y="841" type="curve" smooth="yes"/>
      <point x="261" y="890"/>
      <point x="302" y="930"/>
      <point x="353" y="930" type="curve" smooth="yes"/>
      <point x="403" y="930"/>
      <point x="444" y="891"/>
      <point x="444" y="841" type="curve" smooth="yes"/>
      <point x="444" y="792"/>
      <point x="403" y="752"/>
    </contour>
    <contour>
      <point x="579" y="752" type="curve" smooth="yes"/>
      <point x="528" y="752"/>
      <point x="488" y="792"/>
      <point x="488" y="841" type="curve" smooth="yes"/>
      <point x="488" y="890"/>
      <point x="528" y="930"/>
      <point x="579" y="930" type="curve" smooth="yes"/>
      <point x="631" y="930"/>
      <point x="671" y="891"/>
      <point x="671" y="841" type="curve" smooth="yes"/>
      <point x="671" y="792"/>
      <point x="630" y="752"/>
    </contour>
  </outline>
</glyph>
<glyph name="Thorn" format="2">
  <advance width="664"/>
  <unicode hex="00DE"/>
  <outline>
    <contour>
      <point x="362" y="715" type="line"/>
      <point x="344" y="600" type="line"/>
      <point x="389" y="600" type="line" smooth="yes"/>
      <point x="567" y="600"/>
      <point x="661" y="526"/>
      <point x="661" y="394" type="curve" smooth="yes"/>
      <point x="661" y="228"/>
      <point x="543" y="130"/>
      <point x="357" y="130" type="curve" smooth="yes"/>
      <point x="270" y="130" type="line"/>
      <point x="250" y="0" type="line"/>
      <point x="23" y="0" type="line"/>
      <point x="136" y="715" type="line"/>
    </contour>
    <contour>
      <point x="363" y="442" type="curve" smooth="yes"/>
      <point x="319" y="442" type="line"/>
      <point x="294" y="282" type="line"/>
      <point x="347" y="282" type="line" smooth="yes"/>
      <point x="410" y="282"/>
      <point x="445" y="316"/>
      <point x="445" y="377" type="curve" smooth="yes"/>
      <point x="446" y="418"/>
      <point x="419" y="442"/>
    </contour>
  </outline>
</glyph>
<glyph name="germandbls" format="2">
  <advance width="641"/>
  <unicode hex="00DF"/>
  <outline>
    <contour>
      <point x="358" y="-10" type="curve" smooth="yes"/>
      <point x="313" y="-10"/>
      <point x="277" y="-3"/>
      <point x="249" y="7" type="curve"/>
      <point x="273" y="150" type="line"/>
      <point x="286" y="144"/>
      <point x="303" y="139"/>
      <point x="322" y="139" type="curve" smooth="yes"/>
      <point x="395" y="139"/>
      <point x="422" y="193"/>
      <point x="422" y="268" type="curve" smooth="yes"/>
      <point x="422" y="338"/>
      <point x="380" y="370"/>
      <point x="311" y="368" type="curve"/>
      <point x="333" y="505" type="line"/>
      <point x="387" y="506"/>
      <point x="428" y="528"/>
      <point x="428" y="583" type="curve" smooth="yes"/>
      <point x="428" y="620"/>
      <point x="406" y="643"/>
      <point x="366" y="643" type="curve" smooth="yes"/>
      <point x="324" y="643"/>
      <point x="299" y="616"/>
      <point x="290" y="559" type="curve" smooth="yes"/>
      <point x="202" y="0" type="line"/>
      <point x="5" y="0" type="line"/>
      <point x="93" y="549" type="line" smooth="yes"/>
      <point x="118" y="709"/>
      <point x="227" y="770"/>
      <point x="373" y="770" type="curve" smooth="yes"/>
      <point x="515" y="770"/>
      <point x="612" y="711"/>
      <point x="612" y="593" type="curve" smooth="yes"/>
      <point x="612" y="513"/>
      <point x="557" y="460"/>
      <point x="476" y="438" type="curve"/>
      <point x="559" y="414"/>
      <point x="619" y="348"/>
      <point x="619" y="246" type="curve" smooth="yes"/>
      <point x="619" y="91"/>
      <point x="525" y="-10"/>
    </contour>
  </outline>
</glyph>
<glyph name="acircumflex" format="2">
  <advance width="584"/>
  <unicode hex="00E2"/>
  <outline>
    <contour>
      <point x="168" y="-13" type="curve" smooth="yes"/>
      <point x="76" y="-13"/>
      <point x="3" y="39"/>
      <point x="3" y="132" type="curve" smooth="yes"/>
      <point x="3" y="270"/>
      <point x="107" y="316"/>
      <point x="282" y="316" type="curve" smooth="yes"/>
      <point x="354" y="316" type="line"/>
      <point x="356" y="328" type="line" smooth="yes"/>
      <point x="363" y="371"/>
      <point x="355" y="401"/>
      <point x="303" y="401" type="curve" smooth="yes"/>
      <point x="259" y="401"/>
      <point x="243" y="374"/>
      <point x="236" y="345" type="curve"/>
      <point x="52" y="345" type="line"/>
      <point x="78" y="474"/>
      <point x="170" y="538"/>
      <point x="312" y="538" type="curve" smooth="yes"/>
      <point x="489" y="538"/>
      <point x="572" y="462"/>
      <point x="547" y="303" type="curve" smooth="yes"/>
      <point x="525" y="164" type="line" smooth="yes"/>
      <point x="514" y="96"/>
      <point x="511" y="44"/>
      <point x="517" y="0" type="curve"/>
      <point x="326" y="0" type="line"/>
      <point x="322" y="21"/>
      <point x="322" y="44"/>
      <point x="323" y="65" type="curve"/>
      <point x="294" y="24"/>
      <point x="248" y="-13"/>
    </contour>
    <contour>
      <point x="251" y="117" type="curve" smooth="yes"/>
      <point x="294" y="117"/>
      <point x="327" y="144"/>
      <point x="333" y="183" type="curve" smooth="yes"/>
      <point x="338" y="210" type="line"/>
      <point x="287" y="210" type="line" smooth="yes"/>
      <point x="223" y="210"/>
      <point x="199" y="196"/>
      <point x="199" y="160" type="curve" smooth="yes"/>
      <point x="199" y="136"/>
      <point x="217" y="117"/>
    </contour>
    <contour>
      <point x="133" y="580" type="line"/>
      <point x="280" y="746" type="line"/>
      <point x="417" y="746" type="line"/>
      <point x="516" y="580" type="line"/>
      <point x="384" y="580" type="line"/>
      <point x="335" y="633" type="line"/>
      <point x="272" y="580" type="line"/>
    </contour>
  </outline>
</glyph>
<glyph name="ae" format="2">
  <advance width="912"/>
  <unicode hex="00E6"/>
  <outline>
    <contour>
      <point x="525" y="217" type="line" smooth="yes"/>
      <point x="525" y="163"/>
      <point x="547" y="119"/>
      <point x="613" y="119" type="curve" smooth="yes"/>
      <point x="662" y="119"/>
      <point x="685" y="143"/>
      <point x="695" y="177" type="curve"/>
      <point x="880" y="177" type="line"/>
      <point x="855" y="54"/>
      <point x="754" y="-13"/>
      <point x="608" y="-13" type="curve" smooth="yes"/>
      <point x="509" y="-13"/>
      <point x="434" y="16"/>
      <point x="392" y="80" type="curve"/>
      <point x="361" y="32"/>
      <point x="308" y="-13"/>
      <point x="197" y="-13" type="curve" smooth="yes"/>
      <point x="83" y="-13"/>
      <point x="3" y="41"/>
      <point x="3" y="136" type="curve" smooth="yes"/>
      <point x="3" y="272"/>
      <point x="111" y="319"/>
      <point x="284" y="319" type="curve" smooth="yes"/>
      <point x="355" y="319" type="line"/>
      <point x="357" y="330" type="line" smooth="yes"/>
      <point x="363" y="371"/>
      <point x="353" y="401"/>
      <point x="301" y="401" type="curve" smooth="yes"/>
      <point x="257" y="401"/>
      <point x="238" y="374"/>
      <point x="231" y="345" type="curve"/>
      <point x="48" y="345" type="line"/>
      <point x="72" y="476"/>
      <point x="176" y="538"/>
      <point x="310" y="538" type="curve" smooth="yes"/>
      <point x="390" y="538"/>
      <point x="443" y="519"/>
      <point x="474" y="482" type="curve"/>
      <point x="522" y="517"/>
      <point x="579" y="537"/>
      <point x="640" y="537" type="curve" smooth="yes"/>
      <point x="813" y="537"/>
      <point x="914" y="431"/>
      <point x="885" y="242" type="curve"/>
      <point x="882" y="219" type="line"/>
      <point x="525" y="219" type="line"/>
    </contour>
    <contour>
      <point x="635" y="412" type="curve" smooth="yes"/>
      <point x="594" y="412"/>
      <point x="555" y="386"/>
      <point x="537" y="320" type="curve"/>
      <point x="705" y="320" type="line"/>
      <point x="709" y="372"/>
      <point x="690" y="412"/>
    </contour>
    <contour>
      <point x="251" y="117" type="curve" smooth="yes"/>
      <point x="294" y="117"/>
      <point x="327" y="142"/>
      <point x="334" y="187" type="curve" smooth="yes"/>
      <point x="339" y="216" type="line"/>
      <point x="287" y="216" type="line" smooth="yes"/>
      <point x="224" y="216"/>
      <point x="199" y="199"/>
      <point x="199" y="161" type="curve" smooth="yes"/>
      <point x="199" y="135"/>
      <point x="217" y="117"/>
    </contour>
  </outline>
</glyph>
<glyph name="ccedilla" format="2">
  <advance width="584"/>
  <unicode hex="00E7"/>
  <outline>
    <contour>
      <point x="229" y="-228" type="curve" smooth="yes"/>
      <point x="163" y="-228"/>
      <point x="103" y="-200"/>
      <point x="98" y="-134" type="curve"/>
      <point x="189" y="-134" type="line"/>
      <point x="191" y="-147"/>
      <point x="199" y="-160"/>
      <point x="222" y="-160" type="curve" smooth="yes"/>
      <point x="237" y="-160"/>
      <point x="254" y="-151"/>
      <point x="254" y="-128" type="curve" smooth="yes"/>
      <point x="254" y="-110"/>
      <point x="242" y="-101"/>
      <point x="223" y="-101" type="curve" smooth="yes"/>
      <point x="208" y="-101"/>
      <point x="200" y="-105"/>
      <point x="193" y="-111" type="curve"/>
      <point x="158" y="-72" type="line"/>
      <point x="212" y="-4" type="line"/>
      <point x="99" y="20"/>
      <point x="21" y="98"/>
      <point x="21" y="228" type="curve" smooth="yes"/>
      <point x="21" y="414"/>
      <point x="142" y="537"/>
      <point x="319" y="537" type="curve" smooth="yes"/>
      <point x="459" y="537"/>
      <point x="565" y="472"/>
      <point x="570" y="317" type="curve"/>
      <point x="386" y="317" type="line"/>
      <point x="382" y="364"/>
      <point x="360" y="386"/>
      <point x="315" y="386" type="curve" smooth="yes"/>
      <point x="244" y="386"/>
      <point x="218" y="308"/>
      <point x="218" y="226" type="curve" smooth="yes"/>
      <point x="218" y="168"/>
      <point x="240" y="129"/>
      <point x="298" y="129" type="curve" smooth="yes"/>
      <point x="343" y="129"/>
      <point x="374" y="156"/>
      <point x="384" y="209" type="curve"/>
      <point x="560" y="209" type="line"/>
      <point x="543" y="67"/>
      <point x="447" y="-12"/>
      <point x="291" y="-12" type="curve" smooth="yes"/>
      <point x="281" y="-12" type="line"/>
      <point x="255" y="-44" type="line"/>
      <point x="311" y="-40"/>
      <point x="356" y="-69"/>
      <point x="356" y="-124" type="curve" smooth="yes"/>
      <point x="356" y="-195"/>
      <point x="298" y="-228"/>
    </contour>
  </outline>
</glyph>
<glyph name="edieresis" format="2">
  <advance width="602"/>
  <unicode hex="00EB"/>
  <outline>
    <contour>
      <point x="213" y="217" type="line" smooth="yes"/>
      <point x="213" y="163"/>
      <point x="236" y="119"/>
      <point x="302" y="119" type="curve" smooth="yes"/>
      <point x="351" y="119"/>
      <point x="376" y="143"/>
      <point x="386" y="177" type="curve"/>
      <point x="571" y="177" type="line"/>
      <point x="546" y="54"/>
      <point x="443" y="-13"/>
      <point x="297" y="-13" type="curve" smooth="yes"/>
      <point x="145" y="-13"/>
      <point x="21" y="60"/>
      <point x="21" y="227" type="curve" smooth="yes"/>
      <point x="21" y="414"/>
      <point x="150" y="538"/>
      <point x="325" y="538" type="curve" smooth="yes"/>
      <point x="500" y="538"/>
      <point x="605" y="428"/>
      <point x="576" y="241" type="curve"/>
      <point x="573" y="218" type="line"/>
      <point x="213" y="218" type="line"/>
    </contour>
    <contour>
      <point x="236" y="570" type="curve" smooth="yes"/>
      <point x="185" y="570"/>
      <point x="145" y="609"/>
      <point x="145" y="659" type="curve" smooth="yes"/>
      <point x="145" y="708"/>
      <point x="186" y="748"/>
      <point x="237" y="748" type="curve" smooth="yes"/>
      <point x="287" y="748"/>
      <point x="328" y="708"/>
      <point x="328" y="659" type="curve" smooth="yes"/>
      <point x="328" y="610"/>
      <point x="287" y="570"/>
    </contour>
    <contour>
      <point x="453" y="570" type="curve" smooth="yes"/>
      <point x="402" y="570"/>
      <point x="363" y="609"/>
      <point x="363" y="659" type="curve" smooth="yes"/>
      <point x="363" y="708"/>
      <point x="403" y="748"/>
      <point x="453" y="748" type="curve" smooth="yes"/>
      <point x="505" y="748"/>
      <point x="545" y="708"/>
      <point x="545" y="659" type="curve" smooth="yes"/>
      <point x="545" y="610"/>
      <point x="505" y="570"/>
    </contour>
    <contour>
      <point x="324" y="412" type="curve" smooth="yes"/>
      <point x="283" y="412"/>
      <point x="244" y="387"/>
      <point x="225" y="321" type="curve"/>
      <point x="395" y="321" type="line"/>
      <point x="400" y="374"/>
      <point x="381" y="412"/>
    </contour>
  </outline>
</glyph>
<glyph name="icircumflex" format="2">
  <advance width="303"/>
  <unicode hex="00EE"/>
  <outline>
    <contour>
      <point x="8" y="580" type="line"/>
      <point x="155" y="746" type="line"/>
      <point x="292" y="746" type="line"/>
      <point x="391" y="580" type="line"/>
      <point x="259" y="580" type="line"/>
      <point x="210" y="633" type="line"/>
      <point x="147" y="580" type="line"/>
    </contour>
    <contour>
      <point x="11" y="0" type="line"/>
      <point x="93" y="523" type="line"/>
      <point x="290" y="523" type="line"/>
      <point x="207" y="0" type="line"/>
    </contour>
  </outline>
</glyph>
<glyph name="idieresis" format="2">
  <advance width="303"/>
  <unicode hex="00EF"/>
  <outline>
    <contour>
      <point x="107" y="570" type="curve" smooth="yes"/>
      <point x="57" y="570"/>
      <point x="16" y="609"/>
      <point x="16" y="659" type="curve" smooth="yes"/>
      <point x="16" y="708"/>
      <point x="57" y="748"/>
      <point x="108" y="748" type="curve" smooth="yes"/>
      <point x="158" y="748"/>
      <point x="199" y="708"/>
      <point x="199" y="659" type="curve" smooth="yes"/>
      <point x="199" y="610"/>
      <point x="158" y="570"/>
    </contour>
    <contour>
      <point x="322" y="570" type="curve" smooth="yes"/>
      <point x="271" y="570"/>
      <point x="232" y="609"/>
      <point x="232" y="659" type="curve" smooth="yes"/>
      <point x="232" y="708"/>
      <point x="271" y="748"/>
      <point x="322" y="748" type="curve" smooth="yes"/>
      <point x="374" y="748"/>
      <point x="414" y="708"/>
      <point x="414" y="659" type="curve" smooth="yes"/>
      <point x="414" y="610"/>
      <point x="374" y="570"/>
    </contour>
    <contour>
      <point x="11" y="0" type="line"/>
      <point x="93" y="523" type="line"/>
      <point x="290" y="523" type="line"/>
      <point x="207" y="0" type="line"/>
    </contour>
  </outline>
</glyph>
<glyph name="eth" format="2">
  <advance width="625"/>
  <unicode hex="00F0"/>
  <outline>
    <contour>
      <point x="157" y="556" type="line"/>
      <point x="138" y="618" type="line"/>
      <point x="257" y="657" type="line"/>
      <point x="220" y="691"/>
      <point x="181" y="722"/>
      <point x="146" y="749" type="curve"/>
      <point x="376" y="749" type="line"/>
      <point x="393" y="739"/>
      <point x="410" y="726"/>
      <point x="427" y="712" type="curve"/>
      <point x="541" y="749" type="line"/>
      <point x="559" y="686" type="line"/>
      <point x="480" y="660" type="line"/>
      <point x="548" y="584"/>
      <point x="605" y="474"/>
      <point x="605" y="341" type="curve" smooth="yes"/>
      <point x="605" y="145"/>
      <point x="506" y="-13"/>
      <point x="294" y="-13" type="curve" smooth="yes"/>
      <point x="139" y="-13"/>
      <point x="21" y="68"/>
      <point x="21" y="233" type="curve" smooth="yes"/>
      <point x="21" y="393"/>
      <point x="118" y="529"/>
      <point x="278" y="529" type="curve" smooth="yes"/>
      <point x="326" y="529"/>
      <point x="361" y="516"/>
      <point x="391" y="482" type="curve"/>
      <point x="370" y="526"/>
      <point x="342" y="567"/>
      <point x="308" y="605" type="curve"/>
    </contour>
    <contour>
      <point x="217" y="223" type="curve" smooth="yes"/>
      <point x="217" y="173"/>
      <point x="239" y="132"/>
      <point x="299" y="132" type="curve" smooth="yes"/>
      <point x="376" y="132"/>
      <point x="405" y="223"/>
      <point x="405" y="302" type="curve" smooth="yes"/>
      <point x="405" y="352"/>
      <point x="382" y="392"/>
      <point x="324" y="392" type="curve" smooth="yes"/>
      <point x="250" y="392"/>
      <point x="217" y="315"/>
    </contour>
  </outline>
</glyph>
<glyph name="oacute" format="2">
  <advance width="620"/>
  <unicode hex="00F3"/>
  <outline>
    <contour>
      <point x="259" y="578" type="line"/>
      <point x="332" y="747" type="line"/>
      <point x="526" y="747" type="line"/>
      <point x="401" y="578" type="line"/>
    </contour>
    <contour>
      <point x="294" y="-13" type="curve" smooth="yes"/>
      <point x="153" y="-13"/>
      <point x="22" y="61"/>
      <point x="22" y="227" type="curve" smooth="yes"/>
      <point x="21" y="406"/>
      <point x="147" y="537"/>
      <point x="328" y="537" type="curve" smooth="yes"/>
      <point x="469" y="537"/>
      <point x="600" y="462"/>
      <point x="600" y="294" type="curve" smooth="yes"/>
      <point x="600" y="112"/>
      <point x="475" y="-13"/>
    </contour>
    <contour>
      <point x="297" y="132" type="curve" smooth="yes"/>
      <point x="369" y="132"/>
      <point x="402" y="206"/>
      <point x="402" y="303" type="curve" smooth="yes"/>
      <point x="402" y="352"/>
      <point x="379" y="392"/>
      <point x="325" y="392" type="curve" smooth="yes"/>
      <point x="253" y="392"/>
      <point x="218" y="321"/>
      <point x="218" y="226" type="curve" smooth="yes"/>
      <point x="218" y="180"/>
      <point x="235" y="132"/>
    </contour>
  </outline>
</glyph>
<glyph name="otilde" format="2">
  <advance width="620"/>
  <unicode hex="00F5"/>
  <outline>
    <contour>
      <point x="294" y="-13" type="curve" smooth="yes"/>
      <point x="153" y="-13"/>
      <point x="22" y="61"/>
      <point x="22" y="227" type="curve" smooth="yes"/>
      <point x="21" y="406"/>
      <point x="147" y="537"/>
      <point x="328" y="537" type="curve" smooth="yes"/>
      <point x="469" y="537"/>
      <point x="600" y="462"/>
      <point x="600" y="294" type="curve" smooth="yes"/>
      <point x="600" y="112"/>
      <point x="475" y="-13"/>
    </contour>
    <contour>
      <point x="297" y="132" type="curve" smooth="yes"/>
      <point x="369" y="132"/>
      <point x="402" y="206"/>
      <point x="402" y="303" type="curve" smooth="yes"/>
      <point x="402" y="352"/>
      <point x="379" y="392"/>
      <point x="325" y="392" type="curve" smooth="yes"/>
      <point x="253" y="392"/>
      <point x="218" y="321"/>
      <point x="218" y="226" type="curve" smooth="yes"/>
      <point x="218" y="180"/>
      <point x="235" y="132"/>
    </contour>
    <contour>
      <point x="410" y="581" type="curve" smooth="yes"/>
      <point x="351" y="581"/>
      <point x="323" y="613"/>
      <point x="292" y="613" type="curve" smooth="yes"/>
      <point x="276" y="613"/>
      <point x="264" y="601"/>
      <point x="259" y="583" type="curve"/>
      <point x="156" y="583" type="line"/>
      <point x="173" y="694"/>
      <point x="223" y="745"/>
      <point x="288" y="745" type="curve" smooth="yes"/>
      <point x="344" y="745"/>
      <point x="375" y="713"/>
      <point x="409" y="713" type="curve" smooth="yes"/>
      <point x="426" y="713"/>
      <point x="436" y="725"/>
      <point x="441" y="744" type="curve"/>
      <point x="545" y="744" type="line"/>
      <point x="527" y="632"/>
      <point x="472" y="581"/>
    </contour>
  </outline>
</glyph>
<glyph name="odieresis" format="2">
  <advance width="620"/>
  <unicode hex="00F6"/>
  <outline>
    <contour>
      <point x="242" y="570" type="curve" smooth="yes"/>
      <point x="191" y="570"/>
      <point x="151" y="609"/>
      <point x="151" y="659" type="curve" smooth="yes"/>
      <point x="151" y="708"/>
      <point x="192" y="748"/>
      <point x="243" y="748" type="curve" smooth="yes"/>
      <point x="293" y="748"/>
      <point x="334" y="708"/>
      <point x="334" y="659" type="curve" smooth="yes"/>
      <point x="334" y="610"/>
      <point x="293" y="570"/>
    </contour>
    <contour>
      <point x="459" y="570" type="curve" smooth="yes"/>
      <point x="408" y="570"/>
      <point x="369" y="609"/>
      <point x="369" y="659" type="curve" smooth="yes"/>
      <point x="369" y="708"/>
      <point x="409" y="748"/>
      <point x="459" y="748" type="curve" smooth="yes"/>
      <point x="511" y="748"/>
      <point x="551" y="708"/>
      <point x="551" y="659" type="curve" smooth="yes"/>
      <point x="551" y="610"/>
      <point x="511" y="570"/>
    </contour>
    <contour>
      <point x="294" y="-13" type="curve" smooth="yes"/>
      <point x="153" y="-13"/>
      <point x="22" y="61"/>
      <point x="22" y="227" type="curve" smooth="yes"/>
      <point x="21" y="406"/>
      <point x="147" y="537"/>
      <point x="328" y="537" type="curve" smooth="yes"/>
      <point x="469" y="537"/>
      <point x="600" y="462"/>
      <point x="600" y="294" type="curve" smooth="yes"/>
      <point x="600" y="112"/>
      <point x="475" y="-13"/>
    </contour>
    <contour>
      <point x="297" y="132" type="curve" smooth="yes"/>
      <point x="369" y="132"/>
      <point x="402" y="206"/>
      <point x="402" y="303" type="curve" smooth="yes"/>
      <point x="402" y="352"/>
      <point x="379" y="392"/>
      <point x="325" y="392" type="curve" smooth="yes"/>
      <point x="253" y="392"/>
      <point x="218" y="321"/>
      <point x="218" y="226" type="curve" smooth="yes"/>
      <point x="218" y="180"/>
      <point x="235" y="132"/>
    </contour>
  </outline>
</glyph>
<glyph name="divide" format="2">
  <advance width="582"/>
  <unicode hex="00F7"/>
  <outline>
    <contour>
      <point x="38" y="273" type="line"/>
      <point x="59" y="407" type="line"/>
      <point x="566" y="407" type="line"/>
      <point x="545" y="273" type="line"/>
    </contour>
    <contour>
      <point x="277" y="34" type="curve" smooth="yes"/>
      <point x="220" y="34"/>
      <point x="178" y="77"/>
      <point x="178" y="132" type="curve" smooth="yes"/>
      <point x="178" y="186"/>
      <point x="220" y="229"/>
      <point x="277" y="229" type="curve" smooth="yes"/>
      <point x="335" y="229"/>
      <point x="379" y="186"/>
      <point x="379" y="132" type="curve" smooth="yes"/>
      <point x="379" y="77"/>
      <point x="336" y="34"/>
    </contour>
    <contour>
      <point x="325" y="450" type="curve" smooth="yes"/>
      <point x="268" y="450"/>
      <point x="226" y="493"/>
      <point x="226" y="547" type="curve" smooth="yes"/>
      <point x="226" y="601"/>
      <point x="268" y="645"/>
      <point x="325" y="645" type="curve" smooth="yes"/>
      <point x="383" y="645"/>
      <point x="427" y="601"/>
      <point x="427" y="547" type="curve" smooth="yes"/>
      <point x="427" y="493"/>
      <point x="384" y="450"/>
    </contour>
  </outline>
</glyph>
<glyph name="ucircumflex" format="2">
  <advance width="627"/>
  <unicode hex="00FB"/>
  <outline>
    <contour>
      <point x="157" y="580" type="line"/>
      <point x="304" y="746" type="line"/>
      <point x="441" y="746" type="line"/>
      <point x="540" y="580" type="line"/>
      <point x="408" y="580" type="line"/>
      <point x="359" y="633" type="line"/>
      <point x="296" y="580" type="line"/>
    </contour>
    <contour>
      <point x="617" y="523" type="line"/>
      <point x="561" y="164" type="line" smooth="yes"/>
      <point x="550" y="95"/>
      <point x="546" y="44"/>
      <point x="548" y="0" type="curve"/>
      <point x="356" y="0" type="line"/>
      <point x="354" y="23"/>
      <point x="354" y="55"/>
      <point x="356" y="84" type="curve"/>
      <point x="317" y="28"/>
      <point x="266" y="-13"/>
      <point x="186" y="-13" type="curve" smooth="yes"/>
      <point x="82" y="-13"/>
      <point x="8" y="51"/>
      <point x="33" y="208" type="curve" smooth="yes"/>
      <point x="83" y="523" type="line"/>
      <point x="280" y="523" type="line"/>
      <point x="231" y="215" type="line" smooth="yes"/>
      <point x="223" y="161"/>
      <point x="240" y="132"/>
      <point x="283" y="132" type="curve" smooth="yes"/>
      <point x="333" y="132"/>
      <point x="364" y="163"/>
      <point x="374" y="226" type="curve" smooth="yes"/>
      <point x="421" y="523" type="line"/>
    </contour>
  </outline>
</glyph>
<glyph name="udieresis" format="2">
  <advance width="627"/>
  <unicode hex="00FC"/>
  <outline>
    <contour>
      <point x="251" y="570" type="curve" smooth="yes"/>
      <point x="200" y="570"/>
      <point x="160" y="609"/>
      <point x="160" y="659" type="curve" smooth="yes"/>
      <point x="160" y="708"/>
      <point x="201" y="748"/>
      <point x="252" y="748" type="curve" smooth="yes"/>
      <point x="302" y="748"/>
      <point x="343" y="708"/>
      <point x="343" y="659" type="curve" smooth="yes"/>
      <point x="343" y="610"/>
      <point x="302" y="570"/>
    </contour>
    <contour>
      <point x="468" y="570" type="curve" smooth="yes"/>
      <point x="417" y="570"/>
      <point x="378" y="609"/>
      <point x="378" y="659" type="curve" smooth="yes"/>
      <point x="378" y="708"/>
      <point x="418" y="748"/>
      <point x="468" y="748" type="curve" smooth="yes"/>
      <point x="520" y="748"/>
      <point x="560" y="708"/>
      <point x="560" y="659" type="curve" smooth="yes"/>
      <point x="560" y="610"/>
      <point x="520" y="570"/>
    </contour>
    <contour>
      <point x="617" y="523" type="line"/>
      <point x="561" y="164" type="line" smooth="yes"/>
      <point x="550" y="95"/>
      <point x="546" y="44"/>
      <point x="548" y="0" type="curve"/>
      <point x="356" y="0" type="line"/>
      <point x="354" y="23"/>
      <point x="354" y="55"/>
      <point x="356" y="84" type="curve"/>
      <point x="317" y="28"/>
      <point x="266" y="-13"/>
      <point x="186" y="-13" type="curve" smooth="yes"/>
      <point x="82" y="-13"/>
      <point x="8" y="51"/>
      <point x="33" y="208" type="curve" smooth="yes"/>
      <point x="83" y="523" type="line"/>
      <point x="280" y="523" type="line"/>
      <point x="231" y="215" type="line" smooth="yes"/>
      <point x="223" y="161"/>
      <point x="240" y="132"/>
      <point x="283" y="132" type="curve" smooth="yes"/>
      <point x="333" y="132"/>
      <point x="364" y="163"/>
      <point x="374" y="226" type="curve" smooth="yes"/>
      <point x="421" y="523" type="line"/>
    </contour>
  </outline>
</glyph>
<glyph name="yacute" format="2">
  <advance width="590"/>
  <unicode hex="00FD"/>
  <outline>
    <contour>
      <point x="46" y="-174" type="line"/>
      <point x="172" y="59" type="line"/>
      <point x="44" y="523" type="line"/>
      <point x="248" y="523" type="line"/>
      <point x="302" y="260" type="line"/>
      <point x="432" y="523" type="line"/>
      <point x="627" y="523" type="line"/>
      <point x="242" y="-174" type="line"/>
    </contour>
    <contour>
      <point x="273" y="578" type="line"/>
      <point x="346" y="747" type="line"/>
      <point x="540" y="747" type="line"/>
      <point x="415" y="578" type="line"/>
    </contour>
  </outline>
</glyph>
<glyph name="thorn" format="2">
  <advance width="647"/>
  <unicode hex="00FE"/>
  <outline>
    <contour>
      <point x="-23" y="-174" type="line"/>
      <point x="123" y="750" type="line"/>
      <point x="320" y="750" type="line"/>
      <point x="272" y="442" type="line"/>
      <point x="306" y="499"/>
      <point x="365" y="537"/>
      <point x="446" y="537" type="curve" smooth="yes"/>
      <point x="546" y="537"/>
      <point x="626" y="462"/>
      <point x="626" y="312" type="curve" smooth="yes"/>
      <point x="626" y="106"/>
      <point x="519" y="-13"/>
      <point x="375" y="-13" type="curve" smooth="yes"/>
      <point x="295" y="-13"/>
      <point x="234" y="27"/>
      <point x="216" y="85" type="curve"/>
      <point x="174" y="-174" type="line"/>
    </contour>
    <contour>
      <point x="316" y="135" type="curve" smooth="yes"/>
      <point x="380" y="135"/>
      <point x="424" y="200"/>
      <point x="424" y="298" type="curve" smooth="yes"/>
      <point x="424" y="359"/>
      <point x="397" y="393"/>
      <point x="348" y="393" type="curve" smooth="yes"/>
      <point x="282" y="393"/>
      <point x="236" y="324"/>
      <point x="236" y="230" type="curve" smooth="yes"/>
      <point x="236" y="169"/>
      <point x="264" y="135"/>
    </contour>
  </outline>
</glyph>
<glyph name="ydieresis" format="2">
  <advance width="590"/>
  <unicode hex="00FF"/>
  <outline>
    <contour>
      <point x="46" y="-174" type="line"/>
      <point x="172" y="59" type="line"/>
      <point x="44" y="523" type="line"/>
      <point x="248" y="523" type="line"/>
      <point x="302" y="260" type="line"/>
      <point x="432" y="523" type="line"/>
      <point x="627" y="523" type="line"/>
      <point x="242" y="-174" type="line"/>
    </contour>
    <contour>
      <point x="247" y="570" type="curve" smooth="yes"/>
      <point x="196" y="570"/>
      <point x="156" y="609"/>
      <point x="156" y="659" type="curve" smooth="yes"/>
      <point x="156" y="708"/>
      <point x="197" y="748"/>
      <point x="248" y="748" type="curve" smooth="yes"/>
      <point x="298" y="748"/>
      <point x="339" y="708"/>
      <point x="339" y="659" type="curve" smooth="yes"/>
      <point x="339" y="610"/>
      <point x="298" y="570"/>
    </contour>
    <contour>
      <point x="464" y="570" type="curve" smooth="yes"/>
      <point x="413" y="570"/>
      <point x="374" y="609"/>
      <point x="374" y="659" type="curve" smooth="yes"/>
      <point x="374" y="708"/>
      <point x="414" y="748"/>
      <point x="464" y="748" type="curve" smooth="yes"/>
      <point x="516" y="748"/>
      <point x="556" y="708"/>
      <point x="556" y="659" type="curve" smooth="yes"/>
      <point x="556" y="610"/>
      <point x="516" y="570"/>
    </contour>
  </outline>
</glyph>
<glyph name="Abreve" format="2">
  <advance width="755"/>
  <unicode hex="0102"/>
  <outline>
    <contour>
      <point x="471" y="0" type="line"/>
      <point x="457" y="119" type="line"/>
      <point x="232" y="119" type="line"/>
      <point x="181" y="0" type="line"/>
      <point x="-36" y="0" type="line"/>
      <point x="303" y="715" type="line"/>
      <point x="595" y="715" type="line"/>
      <point x="706" y="0" type="line"/>
    </contour>
    <contour>
      <point x="459" y="749" type="curve" smooth="yes"/>
      <point x="350" y="749"/>
      <point x="293" y="810"/>
      <point x="292" y="906" type="curve"/>
      <point x="416" y="906" type="line"/>
      <point x="418" y="880"/>
      <point x="432" y="864"/>
      <point x="461" y="864" type="curve" smooth="yes"/>
      <point x="488" y="864"/>
      <point x="505" y="878"/>
      <point x="510" y="906" type="curve"/>
      <point x="635" y="906" type="line"/>
      <point x="620" y="805"/>
      <point x="553" y="749"/>
    </contour>
    <contour>
      <point x="411" y="532" type="line"/>
      <point x="299" y="273" type="line"/>
      <point x="440" y="273" type="line"/>
    </contour>
  </outline>
</glyph>
<glyph name="Aogonek" format="2">
  <advance width="755"/>
  <unicode hex="0104"/>
  <outline>
    <contour>
      <point x="471" y="0" type="line"/>
      <point x="457" y="119" type="line"/>
      <point x="232" y="119" type="line"/>
      <point x="181" y="0" type="line"/>
      <point x="-36" y="0" type="line"/>
      <point x="303" y="715" type="line"/>
      <point x="595" y="715" type="line"/>
      <point x="705" y="11" type="line"/>
      <point x="669" y="-13"/>
      <point x="643" y="-36"/>
      <point x="643" y="-63" type="curve" smooth="yes"/>
      <point x="643" y="-78"/>
      <point x="654" y="-85"/>
      <point x="671" y="-85" type="curve" smooth="yes"/>
      <point x="680" y="-85"/>
      <point x="689" y="-84"/>
      <point x="696" y="-82" type="curve"/>
      <point x="682" y="-167" type="line"/>
      <point x="665" y="-174"/>
      <point x="639" y="-182"/>
      <point x="601" y="-182" type="curve" smooth="yes"/>
      <point x="543" y="-182"/>
      <point x="486" y="-164"/>
      <point x="486" y="-103" type="curve" smooth="yes"/>
      <point x="486" y="-49"/>
      <point x="539" y="-15"/>
      <point x="584" y="0" type="curve"/>
    </contour>
    <contour>
      <point x="411" y="532" type="line"/>
      <point x="299" y="273" type="line"/>
      <point x="440" y="273" type="line"/>
    </contour>
  </outline>
</glyph>
<glyph name="ccircumflex" format="2">
  <advance width="584"/>
  <unicode hex="0109"/>
  <outline>
    <contour>
      <point x="132" y="580" type="line"/>
      <point x="279" y="746" type="line"/>
      <point x="416" y="746" type="line"/>
      <point x="515" y="580" type="line"/>
      <point x="383" y="580" type="line"/>
      <point x="334" y="633" type="line"/>
      <point x="271" y="580" type="line"/>
    </contour>
    <contour>
      <point x="291" y="-12" type="curve" smooth="yes"/>
      <point x="138" y="-12"/>
      <point x="21" y="69"/>
      <point x="21" y="228" type="curve" smooth="yes"/>
      <point x="21" y="414"/>
      <point x="142" y="537"/>
      <point x="319" y="537" type="curve" smooth="yes"/>
      <point x="459" y="537"/>
      <point x="565" y="472"/>
      <point x="570" y="317" type="curve"/>
      <point x="386" y="317" type="line"/>
      <point x="382" y="364"/>
      <point x="360" y="386"/>
      <point x="315" y="386" type="curve" smooth="yes"/>
      <point x="244" y="386"/>
      <point x="218" y="308"/>
      <point x="218" y="226" type="curve" smooth="yes"/>
      <point x="218" y="168"/>
      <point x="240" y="129"/>
      <point x="298" y="129" type="curve" smooth="yes"/>
      <point x="343" y="129"/>
      <point x="374" y="156"/>
      <point x="384" y="209" type="curve"/>
      <point x="560" y="209" type="line"/>
      <point x="543" y="67"/>
      <point x="447" y="-12"/>
    </contour>
  </outline>
</glyph>
<glyph name="cdotaccent" format="2">
  <advance width="584"/>
  <unicode hex="010B"/>
  <outline>
    <contour>
      <point x="291" y="-12" type="curve" smooth="yes"/>
      <point x="138" y="-12"/>
      <point x="21" y="69"/>
      <point x="21" y="228" type="curve" smooth="yes"/>
      <point x="21" y="414"/>
      <point x="142" y="537"/>
      <point x="319" y="537" type="curve" smooth="yes"/>
      <point x="459" y="537"/>
      <point x="565" y="472"/>
      <point x="570" y="317" type="curve"/>
      <point x="386" y="317" type="line"/>
      <point x="382" y="364"/>
      <point x="360" y="386"/>
      <point x="315" y="386" type="curve" smooth="yes"/>
      <point x="244" y="386"/>
      <point x="218" y="308"/>
      <point x="218" y="226" type="curve" smooth="yes"/>
      <point x="218" y="168"/>
      <point x="240" y="129"/>
      <point x="298" y="129" type="curve" smooth="yes"/>
      <point x="343" y="129"/>
      <point x="374" y="156"/>
      <point x="384" y="209" type="curve"/>
      <point x="560" y="209" type="line"/>
      <point x="543" y="67"/>
      <point x="447" y="-12"/>
    </contour>
    <contour>
      <point x="334" y="569" type="curve" smooth="yes"/>
      <point x="275" y="569"/>
      <point x="231" y="608"/>
      <point x="231" y="663" type="curve" smooth="yes"/>
      <point x="231" y="718"/>
      <point x="276" y="759"/>
      <point x="334" y="759" type="curve" smooth="yes"/>
      <point x="392" y="759"/>
      <point x="437" y="719"/>
      <point x="437" y="664" type="curve" smooth="yes"/>
      <point x="437" y="609"/>
      <point x="392" y="569"/>
    </contour>
  </outline>
</glyph>
<glyph name="Dcaron" format="2">
  <advance width="757"/>
  <unicode hex="010E"/>
  <outline>
    <contour>
      <point x="624" y="906" type="line"/>
      <point x="491" y="757" type="line"/>
      <point x="327" y="757" type="line"/>
      <point x="235" y="906" type="line"/>
      <point x="372" y="906" type="line"/>
      <point x="420" y="859" type="line"/>
      <point x="479" y="906" type="line"/>
    </contour>
    <contour>
      <point x="23" y="0" type="line"/>
      <point x="136" y="715" type="line"/>
      <point x="378" y="715" type="line" smooth="yes"/>
      <point x="622" y="715"/>
      <point x="747" y="602"/>
      <point x="747" y="411" type="curve" smooth="yes"/>
      <point x="747" y="143"/>
      <point x="576" y="0"/>
      <point x="329" y="0" type="curve" smooth="yes"/>
    </contour>
    <contour>
      <point x="277" y="172" type="line"/>
      <point x="330" y="172" type="line" smooth="yes"/>
      <point x="448" y="172"/>
      <point x="512" y="254"/>
      <point x="512" y="401" type="curve" smooth="yes"/>
      <point x="512" y="494"/>
      <point x="467" y="543"/>
      <point x="373" y="543" type="curve" smooth="yes"/>
      <point x="336" y="543" type="line"/>
    </contour>
  </outline>
</glyph>
<glyph name="dcroat" format="2">
  <advance width="645"/>
  <unicode hex="0111"/>
  <outline>
    <contour>
      <point x="300" y="582" type="line"/>
      <point x="316" y="684" type="line"/>
      <point x="466" y="684" type="line"/>
      <point x="477" y="749" type="line"/>
      <point x="675" y="749" type="line"/>
      <point x="664" y="684" type="line"/>
      <point x="717" y="684" type="line"/>
      <point x="701" y="582" type="line"/>
      <point x="648" y="582" type="line"/>
      <point x="582" y="164" type="line" smooth="yes"/>
      <point x="571" y="95"/>
      <point x="567" y="44"/>
      <point x="571" y="0" type="curve"/>
      <point x="377" y="0" type="line"/>
      <point x="372" y="22"/>
      <point x="373" y="52"/>
      <point x="374" y="81" type="curve"/>
      <point x="335" y="19"/>
      <point x="284" y="-13"/>
      <point x="206" y="-13" type="curve" smooth="yes"/>
      <point x="97" y="-13"/>
      <point x="18" y="63"/>
      <point x="18" y="214" type="curve" smooth="yes"/>
      <point x="18" y="420"/>
      <point x="130" y="538"/>
      <point x="278" y="538" type="curve" smooth="yes"/>
      <point x="354" y="538"/>
      <point x="407" y="505"/>
      <point x="430" y="450" type="curve"/>
      <point x="450" y="582" type="line"/>
    </contour>
    <contour>
      <point x="329" y="393" type="curve" smooth="yes"/>
      <point x="265" y="393"/>
      <point x="220" y="328"/>
      <point x="220" y="230" type="curve" smooth="yes"/>
      <point x="220" y="169"/>
      <point x="246" y="133"/>
      <point x="297" y="133" type="curve" smooth="yes"/>
      <point x="362" y="133"/>
      <point x="408" y="202"/>
      <point x="408" y="298" type="curve" smooth="yes"/>
      <point x="408" y="359"/>
      <point x="379" y="393"/>
    </contour>
  </outline>
</glyph>
<glyph name="emacron" format="2">
  <advance width="602"/>
  <unicode hex="0113"/>
  <outline>
    <contour>
      <point x="213" y="217" type="line" smooth="yes"/>
      <point x="213" y="163"/>
      <point x="236" y="119"/>
      <point x="302" y="119" type="curve" smooth="yes"/>
      <point x="351" y="119"/>
      <point x="376" y="143"/>
      <point x="386" y="177" type="curve"/>
      <point x="571" y="177" type="line"/>
      <point x="546" y="54"/>
      <point x="443" y="-13"/>
      <point x="297" y="-13" type="curve" smooth="yes"/>
      <point x="145" y="-13"/>
      <point x="21" y="60"/>
      <point x="21" y="227" type="curve" smooth="yes"/>
      <point x="21" y="414"/>
      <point x="150" y="538"/>
      <point x="325" y="538" type="curve" smooth="yes"/>
      <point x="500" y="538"/>
      <point x="605" y="428"/>
      <point x="576" y="241" type="curve"/>
      <point x="573" y="218" type="line"/>
      <point x="213" y="218" type="line"/>
    </contour>
    <contour>
      <point x="183" y="605" type="line"/>
      <point x="200" y="712" type="line"/>
      <point x="516" y="712" type="line"/>
      <point x="499" y="605" type="line"/>
    </contour>
    <contour>
      <point x="324" y="412" type="curve" smooth="yes"/>
      <point x="283" y="412"/>
      <point x="244" y="387"/>
      <point x="225" y="321" type="curve"/>
      <point x="395" y="321" type="line"/>
      <point x="400" y="374"/>
      <point x="381" y="412"/>
    </contour>
  </outline>
</glyph>
<glyph name="Ebreve" format="2">
  <advance width="621"/>
  <unicode hex="0114"/>
  <outline>
    <contour>
      <point x="23" y="0" type="line"/>
      <point x="136" y="715" type="line"/>
      <point x="643" y="715" type="line"/>
      <point x="616" y="541" type="line"/>
      <point x="334" y="541" type="line"/>
      <point x="318" y="440" type="line"/>
      <point x="542" y="440" type="line"/>
      <point x="518" y="282" type="line"/>
      <point x="294" y="282" type="line"/>
      <point x="276" y="174" type="line"/>
      <point x="574" y="174" type="line"/>
      <point x="547" y="0" type="line"/>
    </contour>
    <contour>
      <point x="399" y="749" type="curve" smooth="yes"/>
      <point x="290" y="749"/>
      <point x="233" y="810"/>
      <point x="232" y="906" type="curve"/>
      <point x="356" y="906" type="line"/>
      <point x="358" y="880"/>
      <point x="372" y="864"/>
      <point x="401" y="864" type="curve" smooth="yes"/>
      <point x="428" y="864"/>
      <point x="445" y="878"/>
      <point x="450" y="906" type="curve"/>
      <point x="575" y="906" type="line"/>
      <point x="560" y="805"/>
      <point x="493" y="749"/>
    </contour>
  </outline>
</glyph>
<glyph name="ebreve" format="2">
  <advance width="602"/>
  <unicode hex="0115"/>
  <outline>
    <contour>
      <point x="213" y="217" type="line" smooth="yes"/>
      <point x="213" y="163"/>
      <point x="236" y="119"/>
      <point x="302" y="119" type="curve" smooth="yes"/>
      <point x="351" y="119"/>
      <point x="376" y="143"/>
      <point x="386" y="177" type="curve"/>
      <point x="571" y="177" type="line"/>
      <point x="546" y="54"/>
      <point x="443" y="-13"/>
      <point x="297" y="-13" type="curve" smooth="yes"/>
      <point x="145" y="-13"/>
      <point x="21" y="60"/>
      <point x="21" y="227" type="curve" smooth="yes"/>
      <point x="21" y="414"/>
      <point x="150" y="538"/>
      <point x="325" y="538" type="curve" smooth="yes"/>
      <point x="500" y="538"/>
      <point x="605" y="428"/>
      <point x="576" y="241" type="curve"/>
      <point x="573" y="218" type="line"/>
      <point x="213" y="218" type="line"/>
    </contour>
    <contour>
      <point x="345" y="581" type="curve" smooth="yes"/>
      <point x="241" y="581"/>
      <point x="177" y="641"/>
      <point x="181" y="744" type="curve"/>
      <point x="299" y="744" type="line"/>
      <point x="301" y="715"/>
      <point x="316" y="699"/>
      <point x="347" y="699" type="curve" smooth="yes"/>
      <point x="376" y="699"/>
      <point x="395" y="715"/>
      <point x="399" y="744" type="curve"/>
      <point x="519" y="744" type="line"/>
      <point x="505" y="638"/>
      <point x="440" y="581"/>
    </contour>
    <contour>
      <point x="324" y="412" type="curve" smooth="yes"/>
      <point x="283" y="412"/>
      <point x="244" y="387"/>
      <point x="225" y="321" type="curve"/>
      <point x="395" y="321" type="line"/>
      <point x="400" y="374"/>
      <point x="381" y="412"/>
    </contour>
  </outline>
</glyph>
<glyph name="Edotaccent" format="2">
  <advance width="621"/>
  <unicode hex="0116"/>
  <outline>
    <contour>
      <point x="396" y="752" type="curve" smooth="yes"/>
      <point x="337" y="752"/>
      <point x="293" y="792"/>
      <point x="293" y="846" type="curve" smooth="yes"/>
      <point x="293" y="901"/>
      <point x="338" y="942"/>
      <point x="396" y="942" type="curve" smooth="yes"/>
      <point x="454" y="942"/>
      <point x="499" y="902"/>
      <point x="499" y="847" type="curve" smooth="yes"/>
      <point x="499" y="792"/>
      <point x="454" y="752"/>
    </contour>
    <contour>
      <point x="23" y="0" type="line"/>
      <point x="136" y="715" type="line"/>
      <point x="643" y="715" type="line"/>
      <point x="616" y="541" type="line"/>
      <point x="334" y="541" type="line"/>
      <point x="318" y="440" type="line"/>
      <point x="542" y="440" type="line"/>
      <point x="518" y="282" type="line"/>
      <point x="294" y="282" type="line"/>
      <point x="276" y="174" type="line"/>
      <point x="574" y="174" type="line"/>
      <point x="547" y="0" type="line"/>
    </contour>
  </outline>
</glyph>
<glyph name="edotaccent" format="2">
  <advance width="602"/>
  <unicode hex="0117"/>
  <outline>
    <contour>
      <point x="213" y="217" type="line" smooth="yes"/>
      <point x="213" y="163"/>
      <point x="236" y="119"/>
      <point x="302" y="119" type="curve" smooth="yes"/>
      <point x="351" y="119"/>
      <point x="376" y="143"/>
      <point x="386" y="177" type="curve"/>
      <point x="571" y="177" type="line"/>
      <point x="546" y="54"/>
      <point x="443" y="-13"/>
      <point x="297" y="-13" type="curve" smooth="yes"/>
      <point x="145" y="-13"/>
      <point x="21" y="60"/>
      <point x="21" y="227" type="curve" smooth="yes"/>
      <point x="21" y="414"/>
      <point x="150" y="538"/>
      <point x="325" y="538" type="curve" smooth="yes"/>
      <point x="500" y="538"/>
      <point x="605" y="428"/>
      <point x="576" y="241" type="curve"/>
      <point x="573" y="218" type="line"/>
      <point x="213" y="218" type="line"/>
    </contour>
    <contour>
      <point x="341" y="569" type="curve" smooth="yes"/>
      <point x="282" y="569"/>
      <point x="238" y="608"/>
      <point x="238" y="663" type="curve" smooth="yes"/>
      <point x="238" y="718"/>
      <point x="283" y="759"/>
      <point x="341" y="759" type="curve" smooth="yes"/>
      <point x="399" y="759"/>
      <point x="444" y="719"/>
      <point x="444" y="664" type="curve" smooth="yes"/>
      <point x="444" y="609"/>
      <point x="399" y="569"/>
    </contour>
    <contour>
      <point x="324" y="412" type="curve" smooth="yes"/>
      <point x="283" y="412"/>
      <point x="244" y="387"/>
      <point x="225" y="321" type="curve"/>
      <point x="395" y="321" type="line"/>
      <point x="400" y="374"/>
      <point x="381" y="412"/>
    </contour>
  </outline>
</glyph>
<glyph name="Eogonek" format="2">
  <advance width="621"/>
  <unicode hex="0118"/>
  <outline>
    <contour>
      <point x="23" y="0" type="line"/>
      <point x="136" y="715" type="line"/>
      <point x="643" y="715" type="line"/>
      <point x="616" y="541" type="line"/>
      <point x="334" y="541" type="line"/>
      <point x="318" y="440" type="line"/>
      <point x="542" y="440" type="line"/>
      <point x="518" y="282" type="line"/>
      <point x="294" y="282" type="line"/>
      <point x="276" y="174" type="line"/>
      <point x="574" y="174" type="line"/>
      <point x="547" y="0" type="line"/>
      <point x="509" y="0" type="line"/>
      <point x="490" y="-14"/>
      <point x="462" y="-36"/>
      <point x="462" y="-63" type="curve" smooth="yes"/>
      <point x="462" y="-78"/>
      <point x="472" y="-85"/>
      <point x="489" y="-85" type="curve" smooth="yes"/>
      <point x="498" y="-85"/>
      <point x="507" y="-84"/>
      <point x="514" y="-82" type="curve"/>
      <point x="500" y="-167" type="line"/>
      <point x="483" y="-174"/>
      <point x="457" y="-182"/>
      <point x="420" y="-182" type="curve" smooth="yes"/>
      <point x="361" y="-182"/>
      <point x="304" y="-164"/>
      <point x="304" y="-104" type="curve" smooth="yes"/>
      <point x="304" y="-50"/>
      <point x="357" y="-16"/>
      <point x="401" y="0" type="curve"/>
    </contour>
  </outline>
</glyph>
<glyph name="eogonek" format="2">
  <advance width="602"/>
  <unicode hex="0119"/>
  <outline>
    <contour>
      <point x="297" y="-13" type="line" smooth="yes"/>
      <point x="145" y="-13"/>
      <point x="21" y="60"/>
      <point x="21" y="227" type="curve" smooth="yes"/>
      <point x="21" y="414"/>
      <point x="151" y="538"/>
      <point x="325" y="538" type="curve" smooth="yes"/>
      <point x="500" y="538"/>
      <point x="605" y="428"/>
      <point x="576" y="241" type="curve"/>
      <point x="573" y="218" type="line"/>
      <point x="213" y="218" type="line"/>
      <point x="213" y="217" type="line" smooth="yes"/>
      <point x="213" y="163"/>
      <point x="236" y="119"/>
      <point x="302" y="119" type="curve" smooth="yes"/>
      <point x="351" y="119"/>
      <point x="376" y="143"/>
      <point x="386" y="177" type="curve"/>
      <point x="571" y="177" type="line"/>
      <point x="559" y="119"/>
      <point x="533" y="77"/>
      <point x="488" y="41" type="curve" smooth="yes"/>
      <point x="457" y="15"/>
      <point x="384" y="-19"/>
      <point x="384" y="-63" type="curve" smooth="yes"/>
      <point x="384" y="-79"/>
      <point x="395" y="-85"/>
      <point x="412" y="-85" type="curve" smooth="yes"/>
      <point x="421" y="-85"/>
      <point x="430" y="-84"/>
      <point x="437" y="-81" type="curve"/>
      <point x="423" y="-167" type="line"/>
      <point x="406" y="-175"/>
      <point x="381" y="-182"/>
      <point x="342" y="-182" type="curve" smooth="yes"/>
      <point x="284" y="-182"/>
      <point x="227" y="-164"/>
      <point x="227" y="-107" type="curve" smooth="yes"/>
      <point x="227" y="-56"/>
      <point x="272" y="-29"/>
      <point x="311" y="-13" type="curve"/>
    </contour>
    <contour>
      <point x="324" y="412" type="curve" smooth="yes"/>
      <point x="283" y="412"/>
      <point x="244" y="387"/>
      <point x="225" y="321" type="curve"/>
      <point x="395" y="321" type="line"/>
      <point x="400" y="374"/>
      <point x="381" y="412"/>
    </contour>
  </outline>
</glyph>
<glyph name="Ecaron" format="2">
  <advance width="621"/>
  <unicode hex="011A"/>
  <outline>
    <contour>
      <point x="601" y="906" type="line"/>
      <point x="468" y="757" type="line"/>
      <point x="304" y="757" type="line"/>
      <point x="212" y="906" type="line"/>
      <point x="349" y="906" type="line"/>
      <point x="397" y="859" type="line"/>
      <point x="456" y="906" type="line"/>
    </contour>
    <contour>
      <point x="23" y="0" type="line"/>
      <point x="136" y="715" type="line"/>
      <point x="643" y="715" type="line"/>
      <point x="616" y="541" type="line"/>
      <point x="334" y="541" type="line"/>
      <point x="318" y="440" type="line"/>
      <point x="542" y="440" type="line"/>
      <point x="518" y="282" type="line"/>
      <point x="294" y="282" type="line"/>
      <point x="276" y="174" type="line"/>
      <point x="574" y="174" type="line"/>
      <point x="547" y="0" type="line"/>
    </contour>
  </outline>
</glyph>
<glyph name="ecaron" format="2">
  <advance width="602"/>
  <unicode hex="011B"/>
  <outline>
    <contour>
      <point x="213" y="217" type="line" smooth="yes"/>
      <point x="213" y="163"/>
      <point x="236" y="119"/>
      <point x="302" y="119" type="curve" smooth="yes"/>
      <point x="351" y="119"/>
      <point x="376" y="143"/>
      <point x="386" y="177" type="curve"/>
      <point x="571" y="177" type="line"/>
      <point x="546" y="54"/>
      <point x="443" y="-13"/>
      <point x="297" y="-13" type="curve" smooth="yes"/>
      <point x="145" y="-13"/>
      <point x="21" y="60"/>
      <point x="21" y="227" type="curve" smooth="yes"/>
      <point x="21" y="414"/>
      <point x="150" y="538"/>
      <point x="325" y="538" type="curve" smooth="yes"/>
      <point x="500" y="538"/>
      <point x="605" y="428"/>
      <point x="576" y="241" type="curve"/>
      <point x="573" y="218" type="line"/>
      <point x="213" y="218" type="line"/>
    </contour>
    <contour>
      <point x="544" y="746" type="line"/>
      <point x="398" y="580" type="line"/>
      <point x="260" y="580" type="line"/>
      <point x="162" y="746" type="line"/>
      <point x="293" y="746" type="line"/>
      <point x="342" y="694" type="line"/>
      <point x="405" y="746" type="line"/>
    </contour>
    <contour>
      <point x="324" y="412" type="curve" smooth="yes"/>
      <point x="283" y="412"/>
      <point x="244" y="387"/>
      <point x="225" y="321" type="curve"/>
      <point x="395" y="321" type="line"/>
      <point x="400" y="374"/>
      <point x="381" y="412"/>
    </contour>
  </outline>
</glyph>
<glyph name="gcircumflex" format="2">
  <advance width="643"/>
  <unicode hex="011D"/>
  <outline>
    <contour>
      <point x="164" y="580" type="line"/>
      <point x="311" y="746" type="line"/>
      <point x="448" y="746" type="line"/>
      <point x="547" y="580" type="line"/>
      <point x="415" y="580" type="line"/>
      <point x="366" y="633" type="line"/>
      <point x="303" y="580" type="line"/>
    </contour>
    <contour>
      <point x="298" y="168" type="curve" smooth="yes"/>
      <point x="368" y="168"/>
      <point x="407" y="231"/>
      <point x="407" y="309" type="curve" smooth="yes"/>
      <point x="406" y="359"/>
      <point x="378" y="395"/>
      <point x="330" y="395" type="curve" smooth="yes"/>
      <point x="259" y="395"/>
      <point x="225" y="327"/>
      <point x="225" y="260" type="curve" smooth="yes"/>
      <point x="225" y="206"/>
      <point x="249" y="168"/>
    </contour>
    <contour>
      <point x="636" y="523" type="line"/>
      <point x="558" y="31" type="line" smooth="yes"/>
      <point x="534" y="-122"/>
      <point x="452" y="-194"/>
      <point x="265" y="-194" type="curve" smooth="yes"/>
      <point x="70" y="-194"/>
      <point x="-10" y="-105"/>
      <point x="-15" y="4" type="curve"/>
      <point x="180" y="4" type="line"/>
      <point x="184" y="-25"/>
      <point x="204" y="-58"/>
      <point x="262" y="-58" type="curve" smooth="yes"/>
      <point x="332" y="-58"/>
      <point x="354" y="-20"/>
      <point x="361" y="31" type="curve" smooth="yes"/>
      <point x="375" y="113" type="line"/>
      <point x="342" y="61"/>
      <point x="291" y="31"/>
      <point x="216" y="31" type="curve" smooth="yes"/>
      <point x="106" y="31"/>
      <point x="22" y="103"/>
      <point x="22" y="247" type="curve" smooth="yes"/>
      <point x="22" y="421"/>
      <point x="129" y="538"/>
      <point x="276" y="538" type="curve" smooth="yes"/>
      <point x="356" y="538"/>
      <point x="404" y="504"/>
      <point x="427" y="450" type="curve"/>
      <point x="439" y="523" type="line"/>
    </contour>
  </outline>
</glyph>
<glyph name="Gbreve" format="2">
  <advance width="791"/>
  <unicode hex="011E"/>
  <outline>
    <contour>
      <point x="454" y="749" type="curve" smooth="yes"/>
      <point x="345" y="749"/>
      <point x="288" y="810"/>
      <point x="287" y="906" type="curve"/>
      <point x="411" y="906" type="line"/>
      <point x="413" y="880"/>
      <point x="427" y="864"/>
      <point x="456" y="864" type="curve" smooth="yes"/>
      <point x="483" y="864"/>
      <point x="500" y="878"/>
      <point x="505" y="906" type="curve"/>
      <point x="630" y="906" type="line"/>
      <point x="615" y="805"/>
      <point x="548" y="749"/>
    </contour>
    <contour>
      <point x="401" y="-13" type="curve" smooth="yes"/>
      <point x="184" y="-13"/>
      <point x="40" y="96"/>
      <point x="40" y="306" type="curve" smooth="yes"/>
      <point x="40" y="548"/>
      <point x="210" y="726"/>
      <point x="451" y="725" type="curve" smooth="yes"/>
      <point x="623" y="725"/>
      <point x="768" y="650"/>
      <point x="777" y="456" type="curve"/>
      <point x="552" y="456" type="line"/>
      <point x="547" y="515"/>
      <point x="515" y="547"/>
      <point x="442" y="547" type="curve" smooth="yes"/>
      <point x="332" y="547"/>
      <point x="275" y="433"/>
      <point x="275" y="308" type="curve" smooth="yes"/>
      <point x="275" y="215"/>
      <point x="317" y="159"/>
      <point x="410" y="159" type="curve" smooth="yes"/>
      <point x="492" y="159"/>
      <point x="528" y="199"/>
      <point x="540" y="250" type="curve"/>
      <point x="420" y="250" type="line"/>
      <point x="444" y="399" type="line"/>
      <point x="785" y="399" type="line"/>
      <point x="768" y="121"/>
      <point x="655" y="-13"/>
    </contour>
  </outline>
</glyph>
<glyph name="gbreve" format="2">
  <advance width="643"/>
  <unicode hex="011F"/>
  <outline>
    <contour>
      <point x="298" y="168" type="curve" smooth="yes"/>
      <point x="368" y="168"/>
      <point x="407" y="231"/>
      <point x="407" y="309" type="curve" smooth="yes"/>
      <point x="406" y="359"/>
      <point x="378" y="395"/>
      <point x="330" y="395" type="curve" smooth="yes"/>
      <point x="259" y="395"/>
      <point x="225" y="327"/>
      <point x="225" y="260" type="curve" smooth="yes"/>
      <point x="225" y="206"/>
      <point x="249" y="168"/>
    </contour>
    <contour>
      <point x="636" y="523" type="line"/>
      <point x="558" y="31" type="line" smooth="yes"/>
      <point x="534" y="-122"/>
      <point x="452" y="-194"/>
      <point x="265" y="-194" type="curve" smooth="yes"/>
      <point x="70" y="-194"/>
      <point x="-10" y="-105"/>
      <point x="-15" y="4" type="curve"/>
      <point x="180" y="4" type="line"/>
      <point x="184" y="-25"/>
      <point x="204" y="-58"/>
      <point x="262" y="-58" type="curve" smooth="yes"/>
      <point x="332" y="-58"/>
      <point x="354" y="-20"/>
      <point x="361" y="31" type="curve" smooth="yes"/>
      <point x="375" y="113" type="line"/>
      <point x="342" y="61"/>
      <point x="291" y="31"/>
      <point x="216" y="31" type="curve" smooth="yes"/>
      <point x="106" y="31"/>
      <point x="22" y="103"/>
      <point x="22" y="247" type="curve" smooth="yes"/>
      <point x="22" y="421"/>
      <point x="129" y="538"/>
      <point x="276" y="538" type="curve" smooth="yes"/>
      <point x="356" y="538"/>
      <point x="404" y="504"/>
      <point x="427" y="450" type="curve"/>
      <point x="439" y="523" type="line"/>
    </contour>
    <contour>
      <point x="363" y="581" type="curve" smooth="yes"/>
      <point x="259" y="581"/>
      <point x="195" y="641"/>
      <point x="199" y="744" type="curve"/>
      <point x="317" y="744" type="line"/>
      <point x="319" y="715"/>
      <point x="334" y="699"/>
      <point x="365" y="699" type="curve" smooth="yes"/>
      <point x="394" y="699"/>
      <point x="413" y="715"/>
      <point x="417" y="744" type="curve"/>
      <point x="537" y="744" type="line"/>
      <point x="523" y="638"/>
      <point x="458" y="581"/>
    </contour>
  </outline>
</glyph>
<glyph name="Gdotaccent" format="2">
  <advance width="791"/>
  <unicode hex="0120"/>
  <outline>
    <contour>
      <point x="451" y="752" type="curve" smooth="yes"/>
      <point x="392" y="752"/>
      <point x="348" y="792"/>
      <point x="348" y="846" type="curve" smooth="yes"/>
      <point x="348" y="901"/>
      <point x="393" y="942"/>
      <point x="451" y="942" type="curve" smooth="yes"/>
      <point x="509" y="942"/>
      <point x="554" y="902"/>
      <point x="554" y="847" type="curve" smooth="yes"/>
      <point x="554" y="792"/>
      <point x="509" y="752"/>
    </contour>
    <contour>
      <point x="401" y="-13" type="curve" smooth="yes"/>
      <point x="184" y="-13"/>
      <point x="40" y="96"/>
      <point x="40" y="306" type="curve" smooth="yes"/>
      <point x="40" y="548"/>
      <point x="210" y="726"/>
      <point x="451" y="725" type="curve" smooth="yes"/>
      <point x="623" y="725"/>
      <point x="768" y="650"/>
      <point x="777" y="456" type="curve"/>
      <point x="552" y="456" type="line"/>
      <point x="547" y="515"/>
      <point x="515" y="547"/>
      <point x="442" y="547" type="curve" smooth="yes"/>
      <point x="332" y="547"/>
      <point x="275" y="433"/>
      <point x="275" y="308" type="curve" smooth="yes"/>
      <point x="275" y="215"/>
      <point x="317" y="159"/>
      <point x="410" y="159" type="curve" smooth="yes"/>
      <point x="492" y="159"/>
      <point x="528" y="199"/>
      <point x="540" y="250" type="curve"/>
      <point x="420" y="250" type="line"/>
      <point x="444" y="399" type="line"/>
      <point x="785" y="399" type="line"/>
      <point x="768" y="121"/>
      <point x="655" y="-13"/>
    </contour>
  </outline>
</glyph>
<glyph name="Itilde" format="2">
  <advance width="366"/>
  <unicode hex="0128"/>
  <outline>
    <contour>
      <point x="26" y="0" type="line"/>
      <point x="139" y="715" type="line"/>
      <point x="368" y="715" type="line"/>
      <point x="255" y="0" type="line"/>
    </contour>
    <contour>
      <point x="334" y="755" type="curve" smooth="yes"/>
      <point x="275" y="755"/>
      <point x="245" y="787"/>
      <point x="214" y="787" type="curve" smooth="yes"/>
      <point x="198" y="787"/>
      <point x="184" y="775"/>
      <point x="181" y="757" type="curve"/>
      <point x="71" y="757" type="line"/>
      <point x="89" y="868"/>
      <point x="147" y="917"/>
      <point x="211" y="917" type="curve" smooth="yes"/>
      <point x="267" y="917"/>
      <point x="300" y="885"/>
      <point x="334" y="885" type="curve" smooth="yes"/>
      <point x="351" y="885"/>
      <point x="362" y="896"/>
      <point x="368" y="915" type="curve"/>
      <point x="477" y="915" type="line"/>
      <point x="457" y="804"/>
      <point x="396" y="755"/>
    </contour>
  </outline>
</glyph>
<glyph name="itilde" format="2">
  <advance width="303"/>
  <unicode hex="0129"/>
  <outline>
    <contour>
      <point x="11" y="0" type="line"/>
      <point x="93" y="523" type="line"/>
      <point x="290" y="523" type="line"/>
      <point x="207" y="0" type="line"/>
    </contour>
    <contour>
      <point x="274" y="581" type="curve" smooth="yes"/>
      <point x="215" y="581"/>
      <point x="187" y="613"/>
      <point x="156" y="613" type="curve" smooth="yes"/>
      <point x="140" y="613"/>
      <point x="128" y="601"/>
      <point x="123" y="583" type="curve"/>
      <point x="20" y="583" type="line"/>
      <point x="37" y="694"/>
      <point x="87" y="745"/>
      <point x="152" y="745" type="curve" smooth="yes"/>
      <point x="208" y="745"/>
      <point x="239" y="713"/>
      <point x="273" y="713" type="curve" smooth="yes"/>
      <point x="290" y="713"/>
      <point x="300" y="725"/>
      <point x="305" y="744" type="curve"/>
      <point x="409" y="744" type="line"/>
      <point x="391" y="632"/>
      <point x="336" y="581"/>
    </contour>
  </outline>
</glyph>
<glyph name="Imacron" format="2">
  <advance width="366"/>
  <unicode hex="012A"/>
  <outline>
    <contour>
      <point x="26" y="0" type="line"/>
      <point x="139" y="715" type="line"/>
      <point x="368" y="715" type="line"/>
      <point x="255" y="0" type="line"/>
    </contour>
    <contour>
      <point x="93" y="769" type="line"/>
      <point x="111" y="884" type="line"/>
      <point x="443" y="884" type="line"/>
      <point x="425" y="769" type="line"/>
    </contour>
  </outline>
</glyph>
<glyph name="imacron" format="2">
  <advance width="303"/>
  <unicode hex="012B"/>
  <outline>
    <contour>
      <point x="78" y="605" type="line"/>
      <point x="95" y="712" type="line"/>
      <point x="350" y="712" type="line"/>
      <point x="333" y="605" type="line"/>
    </contour>
    <contour>
      <point x="11" y="0" type="line"/>
      <point x="93" y="523" type="line"/>
      <point x="290" y="523" type="line"/>
      <point x="207" y="0" type="line"/>
    </contour>
  </outline>
</glyph>
<glyph name="Ibreve" format="2">
  <advance width="366"/>
  <unicode hex="012C"/>
  <outline>
    <contour>
      <point x="26" y="0" type="line"/>
      <point x="139" y="715" type="line"/>
      <point x="368" y="715" type="line"/>
      <point x="255" y="0" type="line"/>
    </contour>
    <contour>
      <point x="268" y="749" type="curve" smooth="yes"/>
      <point x="159" y="749"/>
      <point x="102" y="810"/>
      <point x="101" y="906" type="curve"/>
      <point x="225" y="906" type="line"/>
      <point x="227" y="880"/>
      <point x="241" y="864"/>
      <point x="270" y="864" type="curve" smooth="yes"/>
      <point x="297" y="864"/>
      <point x="314" y="878"/>
      <point x="319" y="906" type="curve"/>
      <point x="444" y="906" type="line"/>
      <point x="429" y="805"/>
      <point x="362" y="749"/>
    </contour>
  </outline>
</glyph>
<glyph name="ibreve" format="2">
  <advance width="303"/>
  <unicode hex="012D"/>
  <outline>
    <contour>
      <point x="11" y="0" type="line"/>
      <point x="93" y="523" type="line"/>
      <point x="290" y="523" type="line"/>
      <point x="207" y="0" type="line"/>
    </contour>
    <contour>
      <point x="208" y="581" type="curve" smooth="yes"/>
      <point x="104" y="581"/>
      <point x="40" y="641"/>
      <point x="44" y="744" type="curve"/>
      <point x="162" y="744" type="line"/>
      <point x="164" y="715"/>
      <point x="179" y="699"/>
      <point x="210" y="699" type="curve" smooth="yes"/>
      <point x="239" y="699"/>
      <point x="258" y="715"/>
      <point x="262" y="744" type="curve"/>
      <point x="382" y="744" type="line"/>
      <point x="368" y="638"/>
      <point x="303" y="581"/>
    </contour>
  </outline>
</glyph>
<glyph name="Iogonek" format="2">
  <advance width="366"/>
  <unicode hex="012E"/>
  <outline>
    <contour>
      <point x="151" y="-182" type="curve" smooth="yes"/>
      <point x="93" y="-182"/>
      <point x="36" y="-164"/>
      <point x="36" y="-103" type="curve" smooth="yes"/>
      <point x="36" y="-49"/>
      <point x="90" y="-15"/>
      <point x="134" y="0" type="curve"/>
      <point x="26" y="0" type="line"/>
      <point x="139" y="715" type="line"/>
      <point x="368" y="715" type="line"/>
      <point x="258" y="15" type="line"/>
      <point x="221" y="-12"/>
      <point x="193" y="-38"/>
      <point x="193" y="-63" type="curve" smooth="yes"/>
      <point x="193" y="-78"/>
      <point x="204" y="-85"/>
      <point x="221" y="-85" type="curve" smooth="yes"/>
      <point x="230" y="-85"/>
      <point x="239" y="-84"/>
      <point x="246" y="-82" type="curve"/>
      <point x="232" y="-167" type="line"/>
      <point x="215" y="-174"/>
      <point x="189" y="-182"/>
    </contour>
  </outline>
</glyph>
<glyph name="iogonek" format="2">
  <advance width="303"/>
  <unicode hex="012F"/>
  <outline>
    <contour>
      <point x="11" y="0" type="line"/>
      <point x="93" y="523" type="line"/>
      <point x="290" y="523" type="line"/>
      <point x="210" y="15" type="line"/>
      <point x="173" y="-11"/>
      <point x="146" y="-36"/>
      <point x="146" y="-63" type="curve" smooth="yes"/>
      <point x="146" y="-78"/>
      <point x="156" y="-85"/>
      <point x="173" y="-85" type="curve" smooth="yes"/>
      <point x="182" y="-85"/>
      <point x="191" y="-84"/>
      <point x="198" y="-82" type="curve"/>
      <point x="184" y="-167" type="line"/>
      <point x="167" y="-174"/>
      <point x="141" y="-182"/>
      <point x="103" y="-182" type="curve" smooth="yes"/>
      <point x="45" y="-182"/>
      <point x="-12" y="-164"/>
      <point x="-12" y="-103" type="curve" smooth="yes"/>
      <point x="-12" y="-49"/>
      <point x="42" y="-15"/>
      <point x="85" y="0" type="curve"/>
    </contour>
    <contour>
      <point x="211" y="563" type="curve" smooth="yes"/>
      <point x="150" y="563"/>
      <point x="107" y="605"/>
      <point x="107" y="661" type="curve" smooth="yes"/>
      <point x="107" y="718"/>
      <point x="151" y="759"/>
      <point x="212" y="759" type="curve" smooth="yes"/>
      <point x="271" y="759"/>
      <point x="316" y="718"/>
      <point x="316" y="661" type="curve" smooth="yes"/>
      <point x="316" y="605"/>
      <point x="270" y="563"/>
    </contour>
  </outline>
</glyph>
<glyph name="Idotaccent" format="2">
  <advance width="366"/>
  <unicode hex="0130"/>
  <outline>
    <contour>
      <point x="26" y="0" type="line"/>
      <point x="139" y="715" type="line"/>
      <point x="368" y="715" type="line"/>
      <point x="255" y="0" type="line"/>
    </contour>
    <contour>
      <point x="264" y="752" type="curve" smooth="yes"/>
      <point x="205" y="752"/>
      <point x="161" y="792"/>
      <point x="161" y="846" type="curve" smooth="yes"/>
      <point x="161" y="901"/>
      <point x="206" y="942"/>
      <point x="264" y="942" type="curve" smooth="yes"/>
      <point x="322" y="942"/>
      <point x="367" y="902"/>
      <point x="367" y="847" type="curve" smooth="yes"/>
      <point x="367" y="792"/>
      <point x="322" y="752"/>
    </contour>
  </outline>
</glyph>
<glyph name="IJ" format="2">
  <advance width="830"/>
  <unicode hex="0132"/>
  <outline>
    <contour>
      <point x="17" y="0" type="line"/>
      <point x="130" y="715" type="line"/>
      <point x="359" y="715" type="line"/>
      <point x="246" y="0" type="line"/>
    </contour>
    <contour>
      <point x="483" y="-9" type="curve" smooth="yes"/>
      <point x="399" y="-9"/>
      <point x="353" y="8"/>
      <point x="325" y="22" type="curve"/>
      <point x="351" y="188" type="line"/>
      <point x="375" y="180"/>
      <point x="403" y="170"/>
      <point x="442" y="170" type="curve" smooth="yes"/>
      <point x="490" y="170"/>
      <point x="527" y="191"/>
      <point x="536" y="252" type="curve" smooth="yes"/>
      <point x="610" y="715" type="line"/>
      <point x="837" y="715" type="line"/>
      <point x="762" y="243" type="line" smooth="yes"/>
      <point x="735" y="70"/>
      <point x="638" y="-9"/>
    </contour>
  </outline>
</glyph>
<glyph name="ij" format="2">
  <advance width="605"/>
  <unicode hex="0133"/>
  <outline>
    <contour>
      <point x="211" y="563" type="curve" smooth="yes"/>
      <point x="150" y="563"/>
      <point x="107" y="605"/>
      <point x="107" y="661" type="curve" smooth="yes"/>
      <point x="107" y="718"/>
      <point x="151" y="759"/>
      <point x="212" y="759" type="curve" smooth="yes"/>
      <point x="271" y="759"/>
      <point x="316" y="718"/>
      <point x="316" y="661" type="curve" smooth="yes"/>
      <point x="316" y="605"/>
      <point x="270" y="563"/>
    </contour>
    <contour>
      <point x="11" y="0" type="line"/>
      <point x="93" y="523" type="line"/>
      <point x="290" y="523" type="line"/>
      <point x="207" y="0" type="line"/>
    </contour>
    <contour>
      <point x="223" y="-181" type="curve"/>
      <point x="245" y="-42" type="line"/>
      <point x="286" y="-40"/>
      <point x="309" y="-25"/>
      <point x="314" y="13" type="curve" smooth="yes"/>
      <point x="395" y="523" type="line"/>
      <point x="591" y="523" type="line"/>
      <point x="507" y="-6" type="line" smooth="yes"/>
      <point x="491" y="-108"/>
      <point x="429" y="-192"/>
    </contour>
    <contour>
      <point x="512" y="563" type="curve" smooth="yes"/>
      <point x="452" y="563"/>
      <point x="409" y="605"/>
      <point x="409" y="661" type="curve" smooth="yes"/>
      <point x="409" y="718"/>
      <point x="453" y="759"/>
      <point x="513" y="759" type="curve" smooth="yes"/>
      <point x="573" y="759"/>
      <point x="617" y="718"/>
      <point x="617" y="661" type="curve" smooth="yes"/>
      <point x="617" y="605"/>
      <point x="572" y="563"/>
    </contour>
  </outline>
</glyph>
<glyph name="jcircumflex" format="2">
  <advance width="303"/>
  <unicode hex="0135"/>
  <outline>
    <contour>
      <point x="-79" y="-181" type="curve"/>
      <point x="-57" y="-42" type="line"/>
      <point x="-16" y="-40"/>
      <point x="7" y="-25"/>
      <point x="12" y="13" type="curve" smooth="yes"/>
      <point x="93" y="523" type="line"/>
      <point x="289" y="523" type="line"/>
      <point x="205" y="-6" type="line" smooth="yes"/>
      <point x="189" y="-108"/>
      <point x="127" y="-192"/>
    </contour>
    <contour>
      <point x="1" y="580" type="line"/>
      <point x="148" y="746" type="line"/>
      <point x="285" y="746" type="line"/>
      <point x="384" y="580" type="line"/>
      <point x="252" y="580" type="line"/>
      <point x="203" y="633" type="line"/>
      <point x="140" y="580" type="line"/>
    </contour>
  </outline>
</glyph>
<glyph name="Kcommaaccent" format="2">
  <advance width="745"/>
  <unicode hex="0136"/>
  <outline>
    <contour>
      <point x="23" y="0" type="line"/>
      <point x="136" y="715" type="line"/>
      <point x="363" y="715" type="line"/>
      <point x="320" y="442" type="line"/>
      <point x="566" y="715" type="line"/>
      <point x="809" y="715" type="line"/>
      <point x="492" y="373" type="line"/>
      <point x="696" y="0" type="line"/>
      <point x="451" y="0" type="line"/>
      <point x="297" y="300" type="line"/>
      <point x="250" y="0" type="line"/>
    </contour>
    <contour>
      <point x="312" y="-233" type="line"/>
      <point x="204" y="-206" type="line"/>
      <point x="251" y="-31" type="line"/>
      <point x="422" y="-43" type="line"/>
    </contour>
  </outline>
</glyph>
<glyph name="Lacute" format="2">
  <advance width="582"/>
  <unicode hex="0139"/>
  <outline>
    <contour>
      <point x="167" y="757" type="line"/>
      <point x="231" y="906" type="line"/>
      <point x="432" y="906" type="line"/>
      <point x="317" y="757" type="line"/>
    </contour>
    <contour>
      <point x="23" y="0" type="line"/>
      <point x="136" y="715" type="line"/>
      <point x="363" y="715" type="line"/>
      <point x="278" y="175" type="line"/>
      <point x="538" y="175" type="line"/>
      <point x="510" y="0" type="line"/>
    </contour>
  </outline>
</glyph>
<glyph name="lacute" format="2">
  <advance width="300"/>
  <unicode hex="013A"/>
  <outline>
    <contour>
      <point x="147" y="787" type="line"/>
      <point x="211" y="936" type="line"/>
      <point x="412" y="936" type="line"/>
      <point x="297" y="787" type="line"/>
    </contour>
    <contour>
      <point x="10" y="0" type="line"/>
      <point x="129" y="750" type="line"/>
      <point x="324" y="750" type="line"/>
      <point x="206" y="0" type="line"/>
    </contour>
  </outline>
</glyph>
<glyph name="lcommaaccent" format="2">
  <advance width="300"/>
  <unicode hex="013C"/>
  <outline>
    <contour>
      <point x="79" y="-233" type="line"/>
      <point x="-29" y="-206" type="line"/>
      <point x="18" y="-31" type="line"/>
      <point x="189" y="-43" type="line"/>
    </contour>
    <contour>
      <point x="10" y="0" type="line"/>
      <point x="129" y="750" type="line"/>
      <point x="324" y="750" type="line"/>
      <point x="206" y="0" type="line"/>
    </contour>
  </outline>
</glyph>
<glyph name="Lcaron" format="2">
  <advance width="582"/>
  <unicode hex="013D"/>
  <outline>
    <contour>
      <point x="407" y="535" type="line"/>
      <point x="450" y="715" type="line"/>
      <point x="609" y="715" type="line"/>
      <point x="519" y="535" type="line"/>
    </contour>
    <contour>
      <point x="23" y="0" type="line"/>
      <point x="136" y="715" type="line"/>
      <point x="363" y="715" type="line"/>
      <point x="278" y="175" type="line"/>
      <point x="538" y="175" type="line"/>
      <point x="510" y="0" type="line"/>
    </contour>
  </outline>
</glyph>
<glyph name="lcaron" format="2">
  <advance width="300"/>
  <unicode hex="013E"/>
  <outline>
    <contour>
      <point x="332" y="575" type="line"/>
      <point x="367" y="750" type="line"/>
      <point x="506" y="750" type="line"/>
      <point x="431" y="575" type="line"/>
    </contour>
    <contour>
      <point x="10" y="0" type="line"/>
      <point x="129" y="750" type="line"/>
      <point x="324" y="750" type="line"/>
      <point x="206" y="0" type="line"/>
    </contour>
  </outline>
</glyph>
<glyph name="Ldot" format="2">
  <advance width="613"/>
  <unicode hex="013F"/>
  <outline>
    <contour>
      <point x="23" y="0" type="line"/>
      <point x="136" y="715" type="line"/>
      <point x="363" y="715" type="line"/>
      <point x="278" y="175" type="line"/>
      <point x="538" y="175" type="line"/>
      <point x="510" y="0" type="line"/>
    </contour>
    <contour>
      <point x="516" y="297" type="curve" smooth="yes"/>
      <point x="453" y="297"/>
      <point x="406" y="344"/>
      <point x="406" y="404" type="curve" smooth="yes"/>
      <point x="406" y="464"/>
      <point x="452" y="512"/>
      <point x="515" y="512" type="curve" smooth="yes"/>
      <point x="579" y="512"/>
      <point x="628" y="464"/>
      <point x="628" y="404" type="curve" smooth="yes"/>
      <point x="628" y="344"/>
      <point x="580" y="297"/>
    </contour>
  </outline>
</glyph>
